<?xml version="1.0" standalone="no"?>
<!DOCTYPE svg PUBLIC "-//W3C//DTD SVG 20010904//EN"
 "http://www.w3.org/TR/2001/REC-SVG-20010904/DTD/svg10.dtd">
<svg version="1.0" xmlns="http://www.w3.org/2000/svg"
 width="700.000000pt" height="700.000000pt" viewBox="0 0 700.000000 700.000000"
 preserveAspectRatio="xMidYMid meet">
<metadata>
Created by potrace 1.11, written by Peter Selinger 2001-2013
</metadata>
<g transform="translate(0.000000,700.000000) scale(0.100000,-0.100000)"
fill="#000000" stroke="none">
<path d="M3278 6995 c-2 -1 -41 -5 -88 -9 -87 -7 -105 -9 -225 -27 -116 -18
-123 -19 -192 -35 -184 -42 -248 -59 -369 -99 -264 -88 -538 -216 -759 -356
-346 -217 -655 -497 -910 -824 -238 -304 -432 -668 -559 -1047 -31 -94 -79
-267 -91 -329 -3 -13 -11 -58 -20 -99 -29 -147 -36 -200 -52 -370 -10 -107
-10 -500 0 -601 24 -252 51 -404 111 -631 76 -284 234 -649 379 -876 26 -40
47 -75 47 -78 0 -2 4 -10 10 -17 5 -7 46 -64 91 -126 188 -267 410 -501 679
-716 92 -74 370 -265 386 -265 4 0 15 -6 23 -14 27 -23 260 -140 392 -196 281
-120 597 -208 874 -245 22 -2 56 -7 75 -10 186 -26 698 -27 838 0 16 3 104 15
147 20 324 41 870 235 1167 415 37 22 70 40 73 40 3 0 11 5 18 10 7 6 62 43
122 83 253 168 492 376 678 592 33 39 63 72 67 75 17 13 181 236 245 335 219
336 406 779 481 1140 16 79 54 301 59 350 4 33 9 71 11 85 9 48 11 525 3 605
-4 44 -10 107 -13 140 -5 53 -12 106 -21 155 -1 8 -6 35 -10 60 -40 256 -170
651 -296 902 -230 457 -535 844 -919 1166 -66 56 -304 230 -351 257 -235 137
-500 275 -527 275 -4 0 -26 8 -48 19 -96 46 -391 136 -562 172 -54 11 -106 22
-117 25 -11 2 -38 6 -60 9 -22 3 -51 7 -65 10 -13 2 -52 7 -86 11 -33 3 -74 8
-90 10 -32 5 -540 14 -546 9z"/>
</g>
</svg>
