<svg width="900" height="600" viewBox="0 0 900 600" fill="none" xmlns="http://www.w3.org/2000/svg"><path fill="transparent" d="M0 0h900v600H0z"/><path d="M779.112 399.48h-63.427c-15.542 0-28.563-10.578-28.563-23.976 0-6.699 3.36-12.693 8.401-16.925 5.04-4.231 12.181-7.051 20.162-7.051h9.241c7.981 0 15.122-2.821 20.162-7.052 5.041-4.231 8.401-10.225 8.401-16.925 0-13.045-12.601-23.976-28.563-23.976H531.198c-5.062 0-8.315-6.221-8.315-11.283 0-12.693-12.181-22.918-27.303-22.918h-72.093a6.876 6.876 0 0 1 0-13.751h276.236c12.182 0 23.523-4.231 31.504-10.93 7.981-6.7 13.021-16.22 13.021-26.445 0-20.803-20.162-37.374-44.525-37.374H557.051c-22.386 0-44.545-17.277-66.931-17.277h-79.656c-11.684 0-21.156-9.472-21.156-21.156s9.472-21.155 21.156-21.155h178.367c8.401 0 16.382-2.821 21.842-7.405 5.461-4.583 8.821-10.93 8.821-18.334 0-14.104-13.861-25.74-30.663-25.74H177.604c-8.401 0-16.381 2.821-21.842 7.405-5.461 4.584-8.821 10.93-8.821 18.335 0 14.103 13.861 25.739 30.663 25.739h10.502c13.861 0 25.622 9.52 25.622 21.508 0 5.994-2.94 11.283-7.56 15.161-4.621 3.879-10.922 6.347-18.062 6.347H137.28c-8.821 0-17.222 3.173-23.103 8.11-5.88 4.936-9.661 11.635-9.661 19.392 0 15.161 14.702 27.15 32.344 27.15h51.666c16.801 0 30.663 11.635 30.663 25.739 0 7.051-3.36 13.398-8.821 17.982-5.461 4.583-13.021 7.404-21.422 7.404H142.74c-7.56 0-14.281 2.468-19.322 6.699-5.04 4.231-7.981 9.873-7.981 16.22 0 12.693 12.182 22.918 27.303 22.918h37.385c21.422 0 38.644 14.456 38.644 32.438 0 8.815-4.2 17.277-11.341 22.919-7.141 5.994-16.802 9.52-27.303 9.52h-52.086c-10.501 0-20.163 3.526-26.883 9.52-7.141 5.641-11.342 13.751-11.342 22.565 0 17.63 17.222 32.086 38.225 32.086h160.832c17.762 0 35.21 9.873 52.972 9.873h29.291c11.198 0 20.274 9.077 20.274 20.274 0 11.197-9.076 20.274-20.273 20.274h-71.297c-9.241 0-17.222 3.173-23.102 8.109-5.881 4.937-9.662 11.988-9.662 19.393 0 15.161 14.702 27.502 32.764 27.502h436.849c9.241 0 17.222-3.174 23.103-8.11s9.661-11.988 9.661-19.392c0-15.162-14.702-27.502-32.764-27.502h-13.021c-13.442 0-23.943-9.168-23.943-20.098 0-5.641 2.521-10.578 7.141-14.104 4.201-3.526 10.501-5.994 17.222-5.994h55.026c9.241 0 17.222-3.173 23.103-8.109 5.881-4.937 9.661-11.988 9.661-19.393 0-15.866-14.702-28.207-32.764-28.207z" fill="url(#a)"/><path d="M828.853 361.618c-10.697 5.306-24.895-1.517-24.895-1.517s3.155-15.423 13.858-20.722c10.697-5.306 24.889 1.509 24.889 1.509s-3.155 15.423-13.852 20.73z" fill="url(#b)"/><path d="M80.133 356.131c15.62 9.362 38.03.708 38.03.708s-2.93-23.829-18.56-33.181c-15.62-9.361-38.02-.718-38.02-.718s2.93 23.83 18.55 33.191z" fill="url(#c)"/><circle cx="791.169" cy="204.198" r="7.264" transform="rotate(180 791.169 204.198)" fill="#117BBF"/><circle cx="638.854" cy="456.47" r="13.662" transform="rotate(180 638.854 456.47)" fill="#117BBF"/><circle r="10.845" transform="matrix(-1 0 0 1 189.938 487.418)" fill="#117BBF"/><circle r="7.261" transform="matrix(-1 0 0 1 759.721 280.419)" fill="#117BBF"/><circle r="13.485" transform="matrix(-1 0 0 1 71.375 493.394)" fill="#E1E4E5"/><circle r="10.263" transform="matrix(-1 0 0 1 801.988 498.889)" fill="#E1E4E5"/><circle r="12.9" transform="matrix(-1 0 0 1 689.229 127.848)" fill="#E1E4E5"/><circle r="10.246" transform="scale(1 -1) rotate(-75 -76.612 -237.485)" fill="#E1E4E5"/><circle r="13.631" transform="matrix(-1 0 0 1 289.013 122.279)" fill="#E1E4E5"/><ellipse rx="10.485" ry="8.388" transform="matrix(-1 0 0 1 741.533 375.522)" fill="#E1E4E5"/><circle r="21.324" transform="scale(1 -1) rotate(-75 259.215 -421.623)" fill="#E1E4E5"/><path d="M190.484 135.17h.149c.885 12.532 10.205 12.725 10.205 12.725s-10.277.2-10.277 14.681c0-14.481-10.278-14.681-10.278-14.681s9.316-.193 10.201-12.725zm9.109 402.07h.143c.849 12.495 9.798 12.687 9.798 12.687s-9.868.2-9.868 14.638c0-14.438-9.867-14.638-9.867-14.638s8.945-.192 9.794-12.687z" fill="#E1E4E5"/><path fill-rule="evenodd" clip-rule="evenodd" d="M450.481 462.941c90.28 0 163.467-73.187 163.467-163.467 0-90.28-73.187-163.466-163.467-163.466-90.28 0-163.467 73.186-163.467 163.466s73.187 163.467 163.467 163.467zm0 40.867c112.85 0 204.333-91.484 204.333-204.334 0-112.85-91.483-204.333-204.333-204.333s-204.333 91.483-204.333 204.333 91.483 204.334 204.333 204.334z" fill="#117BBF"/><circle cx="451.638" cy="294.848" r="173.491" fill="#117BBF"/><path fill-rule="evenodd" clip-rule="evenodd" d="M432.772 248.406c-5.65 9.768-18.15 13.106-27.918 7.456-9.769-5.651-13.107-18.151-7.456-27.919 10.568-18.269 30.371-30.635 53.087-30.635 33.855 0 61.3 27.445 61.3 61.3-.001 22.43-13.76 40.744-30.65 51.083-13.568 8.306-5.109 30.65-30.704 30.65-11.285 0-20.433-9.148-20.433-20.433 0-.718.037-1.426.109-2.125.567-10.806 5.385-19.599 10.632-25.993 5.541-6.752 12.826-12.264 18.396-15.576 30.992-18.423-6.808-56.115-26.363-27.808zm17.659 112.369c-11.285 0-20.433 9.148-20.433 20.433s9.148 20.433 20.433 20.433 20.433-9.148 20.433-20.433-9.148-20.433-20.433-20.433z" fill="#fff"/><defs><linearGradient id="a" x1="466.241" y1="819.83" x2="456.377" y2="-453.079" gradientUnits="userSpaceOnUse"><stop stop-color="#fff"/><stop offset="1" stop-color="#EEE"/></linearGradient><linearGradient id="b" x1="787.775" y1="378.169" x2="876.004" y2="308.38" gradientUnits="userSpaceOnUse"><stop stop-color="#fff"/><stop offset="1" stop-color="#EEE"/></linearGradient><linearGradient id="c" x1="140.579" y1="386.266" x2="14.894" y2="269.488" gradientUnits="userSpaceOnUse"><stop stop-color="#fff"/><stop offset="1" stop-color="#EEE"/></linearGradient></defs></svg>