<svg width="1089" height="756" viewBox="0 0 1089 756" fill="none" xmlns="http://www.w3.org/2000/svg">
  <path d="M513.932 459.922C489.377 419.265 446.79 405.773 432.798 402.001C428.98 391.47 427.823 380.159 429.431 369.073C432.602 347.291 437.777 311.888 438.282 309.301L332.482 350.457L224.875 386.612C226.917 388.296 253.565 412.154 269.948 426.847C278.289 434.327 284.652 443.753 288.469 454.287V454.287C280.14 466.146 256.074 503.783 263.258 550.731C270.043 595.069 300.951 623.131 321.532 641.871C336.39 655.353 353.004 666.764 370.921 675.793C378.815 681.454 387.827 685.364 397.354 687.261C406.882 689.158 416.704 688.999 426.165 686.793C429.397 686.041 435.616 684.447 441.442 682.651C444.012 681.854 447.278 680.838 451.016 679.525L451.634 679.295L452.251 679.076C455.961 677.69 459.121 676.382 461.607 675.344C467.219 672.992 473.028 670.231 475.992 668.738C484.666 664.37 492.307 658.201 498.404 650.643C504.502 643.085 508.916 634.312 511.35 624.91C519.324 606.502 524.771 587.1 527.542 567.231C531.37 539.691 537.117 498.322 513.932 459.922Z"
        fill="#D6B49A" />
  <path d="M410.669 689.42C396.25 689.415 382.193 684.901 370.467 676.511C352.508 667.45 335.856 656.006 320.959 642.489C300.367 623.771 269.252 595.49 262.422 550.854C255.805 507.605 275.179 471.843 287.521 454.158C283.729 443.923 277.506 434.764 269.387 427.471C253.442 413.165 226.384 388.919 224.341 387.263C224.226 387.167 224.138 387.042 224.086 386.901C224.034 386.761 224.02 386.609 224.044 386.461C224.071 386.312 224.138 386.174 224.237 386.059C224.335 385.945 224.462 385.859 224.605 385.81L332.218 349.649L437.995 308.521C438.135 308.467 438.287 308.451 438.435 308.475C438.582 308.5 438.721 308.564 438.836 308.66C438.95 308.756 439.037 308.882 439.087 309.023C439.136 309.165 439.147 309.317 439.118 309.464C438.618 312.045 433.365 347.993 430.278 369.197C428.716 379.998 429.803 391.017 433.444 401.305C454.249 406.98 492.032 422.032 514.65 459.49C537.992 498.142 532.206 539.792 528.378 567.355C525.597 587.276 520.139 606.73 512.153 625.191C509.677 634.697 505.204 643.565 499.03 651.205C492.857 658.845 485.125 665.08 476.351 669.496C473.124 671.118 467.405 673.828 461.904 676.124C459.317 677.207 456.258 678.47 452.65 679.823L452.52 679.884L451.286 680.328L451.157 680.367C447.503 681.641 444.349 682.612 441.672 683.454C435.975 685.216 429.852 686.821 426.338 687.618C421.201 688.815 415.943 689.419 410.669 689.42ZM226.547 386.938C232.26 391.933 255.99 413.198 270.515 426.225C278.952 433.803 285.392 443.342 289.266 454.001C289.312 454.127 289.328 454.264 289.31 454.397C289.292 454.531 289.243 454.659 289.165 454.77C276.98 472.123 257.522 507.644 264.094 550.602C270.829 594.654 301.698 622.694 322.104 641.248C336.903 654.676 353.449 666.043 371.292 675.041L371.404 675.108C379.2 680.698 388.101 684.56 397.51 686.433C406.919 688.307 416.619 688.151 425.962 685.974C429.453 685.16 435.532 683.594 441.189 681.843C443.877 681.018 447.054 680.019 450.73 678.734L450.842 678.7L451.841 678.341L451.948 678.29C455.585 676.932 458.683 675.658 461.27 674.569C466.725 672.291 472.4 669.602 475.604 667.992C484.175 663.68 491.726 657.587 497.752 650.122C503.778 642.656 508.14 633.99 510.547 624.703C510.56 624.661 510.575 624.62 510.592 624.579C518.536 606.243 523.962 586.916 526.722 567.125C530.516 539.798 536.264 498.502 513.219 460.36C490.752 423.155 453.048 408.327 432.579 402.815C432.451 402.777 432.333 402.71 432.236 402.618C432.138 402.527 432.064 402.413 432.018 402.288C428.165 391.623 426.999 380.173 428.623 368.95C431.429 349.649 436.037 318.118 437.232 310.625L332.796 351.237L226.547 386.938Z"
        fill="black" />
  <path d="M337.379 364.026C396.314 342.68 441.439 318.057 438.169 309.028C434.899 299.999 384.472 309.984 325.537 331.33C266.602 352.675 221.477 377.299 224.747 386.328C228.017 395.356 278.445 385.372 337.379 364.026Z"
        fill="#020202" />
  <path d="M235.578 390.457C229.505 390.457 224.998 389.418 223.971 386.59C221.726 380.416 237.671 370.196 251.427 362.686C270.51 352.281 296.725 340.854 325.264 330.51C353.804 320.166 381.265 312.152 402.576 307.931C417.954 304.889 436.744 302.549 438.972 308.706C441.2 314.863 425.272 325.105 411.516 332.615C392.434 343.02 366.224 354.447 337.679 364.785C309.134 375.123 281.684 383.144 260.368 387.37C252.05 389.014 242.734 390.457 235.578 390.457ZM427.411 306.5C422.287 306.5 414.558 307.275 402.907 309.581C381.669 313.791 354.303 321.783 325.837 332.093C297.371 342.403 271.234 353.796 252.224 364.162C225.419 378.788 225.026 384.592 225.543 386.017C226.059 387.443 230.078 391.63 260.031 385.714C281.263 381.51 308.635 373.513 337.095 363.203C365.556 352.893 391.699 341.505 410.703 331.133C437.502 316.507 437.895 310.71 437.378 309.278C437.075 308.425 435.453 306.5 427.411 306.5V306.5Z"
        fill="black" />
  <path d="M449.782 701.295L449.732 747.778C449.732 751.252 453.469 754.075 458.083 754.08H458.251C462.865 754.08 466.614 751.274 466.614 747.794L466.664 701.829C466.664 701.531 462.764 701.267 458.027 701.267H449.782"
        fill="#818181" />
  <path d="M458.246 754.923H458.067C453.015 754.923 448.873 751.712 448.873 747.778L448.924 700.454H458.01C460.312 700.454 462.5 700.51 464.184 700.611C466.496 700.757 467.518 700.864 467.518 701.835L467.467 747.8C467.438 748.815 467.168 749.809 466.68 750.7C466.192 751.59 465.501 752.353 464.661 752.925C462.793 754.262 460.544 754.963 458.246 754.923V754.923ZM450.608 702.166L450.557 747.806C450.557 750.814 453.925 753.261 458.067 753.267H458.246C460.178 753.301 462.07 752.71 463.64 751.583C464.265 751.164 464.782 750.604 465.15 749.948C465.517 749.292 465.725 748.558 465.756 747.806L465.806 702.458C463.232 702.211 460.646 702.106 458.061 702.143H450.608V702.166Z"
        fill="#191818" />
  <path d="M893.164 701.295L893.113 747.778C893.113 751.252 896.851 754.075 901.465 754.08H901.633C906.246 754.08 909.996 751.274 909.996 747.794L910.046 701.829C910.046 701.531 906.117 701.267 901.409 701.267H893.164"
        fill="#818181" />
  <path d="M901.628 754.923H901.448C896.397 754.923 892.255 751.712 892.255 747.778L892.306 700.454H901.392C903.716 700.454 905.882 700.51 907.538 700.611C909.85 700.757 910.872 700.864 910.872 701.835L910.821 747.8C910.792 748.815 910.522 749.809 910.034 750.7C909.546 751.59 908.854 752.353 908.015 752.925C906.154 754.257 903.916 754.957 901.628 754.923ZM893.989 702.166L893.939 747.806C893.939 750.814 897.306 753.261 901.448 753.267H901.628C903.56 753.301 905.452 752.71 907.022 751.583C907.646 751.164 908.164 750.604 908.531 749.948C908.899 749.292 909.107 748.558 909.137 747.806L909.188 702.458C906.614 702.211 904.028 702.106 901.443 702.143H893.989V702.166Z"
        fill="#191818" />
  <path d="M936.099 689.79H335.428C333.828 689.79 332.293 690.426 331.162 691.558C330.031 692.689 329.395 694.224 329.395 695.824V695.824C329.395 697.424 330.031 698.959 331.162 700.09C332.293 701.222 333.828 701.857 335.428 701.857H930.206C931.01 701.857 931.805 701.695 932.546 701.383C933.287 701.071 933.957 700.614 934.519 700.039C935.08 699.464 935.521 698.782 935.816 698.034C936.11 697.286 936.252 696.487 936.234 695.683L936.099 689.79Z"
        fill="#DCDBDA" />
  <path d="M930.206 702.699H335.429C333.605 702.699 331.857 701.974 330.567 700.685C329.278 699.396 328.554 697.647 328.554 695.823C328.554 694 329.278 692.251 330.567 690.962C331.857 689.673 333.605 688.948 335.429 688.948H936.941L937.093 695.683C937.112 696.599 936.949 697.509 936.611 698.361C936.273 699.212 935.769 699.988 935.127 700.641C934.486 701.295 933.72 701.814 932.875 702.167C932.03 702.52 931.122 702.701 930.206 702.699V702.699ZM335.429 690.632C334.052 690.632 332.731 691.179 331.758 692.153C330.784 693.126 330.237 694.447 330.237 695.823C330.237 697.2 330.784 698.521 331.758 699.494C332.731 700.468 334.052 701.015 335.429 701.015H930.206C930.898 701.014 931.582 700.876 932.219 700.607C932.856 700.339 933.433 699.946 933.916 699.451C934.399 698.956 934.779 698.37 935.032 697.727C935.286 697.084 935.408 696.397 935.392 695.706L935.275 690.654L335.429 690.632Z"
        fill="black" />
  <path d="M305.397 376.055C305.397 376.055 283.721 458.839 287.336 493.518C289.491 514.217 288.817 548.52 287.897 572.878C287.612 580.546 284.341 587.8 278.782 593.091C273.223 598.381 265.817 601.289 258.143 601.194C250.47 601.099 243.137 598.008 237.711 592.581C232.285 587.154 229.195 579.822 229.101 572.148C228.95 559.801 227.541 550.405 228.82 543.412C236.493 501.426 224.74 500.758 231.672 462.447C232.858 458.302 234.085 454.132 235.353 449.937C241.987 428.049 249.255 407.704 256.961 387.858C265.234 387.078 274.472 384.62 284.423 382.397C292.073 380.691 299.071 378.143 305.397 376.055Z"
        fill="#5A9BD8" />
  <path d="M258.532 602.028C250.583 602 242.963 598.856 237.307 593.271C231.651 587.686 228.41 580.106 228.281 572.159C228.23 567.792 228.012 563.74 227.821 560.126C227.473 553.548 227.17 547.863 228.012 543.288C231.94 521.899 230.756 511.23 229.628 500.915C228.505 490.739 227.461 481.131 230.863 462.323V462.245C232.064 458.058 233.304 453.826 234.55 449.718C240.583 429.799 247.459 410.055 256.18 387.577L256.371 387.094L256.887 387.044C263.319 386.443 270.397 384.799 277.889 383.059C279.971 382.576 282.087 382.083 284.242 381.605C290.101 380.205 295.881 378.492 301.557 376.476C302.765 376.064 303.953 375.668 305.121 375.286L306.586 374.798L306.198 376.296C305.979 377.121 284.596 459.321 288.154 493.461C290.298 514.064 289.658 548.053 288.744 572.933C288.473 580.757 285.168 588.168 279.529 593.598C273.891 599.029 266.36 602.052 258.532 602.028ZM232.513 462.638C229.145 481.159 230.2 490.661 231.3 500.707C232.423 511.14 233.624 521.933 229.667 543.563C228.865 547.969 229.162 553.565 229.504 560.036C229.695 563.645 229.914 567.736 229.965 572.136C230.06 579.588 233.063 586.707 238.333 591.976C243.604 597.244 250.724 600.244 258.176 600.337C265.627 600.429 272.82 597.606 278.219 592.469C283.619 587.333 286.797 580.29 287.077 572.844C287.992 548.014 288.631 514.115 286.516 493.607C283.199 461.74 301.321 388.728 304.223 377.34L302.107 378.019C296.376 380.054 290.54 381.782 284.624 383.194C282.48 383.676 280.366 384.161 278.282 384.647C270.935 386.331 263.982 387.97 257.578 388.621C248.957 410.852 242.155 430.422 236.183 450.156C234.937 454.286 233.703 458.473 232.513 462.638V462.638Z"
        fill="black" />
  <path d="M315.516 552.774C310.51 552.774 306.845 545.517 305.413 542.671C295.541 523.123 310.465 489.022 316.257 476.916C321.791 489.376 335.519 523.196 325.652 542.671C324.159 545.562 320.505 552.774 315.516 552.774Z"
        fill="#5A9BD8" />
  <path d="M315.516 553.616C309.988 553.616 306.244 546.202 304.65 543.036C295.323 524.571 307.457 493.445 315.477 476.54L316.263 474.856L317.009 476.54C324.524 493.45 335.732 524.566 326.382 543.019C324.782 546.201 321.027 553.616 315.516 553.616ZM316.206 478.931C308.349 495.875 297.438 525.037 306.143 542.278C307.479 544.916 311.021 551.932 315.51 551.932C320 551.932 323.536 544.916 324.878 542.278C333.605 525.031 323.57 495.88 316.206 478.931Z"
        fill="black" />
  <path d="M986.768 465.574C924.61 411.79 847.579 423.744 836.472 425.652C729.544 442.72 643.057 481.777 629.817 531.329C627.096 541.561 624.905 551.925 623.25 562.382C596.788 557.893 552.371 555.692 526.503 583.833L526.374 583.979C519.027 592.016 524.18 605.003 535.012 606.131C541.5 606.805 549.295 607.456 558.084 607.883C576.33 608.769 615.382 637.067 639.835 655.874C655.089 673.301 676.621 683.981 699.725 685.581H700.096C706.881 690.133 724.79 700.796 749.581 700.415C762.657 700.187 775.509 696.976 787.156 691.025L877.168 689.79C918.835 701.885 952.29 700.622 972.68 698.069C1001.98 694.404 1012.98 687.085 1017.91 683.039C1034.91 669.007 1041.1 647.153 1045.48 625.27C1054.47 580.309 1039.99 511.629 986.768 465.574Z"
        fill="#F8F3ED" />
  <path d="M748.307 701.296C725.639 701.296 708.352 692.114 699.855 686.457H699.67C676.371 684.843 654.654 674.082 639.258 656.52C598.848 625.478 571.516 609.376 558.046 608.753C550.245 608.371 542.466 607.782 534.923 606.996C532.285 606.727 529.775 605.727 527.675 604.109C525.575 602.49 523.968 600.318 523.035 597.836C522.084 595.424 521.833 592.792 522.314 590.243C522.795 587.695 523.987 585.335 525.752 583.435L525.881 583.295C537.459 570.7 553.825 562.888 574.541 560.059C592.433 557.618 610.376 559.425 622.555 561.44C624.192 551.235 626.345 541.12 629.004 531.133C635.38 507.269 659.115 484.6 697.638 465.579C734.052 447.62 782.01 433.516 836.338 424.839C844.325 423.469 865.804 420.624 892.569 423.913C929.168 428.403 961.041 442.226 987.318 464.956C1012.03 486.463 1030.35 514.361 1040.25 545.59C1049 572.872 1051.15 601.238 1046.31 625.45C1042.21 645.907 1036.35 668.963 1018.44 683.701C1009.27 691.244 994.34 696.222 972.782 698.922C941.65 702.817 909.44 700.044 877.057 690.649L787.364 691.878C775.647 697.822 762.735 701.034 749.598 701.274C749.166 701.296 748.734 701.296 748.307 701.296ZM700.321 684.762L700.562 684.908C708.981 690.52 726.537 699.966 749.57 699.601C762.516 699.362 775.239 696.182 786.775 690.301L786.949 690.211L877.309 688.977L877.433 689.01C909.637 698.355 941.661 701.133 972.603 697.261C993.835 694.606 1008.49 689.751 1017.4 682.416C1034.88 668.026 1040.65 645.301 1044.68 625.13C1053.58 580.651 1039.07 511.961 986.246 466.242C926.193 414.259 851.082 424.025 836.647 426.511C782.47 435.16 734.675 449.197 698.413 467.1C660.338 485.902 636.906 508.195 630.654 531.576C627.939 541.781 625.756 552.12 624.115 562.551L623.981 563.393L623.139 563.247C598.444 559.043 553.101 556.209 527.166 584.434L527.037 584.574C525.482 586.245 524.433 588.322 524.011 590.566C523.588 592.809 523.811 595.125 524.652 597.247C525.472 599.429 526.882 601.34 528.726 602.766C530.569 604.192 532.773 605.078 535.091 605.323C542.606 606.104 550.351 606.693 558.102 607.069C571.931 607.742 599.595 623.946 640.324 655.235L640.448 655.347C655.545 672.597 676.853 683.175 699.72 684.773L700.321 684.762Z"
        fill="black" />
  <path d="M622.645 561.546C617.381 546.084 609.366 516.77 608.681 489.061C608.174 468.48 610.544 447.929 615.725 428.004C600.992 397.729 594.668 364.05 597.417 330.493C597.562 328.864 598.121 327.299 599.041 325.947C599.961 324.595 601.213 323.501 602.676 322.77C604.139 322.039 605.764 321.694 607.398 321.769C609.032 321.843 610.62 322.335 612.009 323.197L686.15 369.281C713.742 361.785 742.724 360.981 770.69 366.935L837.932 311.933C838.987 311.068 840.252 310.499 841.598 310.283C842.944 310.066 844.324 310.211 845.596 310.703C846.868 311.194 847.987 312.014 848.838 313.079C849.69 314.144 850.243 315.416 850.442 316.765C855.912 354.847 852.734 393.671 841.143 430.355C846.296 446.141 847.668 462.916 845.15 479.329"
        fill="#F8F3ED" />
  <path d="M621.848 561.815C618.762 552.751 608.626 520.715 607.817 489.084C607.307 468.528 609.661 448.001 614.81 428.093C600.108 397.757 593.806 364.035 596.559 330.437C596.693 328.664 597.285 326.955 598.278 325.48C599.271 324.004 600.63 322.811 602.222 322.018C603.822 321.204 605.606 320.819 607.4 320.898C609.194 320.978 610.937 321.52 612.459 322.473L686.29 368.366C713.775 360.96 742.622 360.156 770.477 366.02L837.405 311.259C838.574 310.299 839.978 309.666 841.472 309.426C842.966 309.186 844.497 309.348 845.908 309.893C847.319 310.439 848.56 311.35 849.504 312.533C850.448 313.715 851.06 315.128 851.279 316.625C856.758 354.742 853.597 393.603 842.03 430.333C847.15 446.17 848.496 462.986 845.959 479.436L844.275 479.178C846.771 462.896 845.408 446.255 840.296 430.597L840.211 430.338L840.296 430.08C851.849 393.515 855.016 354.817 849.562 316.861C849.383 315.66 848.889 314.528 848.131 313.58C847.372 312.633 846.376 311.903 845.243 311.466C844.111 311.029 842.883 310.9 841.684 311.093C840.486 311.285 839.36 311.792 838.421 312.561L770.864 367.838L770.471 367.754C742.636 361.827 713.788 362.627 686.324 370.089L685.97 370.184L611.522 323.904C610.244 323.105 608.781 322.65 607.275 322.583C605.77 322.516 604.272 322.84 602.929 323.523C601.6 324.184 600.465 325.179 599.634 326.409C598.802 327.639 598.304 329.064 598.186 330.544C595.442 363.957 601.737 397.494 616.41 427.639L616.545 427.919L616.466 428.222C611.304 448.07 608.942 468.543 609.451 489.044C610.231 520.44 620.299 552.274 623.369 561.282L621.848 561.815Z"
        fill="black" />
  <path d="M238.917 661.167H238.754C238.754 661.167 233.983 661.105 229.527 656.828C226.019 653.461 229.05 638.627 239.629 621.425C248.665 638.902 250.899 653.489 247.577 656.828C243.311 661.144 238.917 661.167 238.917 661.167Z"
        fill="#5A9BD8" />
  <path d="M238.922 662.008H238.754C238.541 662.008 233.596 661.89 228.954 657.44C224.627 653.292 229.106 636.937 238.933 620.959L239.714 619.69L240.398 621.015C248.817 637.33 252.257 653.309 248.2 657.4C243.738 661.89 239.152 661.986 238.933 661.986L238.922 662.008ZM239.573 623.148C229.246 640.406 227.372 653.595 230.105 656.222C234.275 660.223 238.715 660.324 238.759 660.324H238.911C238.995 660.324 243.059 660.201 246.993 656.239C249.597 653.59 248.396 640.737 239.573 623.148V623.148Z"
        fill="black" />
  <path d="M1047.79 596.624C1056.1 600.452 1069.25 608.079 1078.09 622.441C1098.53 655.639 1083.3 704.248 1054.88 729.824C1034.24 748.39 1010.49 751.308 991.797 753.716C980.842 755.125 930.06 761.45 895.185 729.824C888.13 723.426 871.613 708.435 874.048 689.903C875.311 680.361 881.788 667.627 892.833 664.085C913.998 657.272 926.665 692.243 966.407 696.542C972.131 697.16 996.646 699.113 1015.8 683.634C1018.93 681.097 1024.11 676.337 1030.39 665.674C1036.84 654.713 1047.75 631.994 1047.79 596.624Z"
        fill="#333333" />
  <path d="M969.819 756C939.299 756 913.1 747.205 894.612 730.447C887.456 723.959 870.698 708.76 873.206 689.79C874.604 679.261 881.704 666.779 892.569 663.266C903.233 659.837 911.534 666.358 922.063 674.603C932.811 683.021 946.196 693.489 966.491 695.689C975.252 696.637 997.539 697.294 1015.26 682.96C1018.5 680.344 1023.51 675.664 1029.66 665.23C1040.93 646.097 1046.91 622.374 1046.94 596.624V595.31L1048.13 595.872C1061.6 602.09 1071.95 610.885 1078.81 622.009C1088.44 637.651 1090.86 657.962 1085.62 679.199C1080.77 698.882 1069.77 717.56 1055.43 730.463C1034.77 749.052 1011.25 752.071 992.353 754.501L991.898 754.558C984.577 755.51 977.202 755.992 969.819 756V756ZM898.249 664.04C896.497 664.044 894.756 664.324 893.091 664.871C882.888 668.154 876.209 680.024 874.885 690.009C872.488 708.103 888.787 722.887 895.746 729.201C918.196 749.54 952.252 757.947 991.719 752.879L992.173 752.818C1010.84 750.421 1034.07 747.435 1054.34 729.195C1081.84 704.444 1097.69 655.818 1077.4 622.884C1070.93 612.372 1061.26 603.987 1048.65 597.948C1048.42 623.49 1042.38 647.023 1031.14 666.083C1024.85 676.747 1019.69 681.573 1016.35 684.273C998.139 699 975.314 698.304 966.345 697.361C945.579 695.116 931.974 684.453 921.064 675.933C912.729 669.423 905.848 664.04 898.249 664.04V664.04Z"
        fill="#191818" />
  <path d="M787.37 691.755C787.178 691.754 786.992 691.689 786.843 691.568C786.694 691.448 786.59 691.281 786.549 691.094C786.508 690.907 786.532 690.711 786.616 690.54C786.701 690.368 786.842 690.23 787.016 690.149C787.398 689.97 825.484 671.943 834.261 637.954C834.284 637.842 834.329 637.735 834.394 637.641C834.459 637.547 834.543 637.467 834.64 637.406C834.737 637.345 834.845 637.305 834.958 637.287C835.071 637.27 835.187 637.275 835.298 637.304C835.409 637.333 835.512 637.384 835.603 637.454C835.693 637.524 835.768 637.612 835.824 637.712C835.879 637.812 835.914 637.923 835.925 638.037C835.936 638.151 835.924 638.266 835.889 638.375C831.197 656.565 818.345 670.096 808.388 678.223C802.027 683.467 795.095 687.976 787.723 691.665C787.614 691.722 787.493 691.753 787.37 691.755V691.755Z"
        fill="#191818" />
  <path d="M770.718 366.946L837.96 311.944C839.015 311.079 840.28 310.51 841.626 310.294C842.972 310.078 844.352 310.223 845.624 310.714C846.896 311.205 848.015 312.025 848.866 313.091C849.718 314.156 850.271 315.428 850.47 316.777C852.289 329.449 852.788 342.291 852.912 362.237C853.035 382.184 846.02 400.469 841.249 430.496C824.717 402.658 800.122 380.497 770.718 366.946V366.946Z"
        fill="#333333" />
  <path d="M841.714 432.92L840.524 430.928C824.081 403.236 799.616 381.191 770.369 367.709L769.151 367.148L837.432 311.276C838.601 310.316 840.004 309.683 841.498 309.443C842.992 309.203 844.523 309.364 845.934 309.91C847.346 310.456 848.587 311.367 849.53 312.549C850.474 313.732 851.087 315.144 851.306 316.642C853.203 329.859 853.64 343.368 853.758 362.243C853.837 374.461 851.21 386.253 848.146 399.896C846.17 408.775 843.931 418.838 842.056 430.63L841.714 432.92ZM772.288 366.749C800.603 380.092 824.402 401.418 840.76 428.105C842.561 417.233 844.649 407.866 846.501 399.532C849.639 385.428 852.114 374.276 852.046 362.254C851.929 343.452 851.485 329.999 849.611 316.877C849.432 315.677 848.938 314.545 848.18 313.597C847.421 312.65 846.425 311.92 845.293 311.483C844.16 311.046 842.932 310.917 841.733 311.11C840.535 311.302 839.409 311.809 838.47 312.578L772.288 366.749Z"
        fill="#191818" />
  <path d="M702.061 687.264C701.855 687.266 701.655 687.192 701.499 687.057C699.928 685.687 696.257 681.916 696.179 676.517C696.112 671.763 698.828 668.457 699.72 667.368C704.266 661.829 710.985 661.324 718.769 660.734C723.158 660.403 728.136 660.027 733.271 658.669C742.313 656.278 750.872 651.064 758.707 643.173C758.867 643.024 759.078 642.943 759.296 642.947C759.514 642.951 759.722 643.039 759.876 643.194C760.03 643.348 760.119 643.556 760.123 643.774C760.127 643.992 760.046 644.203 759.897 644.363C751.854 652.467 743.06 657.833 733.698 660.297C728.417 661.694 723.36 662.076 718.898 662.412C711.192 662.974 705.108 663.456 701.022 668.435C700.225 669.406 697.807 672.363 697.863 676.494C697.93 681.209 701.23 684.565 702.611 685.788C702.778 685.936 702.88 686.144 702.895 686.367C702.909 686.59 702.836 686.809 702.689 686.978C702.611 687.068 702.514 687.14 702.406 687.189C702.298 687.239 702.18 687.264 702.061 687.264Z"
        fill="#191818" />
  <path d="M726.755 515.244C774.18 515.244 812.625 485.844 812.625 449.578C812.625 413.312 774.18 383.913 726.755 383.913C679.33 383.913 640.885 413.312 640.885 449.578C640.885 485.844 679.33 515.244 726.755 515.244Z"
        fill="#333333" />
  <path d="M726.756 516.085C678.943 516.085 640.044 486.249 640.044 449.578C640.044 412.906 678.943 383.07 726.756 383.07C774.568 383.07 813.468 412.906 813.468 449.578C813.468 486.249 774.568 516.085 726.756 516.085ZM726.756 384.754C679.892 384.754 641.727 413.832 641.727 449.578C641.727 485.323 679.892 514.401 726.756 514.401C773.619 514.401 811.784 485.323 811.784 449.578C811.784 413.832 773.619 384.754 726.756 384.754Z"
        fill="#191818" />
  <path d="M672.034 463.048C681.798 463.048 689.714 455.132 689.714 445.369C689.714 435.605 681.798 427.689 672.034 427.689C662.271 427.689 654.355 435.605 654.355 445.369C654.355 455.132 662.271 463.048 672.034 463.048Z"
        fill="#EFD8AB" />
  <path d="M672.034 463.889C668.371 463.889 664.79 462.803 661.744 460.768C658.699 458.733 656.325 455.84 654.923 452.456C653.521 449.072 653.154 445.348 653.869 441.755C654.584 438.162 656.348 434.862 658.938 432.272C661.528 429.682 664.828 427.918 668.421 427.203C672.014 426.488 675.738 426.855 679.122 428.257C682.506 429.659 685.399 432.033 687.434 435.079C689.469 438.124 690.555 441.705 690.555 445.368C690.555 450.28 688.604 454.991 685.131 458.465C681.657 461.938 676.946 463.889 672.034 463.889V463.889ZM672.034 428.531C668.704 428.531 665.449 429.518 662.68 431.369C659.911 433.219 657.753 435.848 656.479 438.925C655.204 442.001 654.871 445.387 655.52 448.653C656.17 451.919 657.774 454.919 660.128 457.274C662.483 459.629 665.483 461.232 668.749 461.882C672.016 462.532 675.401 462.198 678.478 460.924C681.554 459.649 684.184 457.491 686.034 454.723C687.884 451.954 688.872 448.698 688.872 445.368C688.872 440.903 687.098 436.62 683.94 433.462C680.782 430.305 676.5 428.531 672.034 428.531Z"
        fill="#191818" />
  <path d="M850.229 317.125C850.229 317.125 810.942 370.443 807.013 382.79C804.073 392.022 817.464 387.448 824.412 384.552C824.713 384.428 825.044 384.398 825.362 384.465C825.68 384.533 825.97 384.695 826.194 384.931C826.418 385.167 826.566 385.465 826.617 385.786C826.669 386.107 826.622 386.436 826.483 386.73L821.825 396.569C821.526 397.2 821.419 397.905 821.518 398.596C821.616 399.288 821.916 399.935 822.379 400.458C822.843 400.98 823.449 401.355 824.124 401.536C824.799 401.717 825.512 401.695 826.174 401.474L831.736 399.622C832.03 399.523 832.346 399.511 832.646 399.588C832.946 399.664 833.218 399.825 833.428 400.052C833.639 400.279 833.78 400.562 833.834 400.867C833.889 401.172 833.854 401.486 833.734 401.771L831.719 411.413L841.261 430.496C852.69 393.852 855.759 355.111 850.24 317.125H850.229Z"
        fill="#F3D2C9" />
  <path d="M841.428 432.741L830.821 411.526L832.948 401.424C833.005 401.286 833.022 401.136 832.995 400.989C832.969 400.843 832.901 400.707 832.8 400.599C832.699 400.49 832.569 400.412 832.425 400.375C832.281 400.339 832.129 400.344 831.988 400.391L826.426 402.249C825.607 402.524 824.725 402.551 823.89 402.328C823.055 402.105 822.304 401.641 821.731 400.994C821.159 400.347 820.789 399.545 820.669 398.69C820.548 397.834 820.683 396.962 821.055 396.182L825.713 386.343C825.782 386.202 825.805 386.043 825.78 385.889C825.754 385.734 825.682 385.591 825.573 385.479C825.467 385.365 825.328 385.286 825.175 385.254C825.022 385.222 824.863 385.238 824.72 385.299C815.297 389.228 809.297 390.115 806.895 387.915C805.66 386.792 805.43 384.962 806.21 382.51C810.139 370.162 847.944 318.781 849.55 316.597L850.767 314.947L851.059 316.973C856.61 355.084 853.541 393.953 842.079 430.721L841.428 432.741ZM832.594 411.302L841.064 428.24C851.745 392.967 854.685 355.805 849.684 319.291C843.017 328.417 811.267 372.188 807.815 383.043C807.254 384.822 807.322 386.051 808.029 386.702C809.802 388.324 815.796 387.23 824.075 383.773C824.533 383.583 825.038 383.538 825.523 383.641C826.009 383.744 826.451 383.992 826.793 384.351C827.135 384.711 827.36 385.165 827.439 385.655C827.517 386.144 827.446 386.647 827.234 387.095L822.576 396.928C822.348 397.41 822.266 397.948 822.341 398.476C822.416 399.004 822.644 399.498 822.997 399.897C823.351 400.297 823.813 400.583 824.328 400.722C824.843 400.861 825.387 400.845 825.893 400.677L831.455 398.825C831.895 398.678 832.367 398.658 832.817 398.768C833.268 398.878 833.678 399.114 834 399.448C834.322 399.781 834.542 400.199 834.636 400.653C834.73 401.108 834.694 401.579 834.531 402.013L832.594 411.302Z"
        fill="black" />
  <path d="M685.785 369.32C661.169 354.06 635.638 337.835 611.022 322.575C605.931 319.42 597.743 323.484 597.67 329.472C597.518 342.274 595.425 356.468 599.354 376.055C601.469 386.629 602.412 392.096 604.551 399.347C607.422 409.095 611.129 418.578 615.63 427.69C618.525 421.985 621.905 416.54 625.732 411.414C628.959 407.087 640.639 392.096 661.652 379.984C669.296 375.585 677.386 372.011 685.785 369.32V369.32Z"
        fill="#333333" />
  <path d="M615.618 429.57L614.877 428.06C610.358 418.905 606.633 409.38 603.742 399.588C601.941 393.476 600.936 388.515 599.477 381.011C599.185 379.529 598.871 377.941 598.528 376.218C595.492 361.064 596.036 349.093 596.513 338.553C596.659 335.387 596.794 332.379 596.828 329.461C596.861 326.542 598.708 323.691 601.767 322.013C605.022 320.223 608.737 320.166 611.465 321.861C623.773 329.483 636.513 337.486 648.838 345.226C661.163 352.965 673.915 360.974 686.228 368.607L687.777 369.567L686.043 370.128C677.701 372.801 669.665 376.351 662.072 380.719C643.175 391.613 631.614 404.942 626.405 411.924C622.61 417.013 619.256 422.417 616.381 428.077L615.618 429.57ZM606.969 322.327C605.432 322.34 603.923 322.74 602.58 323.489C600.06 324.87 598.54 327.109 598.511 329.483C598.478 332.446 598.337 335.449 598.197 338.626C597.72 349.076 597.181 360.913 600.178 375.892C600.521 377.615 600.835 379.198 601.132 380.685C602.653 388.408 603.574 393.078 605.359 399.111C608.063 408.276 611.505 417.206 615.652 425.815C618.396 420.61 621.541 415.626 625.058 410.908C630.345 403.825 642.07 390.299 661.23 379.254C668.407 375.128 675.974 371.722 683.82 369.084C671.978 361.738 659.771 354.071 647.951 346.635C635.604 338.895 622.892 330.92 610.589 323.27C609.493 322.626 608.24 322.3 606.969 322.327V322.327Z"
        fill="#191818" />
  <path d="M597.669 328.349C597.669 328.349 639.975 365.357 645.212 375.05C645.521 375.611 646.834 378.204 645.863 379.377C644.011 381.622 636.092 375.965 632.466 378.861C632.098 379.16 631.79 379.526 631.557 379.938C631.149 380.704 630.971 381.572 631.046 382.437C631.121 383.301 631.444 384.126 631.978 384.81C633.19 386.421 634.784 389.003 634.632 391.455C634.632 392.184 634.406 392.896 633.987 393.493C632.904 394.817 630.889 394.828 630.333 394.828C626.657 394.828 624.67 391.287 624.581 391.124C624.101 390.737 623.5 390.531 622.884 390.545C622.267 390.558 621.675 390.789 621.213 391.197C620.921 391.505 620.736 391.898 620.686 392.32C620.555 393.291 620.716 394.279 621.146 395.159C622.364 397.623 620.938 405.57 620.107 409.151C618.853 414.494 616.77 419.607 613.934 424.305C608.883 413.271 602.064 395.681 598.78 374.354C596.998 362.707 596.342 350.915 596.821 339.142C597.035 334.747 597.388 331.043 597.669 328.349Z"
        fill="#F3D2C9" />
  <path d="M613.946 425.164H613.901C613.748 425.155 613.599 425.105 613.472 425.018C613.346 424.931 613.246 424.81 613.183 424.67C605.821 408.727 600.695 391.845 597.951 374.5C596.159 362.805 595.499 350.964 595.981 339.142C596.149 335.522 596.43 331.846 596.822 328.276C596.836 328.121 596.892 327.973 596.985 327.849C597.077 327.724 597.202 327.627 597.346 327.569C597.49 327.511 597.648 327.494 597.801 327.519C597.954 327.545 598.097 327.613 598.214 327.715C599.943 329.23 640.695 364.937 645.92 374.652C646.481 375.729 647.727 378.412 646.481 379.916C645.235 381.42 642.962 380.668 640.274 379.877C637.586 379.086 634.594 378.193 632.978 379.518C632.692 379.749 632.454 380.033 632.276 380.354C631.951 380.974 631.812 381.674 631.876 382.371C631.94 383.068 632.203 383.732 632.635 384.283C633.999 386.095 635.593 388.823 635.442 391.478C635.432 392.386 635.14 393.269 634.605 394.003C633.719 395.087 632.271 395.642 630.306 395.648C626.529 395.648 624.374 392.426 623.914 391.657C623.594 391.449 623.216 391.349 622.836 391.371C622.455 391.393 622.091 391.537 621.798 391.781C621.636 391.969 621.536 392.202 621.512 392.449C621.411 393.248 621.545 394.06 621.899 394.784C623.487 397.994 621.192 408.186 620.922 409.337C619.65 414.764 617.534 419.959 614.653 424.731C614.582 424.858 614.48 424.964 614.356 425.04C614.232 425.116 614.091 425.158 613.946 425.164ZM598.338 330.055C598.035 333.092 597.816 336.162 597.676 339.198C597.194 350.915 597.846 362.651 599.623 374.242C602.249 390.903 607.099 407.137 614.041 422.509C616.423 418.279 618.194 413.732 619.3 409.005C620.294 404.723 621.411 397.607 620.423 395.575C619.899 394.535 619.703 393.361 619.862 392.207C619.937 391.6 620.209 391.035 620.636 390.597C621.251 390.049 622.04 389.738 622.863 389.721C623.687 389.703 624.489 389.98 625.126 390.501C625.204 390.563 625.267 390.642 625.311 390.731C625.311 390.765 627.113 393.992 630.312 393.992C631.749 393.992 632.759 393.644 633.315 392.965C633.617 392.506 633.776 391.966 633.769 391.416C633.881 389.266 632.478 386.926 631.283 385.321C630.649 384.506 630.266 383.525 630.181 382.496C630.097 381.467 630.314 380.436 630.806 379.529C631.094 379.023 631.475 378.575 631.928 378.21C634.246 376.358 637.709 377.374 640.762 378.272C642.525 378.788 644.691 379.428 645.207 378.833C645.583 378.378 645.263 376.925 644.461 375.466C639.864 366.918 605.314 336.212 598.338 330.055Z"
        fill="black" />
  <path d="M672.035 457.997C679.009 457.997 684.663 452.343 684.663 445.369C684.663 438.394 679.009 432.741 672.035 432.741C665.06 432.741 659.407 438.394 659.407 445.369C659.407 452.343 665.06 457.997 672.035 457.997Z"
        fill="black" />
  <path d="M672.034 458.838C669.37 458.838 666.766 458.048 664.551 456.568C662.336 455.088 660.609 452.984 659.59 450.523C658.57 448.062 658.304 445.353 658.823 442.741C659.343 440.128 660.626 437.728 662.51 435.844C664.393 433.96 666.794 432.677 669.406 432.157C672.019 431.638 674.728 431.904 677.189 432.924C679.65 433.943 681.754 435.67 683.234 437.885C684.714 440.1 685.504 442.704 685.504 445.368C685.504 448.941 684.085 452.367 681.559 454.893C679.033 457.419 675.607 458.838 672.034 458.838ZM672.034 433.582C669.703 433.582 667.424 434.273 665.486 435.569C663.548 436.864 662.037 438.704 661.145 440.858C660.253 443.012 660.02 445.381 660.475 447.668C660.929 449.954 662.052 452.054 663.7 453.702C665.349 455.351 667.449 456.473 669.735 456.928C672.021 457.383 674.391 457.149 676.545 456.257C678.698 455.365 680.539 453.855 681.834 451.916C683.129 449.978 683.82 447.699 683.82 445.368C683.82 442.242 682.579 439.245 680.368 437.034C678.158 434.824 675.16 433.582 672.034 433.582Z"
        fill="#191818" />
  <path d="M785.405 463.048C795.169 463.048 803.085 455.132 803.085 445.369C803.085 435.605 795.169 427.689 785.405 427.689C775.641 427.689 767.726 435.605 767.726 445.369C767.726 455.132 775.641 463.048 785.405 463.048Z"
        fill="#EFD8AB" />
  <path d="M785.405 463.889C781.742 463.889 778.161 462.803 775.115 460.768C772.07 458.733 769.696 455.84 768.294 452.456C766.892 449.072 766.525 445.348 767.24 441.755C767.955 438.162 769.719 434.862 772.309 432.272C774.899 429.682 778.199 427.918 781.792 427.203C785.385 426.488 789.109 426.855 792.493 428.257C795.877 429.659 798.77 432.033 800.805 435.079C802.84 438.124 803.926 441.705 803.926 445.368C803.926 450.28 801.975 454.991 798.501 458.465C795.028 461.938 790.317 463.889 785.405 463.889V463.889ZM785.405 428.531C782.075 428.531 778.82 429.518 776.051 431.369C773.282 433.219 771.124 435.848 769.849 438.925C768.575 442.001 768.242 445.387 768.891 448.653C769.541 451.919 771.145 454.919 773.499 457.274C775.854 459.629 778.854 461.232 782.12 461.882C785.387 462.532 788.772 462.198 791.848 460.924C794.925 459.649 797.555 457.491 799.405 454.723C801.255 451.954 802.242 448.698 802.242 445.368C802.242 440.903 800.469 436.62 797.311 433.462C794.153 430.305 789.871 428.531 785.405 428.531Z"
        fill="#191818" />
  <path d="M785.406 457.997C792.38 457.997 798.033 452.343 798.033 445.369C798.033 438.394 792.38 432.741 785.406 432.741C778.431 432.741 772.778 438.394 772.778 445.369C772.778 452.343 778.431 457.997 785.406 457.997Z"
        fill="black" />
  <path d="M785.405 458.838C782.741 458.838 780.137 458.048 777.922 456.568C775.707 455.088 773.98 452.984 772.961 450.523C771.941 448.062 771.674 445.353 772.194 442.741C772.714 440.128 773.997 437.728 775.881 435.844C777.764 433.96 780.164 432.677 782.777 432.157C785.39 431.638 788.099 431.904 790.56 432.924C793.021 433.943 795.125 435.67 796.605 437.885C798.085 440.1 798.875 442.704 798.875 445.368C798.875 448.941 797.456 452.367 794.93 454.893C792.404 457.419 788.978 458.838 785.405 458.838ZM785.405 433.582C783.074 433.582 780.795 434.273 778.857 435.569C776.919 436.864 775.408 438.704 774.516 440.858C773.624 443.012 773.391 445.381 773.846 447.668C774.3 449.954 775.423 452.054 777.071 453.702C778.719 455.351 780.82 456.473 783.106 456.928C785.392 457.383 787.762 457.149 789.916 456.257C792.069 455.365 793.91 453.855 795.205 451.916C796.5 449.978 797.191 447.699 797.191 445.368C797.191 442.242 795.95 439.245 793.739 437.034C791.529 434.824 788.531 433.582 785.405 433.582Z"
        fill="#191818" />
  <path d="M722.692 448.809L728.439 449.578L733.709 448.826C733.937 448.793 734.169 448.826 734.379 448.921C734.588 449.017 734.766 449.17 734.89 449.363C735.015 449.557 735.082 449.782 735.082 450.012C735.083 450.242 735.017 450.467 734.893 450.661L729.792 458.676C729.64 458.903 729.436 459.09 729.197 459.221C728.958 459.351 728.69 459.422 728.417 459.426C728.144 459.431 727.875 459.369 727.631 459.246C727.388 459.123 727.177 458.943 727.019 458.721L721.536 450.678C721.407 450.485 721.336 450.26 721.331 450.028C721.327 449.796 721.39 449.568 721.512 449.371C721.634 449.174 721.81 449.016 722.019 448.916C722.228 448.817 722.462 448.779 722.692 448.809V448.809Z"
        fill="#F3D2C9" />
  <path d="M728.389 460.286C727.978 460.284 727.575 460.181 727.215 459.985C726.855 459.789 726.548 459.507 726.323 459.164L720.84 451.127C720.617 450.801 720.494 450.417 720.485 450.023C720.476 449.628 720.581 449.239 720.788 448.903C720.995 448.567 721.296 448.298 721.652 448.129C722.009 447.96 722.407 447.898 722.799 447.95L728.411 448.702L733.569 447.962C733.955 447.908 734.349 447.966 734.704 448.128C735.059 448.291 735.359 448.552 735.571 448.879C735.783 449.207 735.896 449.589 735.899 449.979C735.901 450.369 735.792 450.752 735.584 451.082L730.482 459.097C730.26 459.447 729.955 459.737 729.593 459.939C729.232 460.142 728.826 460.252 728.411 460.258L728.389 460.286ZM722.524 449.623C722.463 449.622 722.403 449.638 722.351 449.669C722.299 449.699 722.255 449.744 722.226 449.797C722.186 449.854 722.164 449.923 722.164 449.993C722.164 450.063 722.186 450.132 722.226 450.19L727.709 458.227C727.788 458.337 727.891 458.427 728.011 458.49C728.131 458.552 728.265 458.585 728.4 458.586C728.536 458.585 728.67 458.55 728.789 458.483C728.908 458.416 729.007 458.32 729.079 458.204L734.175 450.19C734.216 450.133 734.238 450.066 734.238 449.996C734.238 449.927 734.216 449.859 734.175 449.802C734.139 449.743 734.086 449.696 734.023 449.667C733.96 449.638 733.89 449.628 733.821 449.64L728.439 450.409L722.574 449.628L722.524 449.623Z"
        fill="black" />
  <path d="M720.054 469.031C719.493 469.031 718.881 468.997 718.252 468.936C718.029 468.913 717.824 468.803 717.682 468.63C717.54 468.456 717.472 468.233 717.495 468.01C717.517 467.786 717.627 467.581 717.801 467.439C717.974 467.297 718.197 467.23 718.421 467.252C721.71 467.577 724.123 466.96 725.582 465.411C727.72 463.166 727.187 459.602 727.182 459.563C727.147 459.34 727.203 459.112 727.337 458.93C727.471 458.748 727.671 458.626 727.894 458.592C728.118 458.558 728.345 458.614 728.528 458.747C728.71 458.881 728.831 459.081 728.865 459.305C728.865 459.479 729.528 463.711 726.828 466.567C725.268 468.212 723 469.031 720.054 469.031Z"
        fill="black" />
  <path d="M736.465 469.592C733.518 469.592 731.256 468.773 729.73 467.139C727.03 464.283 727.664 460.051 727.692 459.877C727.727 459.654 727.848 459.453 728.03 459.319C728.212 459.186 728.44 459.13 728.663 459.164C728.887 459.198 729.087 459.32 729.221 459.502C729.354 459.684 729.41 459.912 729.376 460.135C729.376 460.197 728.86 463.755 730.981 465.994C732.446 467.538 734.848 468.15 738.137 467.824C738.36 467.802 738.583 467.869 738.757 468.011C738.931 468.153 739.041 468.358 739.063 468.582C739.085 468.805 739.018 469.028 738.876 469.202C738.734 469.375 738.529 469.485 738.305 469.508C737.643 469.558 737.043 469.592 736.465 469.592Z"
        fill="black" />
  <path d="M845.739 451.262L885.306 439.195Z" fill="#F8F3ED" />
  <path d="M845.739 452.103C845.538 452.102 845.345 452.028 845.194 451.897C845.042 451.766 844.943 451.585 844.913 451.386C844.883 451.188 844.925 450.986 845.031 450.816C845.137 450.646 845.301 450.519 845.492 450.459L885.059 438.392C885.267 438.344 885.485 438.377 885.669 438.483C885.853 438.589 885.991 438.761 886.053 438.965C886.116 439.168 886.099 439.388 886.006 439.579C885.914 439.771 885.752 439.92 885.553 439.997L845.985 452.064C845.906 452.09 845.822 452.104 845.739 452.103V452.103Z"
        fill="black" />
  <path d="M847.142 459.961L884.464 465.854Z" fill="#F8F3ED" />
  <path d="M884.464 466.696H884.335L847.013 460.803C846.789 460.769 846.589 460.647 846.455 460.465C846.322 460.283 846.266 460.055 846.3 459.832C846.334 459.609 846.456 459.408 846.638 459.275C846.82 459.141 847.048 459.085 847.271 459.119L884.594 465.012C884.817 465.029 885.024 465.135 885.17 465.305C885.316 465.475 885.388 465.695 885.371 465.919C885.354 466.142 885.249 466.349 885.079 466.495C884.909 466.641 884.688 466.713 884.464 466.696Z"
        fill="black" />
  <path d="M609.736 459.961L575.781 467.538Z" fill="#F8F3ED" />
  <path d="M575.781 468.38C575.558 468.404 575.334 468.339 575.159 468.199C574.983 468.058 574.871 467.854 574.847 467.63C574.822 467.407 574.887 467.183 575.028 467.008C575.168 466.833 575.373 466.72 575.596 466.696L609.551 459.119C609.762 459.086 609.978 459.134 610.155 459.254C610.332 459.374 610.457 459.556 610.504 459.765C610.551 459.973 610.517 460.192 610.409 460.377C610.301 460.561 610.127 460.697 609.921 460.758L575.966 468.335C575.907 468.358 575.845 468.373 575.781 468.38V468.38Z"
        fill="black" />
  <path d="M611.139 450.7L573.816 444.807Z" fill="#F8F3ED" />
  <path d="M611.139 451.542H611.01L573.687 445.649C573.577 445.632 573.471 445.594 573.375 445.536C573.279 445.478 573.196 445.401 573.13 445.311C573.064 445.221 573.016 445.119 572.989 445.01C572.962 444.902 572.957 444.789 572.974 444.678C572.991 444.568 573.03 444.461 573.088 444.366C573.146 444.27 573.222 444.187 573.312 444.121C573.402 444.054 573.505 444.007 573.613 443.98C573.722 443.953 573.835 443.948 573.945 443.965L611.268 449.858C611.491 449.876 611.699 449.981 611.844 450.151C611.99 450.321 612.063 450.542 612.045 450.765C612.028 450.988 611.923 451.195 611.753 451.341C611.583 451.487 611.362 451.559 611.139 451.542V451.542Z"
        fill="black" />
  <path d="M190.93 115.919C215.945 127.351 244.417 153.023 278.322 185.783C330.399 236.104 362.957 317.355 373.172 347.982C369.933 349.486 356.205 324.028 352.967 325.532C342.152 295.932 320.825 247.603 274.954 200.375C237.463 161.773 204.799 133.211 178.42 120.678L190.93 115.919Z"
        fill="#479F76" />
  <path d="M372.852 348.907C370.854 348.907 368.037 345.237 362.385 337.256C359.298 332.9 354.64 326.323 353.282 326.323L352.451 326.704L352.187 325.829C334.564 277.562 309.106 236.748 274.36 200.969C232.827 158.185 202.206 132.918 178.073 121.446L176.288 120.605L190.97 114.992L191.295 115.138C215.255 126.093 242.588 150.059 278.917 185.164C301.557 207.053 322.845 236.883 342.203 273.869C359.983 307.897 370.343 336.852 373.969 347.712L374.21 348.424L373.526 348.739C373.317 348.845 373.086 348.902 372.852 348.907V348.907ZM353.534 324.645C355.521 324.936 358.333 328.624 363.754 336.279C366.28 339.854 369.855 344.905 371.814 346.589C366.201 330.167 333.733 240.514 277.738 186.377C241.695 151.568 214.57 127.76 190.903 116.839L180.542 120.767C204.586 132.694 234.854 157.877 275.561 199.785C310.33 235.598 335.849 276.434 353.534 324.645Z"
        fill="black" />
  <path d="M329.985 366.323C288.071 330.965 229.376 288.035 209.8 280.515C159.412 261.152 114.681 252.705 85.7149 252.419C88.828 249.224 91.9466 246.032 95.0709 242.844C122.572 242.721 162.201 250.359 206.758 265.855C224.628 272.079 293.033 316.636 342.018 361.631L329.985 366.323Z"
        fill="#479F76" />
  <path d="M329.827 367.288L329.439 366.968C288.732 332.603 229.459 288.956 209.496 281.3C164.67 264.087 118.367 253.58 85.7026 253.26H83.7326L94.7105 242.036H95.7095C124.333 242.036 164.855 250.421 207.004 265.097C224.588 271.22 292.313 314.902 342.55 361.07L343.543 361.985L329.827 367.288ZM87.6837 251.605C120.404 252.301 165.955 262.768 210.13 279.729C230.189 287.435 289.372 330.959 330.175 365.358L340.445 361.339C291.286 316.44 223.392 272.539 206.477 266.652C164.507 252.059 124.198 243.686 95.7376 243.686H95.4514L87.6837 251.605Z"
        fill="black" />
  <path d="M373.756 349.003C363.788 335.589 340.328 294.484 326.656 281.221C299.353 254.791 267.753 233.197 233.209 217.363L220.688 222.1C258.995 240.367 293.734 265.329 323.266 295.808C333.2 306.073 353.82 343.946 361.667 354.177L373.756 349.003Z"
        fill="#479F76" />
  <path d="M361.397 355.221L360.999 354.705C357.85 350.591 352.816 342.318 346.968 332.744C338.336 318.572 328.559 302.509 322.643 296.397C293.2 265.972 258.542 241.071 220.312 222.875L218.55 221.993L233.237 216.437L233.563 216.583C268.206 232.444 299.888 254.101 327.246 280.621C336.298 289.399 349.662 310.367 360.398 327.204C366.106 336.184 371.062 343.901 374.429 348.475L375.069 349.328L361.397 355.221ZM222.826 222.207C260.535 240.416 294.735 265.138 323.85 295.236C329.895 301.482 339.728 317.629 348.399 331.879C353.736 340.64 358.788 348.935 361.925 353.167L372.426 348.677C369.03 343.985 364.338 336.616 358.956 328.164C348.264 311.383 334.963 290.499 326.05 281.856C298.92 255.551 267.514 234.052 233.176 218.278L222.826 222.207Z"
        fill="black" />
  <path d="M741.909 656.676L760.991 699.331C751.467 700.412 741.842 700.223 732.367 698.77C732.367 698.77 715.985 696.867 705.097 688.667C697.531 682.987 697.172 678.986 697.076 677.79C696.639 672.324 700.242 668.457 701.639 667.127L702.06 666.745C707.111 662.334 716.091 661.733 716.653 661.694C722.4 661.34 730.341 659.853 741.909 656.676Z"
        fill="#333333" />
  <path d="M748.717 700.863C743.2 700.866 737.691 700.444 732.238 699.601C731.593 699.528 715.536 697.586 704.592 689.369C699.344 685.44 696.532 681.568 696.24 677.886C695.797 672.397 699.046 668.429 701.061 666.549L701.505 666.145C706.489 661.778 714.975 660.998 716.591 660.886C722.664 660.476 730.869 658.832 741.684 655.835L742.38 655.644L762.231 699.982L761.109 700.111C756.995 700.592 752.858 700.843 748.717 700.863V700.863ZM741.42 657.681C730.835 660.555 722.742 662.171 716.692 662.57C715.738 662.632 707.269 663.316 702.599 667.413C702.425 667.565 702.268 667.711 702.218 667.761C700.433 669.445 697.514 672.964 697.902 677.751C698.154 680.928 700.741 684.385 705.585 688.022C716.159 695.958 732.283 697.917 732.446 697.934C741.476 699.319 750.646 699.549 759.734 698.618L741.42 657.681Z"
        fill="#191818" />
  <path d="M570.045 610.503L587.006 560.143C575.485 559.974 564.043 562.071 553.331 566.317C545.62 569.536 538.432 573.887 532.004 579.225C531.443 579.702 523.585 586.454 523.305 592.959C523.305 593.312 523.305 593.643 523.305 593.666C523.434 599.149 527.419 602.646 528.951 603.768L529.411 604.105C534.109 607.428 539.839 607.057 548.286 607.265C553.051 607.383 555.43 607.444 558.388 607.826C562.349 608.35 566.252 609.246 570.045 610.503V610.503Z"
        fill="#333333" />
  <path d="M570.045 611.351C569.955 611.349 569.866 611.334 569.781 611.306C566.038 610.069 562.185 609.191 558.276 608.685C555.357 608.303 552.983 608.247 548.257 608.123C547.197 608.123 546.175 608.079 545.193 608.062C538.25 607.949 533.233 607.865 528.917 604.812L528.434 604.453C526.262 602.769 522.592 599.188 522.457 593.683C522.457 593.683 522.457 593.307 522.457 592.914C522.76 586.1 530.567 579.326 531.437 578.574C537.961 573.187 545.244 568.792 553.05 565.531C563.864 561.253 575.411 559.136 587.039 559.301C587.173 559.302 587.305 559.335 587.424 559.398C587.542 559.46 587.644 559.55 587.721 559.66C587.798 559.77 587.847 559.896 587.866 560.029C587.884 560.162 587.87 560.297 587.825 560.423L570.864 610.784C570.806 610.953 570.695 611.1 570.547 611.201C570.4 611.303 570.224 611.356 570.045 611.351V611.351ZM585.76 560.973C574.759 560.973 563.858 563.05 553.629 567.097C546.008 570.294 538.901 574.598 532.537 579.871C532.206 580.151 524.405 586.791 524.118 592.992C524.118 593.301 524.118 593.593 524.118 593.632C524.236 598.448 527.486 601.647 529.433 603.123L529.865 603.443C533.76 606.193 538.559 606.249 545.199 606.384C546.186 606.384 547.208 606.417 548.28 606.445C553.062 606.563 555.464 606.625 558.466 607.007C562.205 607.494 565.893 608.309 569.489 609.442L585.816 560.968L585.76 560.973Z"
        fill="#191818" />
  <path d="M75.6007 82.5186L59.8579 73.9316C55.9326 71.7904 52.7293 68.5349 50.6518 64.5756C48.5742 60.6163 47.7156 56.1305 48.184 51.6839L49.5029 39.2186C50.0306 34.2223 51.6374 29.4002 54.2121 25.086C56.7869 20.7718 60.2682 17.0684 64.4152 14.2321V14.2321C66.82 12.5882 69.6158 11.6074 72.5207 11.3887C75.4255 11.1699 78.3367 11.7209 80.9606 12.9861C82.4748 13.6909 84.0261 14.313 85.6077 14.8495C103.891 21.3114 120.522 31.7311 134.312 45.3643L109.915 89.6071L75.6007 82.5186Z"
        fill="#D15959" />
  <path d="M110.348 90.556L75.3093 83.316L75.197 83.2543L59.4541 74.6729C55.3814 72.4547 52.0589 69.0772 49.9077 64.9687C47.7565 60.8601 46.8735 56.2055 47.3706 51.5945L48.6895 39.1293C49.2267 34.0112 50.8709 29.0711 53.5079 24.6518C56.1449 20.2326 59.7117 16.4398 63.9609 13.5366C66.4911 11.8109 69.431 10.7816 72.485 10.552C75.5391 10.3225 78.5997 10.9008 81.3595 12.2289C82.847 12.9191 84.3701 13.5299 85.9224 14.0586C104.322 20.556 121.056 31.0437 134.925 44.7698L135.379 45.2132L110.348 90.556ZM75.893 81.7164L109.478 88.659L133.269 45.5163C119.658 32.1827 103.295 21.988 85.3275 15.6469C83.7177 15.1078 82.1383 14.4821 80.5962 13.7723C78.1037 12.5714 75.3388 12.0486 72.5799 12.2565C69.8211 12.4644 67.1657 13.3957 64.8814 14.9566C60.8321 17.7213 57.433 21.3341 54.92 25.5441C52.4069 29.7542 50.8401 34.4607 50.3283 39.337L49.0094 51.8022C48.549 56.0831 49.37 60.4044 51.3683 64.2182C53.3667 68.0321 56.4524 71.1667 60.2343 73.2248L75.893 81.7164Z"
        fill="black" />
  <path d="M90.4349 67.652L90.0476 67.6801C85.1143 68.0396 80.4286 69.9817 76.6873 73.2174C72.946 76.4531 70.3487 80.8099 69.2816 85.6399L67.7775 92.4421C66.2199 99.4875 67.2479 106.858 70.6739 113.208C74.0999 119.558 79.6954 124.465 86.4388 127.032L132.736 144.655L139.864 94.0305L107.873 72.3159C102.752 68.84 96.6071 67.1964 90.4349 67.652V67.652Z"
        fill="#D15959" />
  <path d="M133.426 145.817L86.1417 127.823C79.2087 125.184 73.4558 120.14 69.933 113.612C66.4102 107.084 65.3524 99.5062 66.9528 92.2627L68.4569 85.466C69.5431 80.4484 72.2299 75.9194 76.1128 72.5608C79.9956 69.2023 84.8644 67.196 89.9862 66.844L90.3735 66.8159C96.7297 66.3638 103.054 68.0575 108.333 71.6257L140.762 93.6377L133.426 145.817ZM90.4969 68.494L90.1097 68.5221C85.3492 68.8486 80.8238 70.7133 77.215 73.8351C73.6063 76.957 71.1097 81.1669 70.1014 85.8308L68.5972 92.6275C67.1185 99.4734 68.1335 106.622 71.4593 112.786C74.7851 118.95 80.2029 123.723 86.7366 126.246L132.051 143.493L138.955 94.4459L107.424 73.0232C102.457 69.6639 96.5063 68.069 90.525 68.494H90.4969Z"
        fill="black" />
  <path d="M172.528 36.682L154.495 12.7787C151.053 8.21064 146.382 4.71697 141.028 2.7063C135.674 0.695634 129.858 0.251106 124.261 1.42472L118.351 2.66507C115.492 3.26042 112.825 4.55308 110.586 6.42808C108.347 8.30308 106.607 10.7023 105.519 13.4123C104.432 16.1223 104.031 19.0591 104.352 21.9614C104.674 24.8638 105.707 27.6417 107.362 30.0481L122.515 51.5437L170.002 68.7234L172.528 36.682Z"
        fill="#D15959" />
  <path d="M170.754 69.8968L121.982 52.2513L106.671 30.5368C104.945 28.0166 103.867 25.1091 103.533 22.0723C103.2 19.0356 103.621 15.9635 104.76 13.1287C105.899 10.2938 107.72 7.78389 110.061 5.82159C112.402 3.85928 115.192 2.50528 118.182 1.87973L124.098 0.644994C129.84 -0.543933 135.802 -0.0827461 141.294 1.9752C146.785 4.03314 151.582 7.60375 155.129 12.274L173.353 36.4074L173.325 36.7273L170.754 69.8968ZM123.048 50.8482L169.244 67.562L171.635 36.9631L153.799 13.3123C150.444 8.89075 145.906 5.50919 140.709 3.55858C135.513 1.60796 129.87 1.16795 124.435 2.28943L118.519 3.52978C115.801 4.0985 113.266 5.32906 111.137 7.11235C109.009 8.89564 107.353 11.1766 106.317 13.7529C105.281 16.3292 104.897 19.1213 105.199 21.8816C105.5 24.642 106.479 27.2852 108.046 29.5771L123.048 50.8482Z"
        fill="black" />
  <path d="M133.504 113.847C153.692 113.847 170.058 97.4816 170.058 77.2935C170.058 57.1054 153.692 40.7397 133.504 40.7397C113.316 40.7397 96.9506 57.1054 96.9506 77.2935C96.9506 97.4816 113.316 113.847 133.504 113.847Z"
        fill="#EFD8AB" />
  <path d="M133.487 114.673C127.404 114.671 121.413 113.184 116.034 110.342C110.655 107.5 106.051 103.389 102.621 98.3649C99.191 93.3408 97.0386 87.5556 96.3507 81.5112C95.6627 75.4669 96.4599 69.3459 98.6732 63.6795C100.886 58.013 104.449 52.9722 109.051 48.9942C113.654 45.0163 119.158 42.2215 125.085 40.8522C131.012 39.4829 137.184 39.5806 143.065 41.1367C148.946 42.6928 154.358 45.6603 158.833 49.7819V49.7819C164.372 54.8802 168.243 61.532 169.939 68.8668C171.635 76.2015 171.077 83.8774 168.338 90.8897C165.599 97.902 160.806 103.924 154.588 108.168C148.37 112.411 141.015 114.678 133.487 114.673V114.673ZM133.515 41.5989C125.194 41.6021 117.135 44.5127 110.731 49.8276C104.328 55.1424 99.9828 62.5275 98.447 70.7062C96.9112 78.8848 98.2811 87.3431 102.32 94.6189C106.359 101.895 112.813 107.531 120.567 110.552C128.32 113.574 136.886 113.792 144.783 111.168C152.68 108.545 159.413 103.244 163.816 96.1833C168.22 89.1223 170.018 80.7446 168.9 72.4984C167.782 64.2522 163.818 56.6558 157.694 51.0222V51.0222C151.107 44.95 142.473 41.585 133.515 41.5989Z"
        fill="#191818" />
  <path d="M141.856 36.6713L140.071 50.3825C139.358 55.8322 140.66 61.0012 143.719 64.8738L168.223 95.8993L182.591 133.385C185.558 128.316 188.098 123.009 190.184 117.518C190.184 117.518 195.606 102.264 194.983 85.1852C193.86 53.4862 171.495 28.2695 167.757 24.1556C166.163 22.2294 164.003 20.8547 161.583 20.2269C156.914 19.1044 153.036 21.5795 151.021 22.8591C144.297 27.1302 142.355 34.4544 141.856 36.6713Z"
        fill="#D15959" />
  <path d="M182.417 135.282L167.477 96.3205L143.057 65.4072C139.847 61.3438 138.494 55.9727 139.235 50.2537L141.037 36.4695C141.845 32.8607 144.163 26.2044 150.578 22.1298C152.587 20.8557 156.752 18.2011 161.803 19.3909C164.399 20.0543 166.716 21.5266 168.42 23.5946C174.566 30.3576 194.754 54.839 195.848 85.1349C196.465 102.186 191.055 117.625 191.004 117.782C188.891 123.327 186.325 128.688 183.332 133.812L182.417 135.282ZM142.687 36.8175L140.902 50.4894C140.223 55.7258 141.463 60.6479 144.376 64.3521L168.964 95.4786L169.009 95.5965L182.749 131.438C185.3 126.861 187.523 122.108 189.399 117.216C189.45 117.081 194.748 101.927 194.142 85.2247C193.064 55.4788 173.196 31.4071 167.135 24.7339C165.655 22.9349 163.643 21.6517 161.388 21.069C157.066 20.0363 153.424 22.3486 151.47 23.589C145.589 27.2988 143.445 33.4556 142.687 36.8175Z"
        fill="black" />
  <path d="M132.118 144.727L104.392 131.914C98.7144 129.281 94.2975 124.524 92.093 118.666C89.8885 112.809 90.0728 106.32 92.6063 100.596L98.3703 87.5869C101.59 80.3227 107.441 74.5476 114.747 71.4237C122.053 68.2998 130.271 68.0589 137.747 70.7496L170.961 82.7321C177.591 85.1298 183.191 89.7397 186.819 95.7847C190.446 101.83 191.878 108.94 190.874 115.918V115.918C189.372 123.06 185.978 129.666 181.047 135.046C168.284 148.712 150.117 147.954 146.884 147.797C141.829 147.573 136.843 146.537 132.118 144.727V144.727Z"
        fill="#D15959" />
  <path d="M148.956 148.695C148.182 148.695 147.48 148.695 146.868 148.655C141.716 148.426 136.635 147.364 131.821 145.513H131.765L104.057 132.677C98.1941 129.933 93.6355 125.007 91.353 118.95C89.0704 112.893 89.2446 106.184 91.8383 100.254L97.5967 87.2442C100.921 79.7996 106.932 73.884 114.429 70.6802C121.926 67.4764 130.357 67.2204 138.034 69.9635L171.249 81.9461C178.053 84.4251 183.799 89.1652 187.527 95.3735C191.255 101.582 192.738 108.882 191.728 116.053V116.115C190.195 123.407 186.727 130.151 181.688 135.64C171.002 147.05 156.449 148.695 148.956 148.695ZM132.427 143.98C137.067 145.757 141.961 146.777 146.924 147C153.238 147.269 169.15 146.596 180.431 134.518C185.255 129.257 188.575 122.796 190.045 115.812C190.995 109.029 189.589 102.126 186.06 96.2558C182.532 90.3859 177.095 85.9051 170.659 83.5625L137.445 71.5743C130.169 68.9744 122.18 69.2168 115.075 72.2532C107.97 75.2895 102.273 80.896 99.1233 87.9514L93.3593 100.967C90.9438 106.492 90.7825 112.743 92.9098 118.386C95.0371 124.029 99.2848 128.617 104.747 131.173L132.427 143.98Z"
        fill="black" />
  <path d="M35.2923 191.378L32.9912 183.436C31.5417 178.431 31.8845 173.078 33.9603 168.299C36.0362 163.52 39.715 159.616 44.362 157.26V157.26C48.5227 155.154 53.1875 154.249 57.8336 154.646C62.4797 155.042 66.9236 156.725 70.6675 159.505C77.7335 161.873 109.702 173.435 126.124 206.924C131.818 218.628 134.928 231.42 135.244 244.432C135.259 245.262 135.05 246.082 134.639 246.804C134.229 247.526 133.632 248.125 132.911 248.537C132.19 248.949 131.371 249.161 130.54 249.148C129.71 249.136 128.898 248.901 128.189 248.467L35.2923 191.378Z"
        fill="#D15959" />
  <path d="M130.609 250.011C129.593 250.008 128.598 249.722 127.735 249.186L34.5685 191.939L32.1776 183.684C30.6775 178.492 31.0336 172.939 33.1847 167.981C35.3358 163.024 39.1473 158.971 43.9637 156.519C48.2375 154.335 53.0355 153.386 57.819 153.777C62.6025 154.169 67.1821 155.886 71.0437 158.736C82.8298 162.699 111.509 175.226 126.859 206.543C132.629 218.348 135.771 231.263 136.069 244.399C136.105 245.383 135.869 246.358 135.388 247.217C134.907 248.076 134.199 248.786 133.342 249.27C132.511 249.752 131.569 250.008 130.609 250.011V250.011ZM36.0109 190.834L128.616 247.749C129.197 248.109 129.863 248.306 130.546 248.318C131.229 248.33 131.902 248.158 132.496 247.82C133.089 247.481 133.579 246.989 133.916 246.395C134.253 245.801 134.423 245.127 134.408 244.444C134.116 231.547 131.037 218.867 125.383 207.273C110.23 176.415 81.887 164.13 70.3815 160.257L70.2524 160.212L70.1457 160.134C66.5316 157.445 62.237 155.821 57.7478 155.446C53.2585 155.071 48.754 155.96 44.7439 158.012C40.2744 160.282 36.7361 164.039 34.7385 168.637C32.7409 173.235 32.4089 178.385 33.7996 183.201L36.0109 190.834Z"
        fill="black" />
  <path d="M9.13825 269.279L18.7467 276.435C21.6126 278.562 24.7029 280.369 27.9623 281.823C31.8721 283.546 35.8897 285.014 39.9898 286.217C48.8631 288.821 70.7515 295.231 95.0927 286.273C113.76 279.404 125.361 266.63 131.411 258.29C131.828 257.733 132.089 257.075 132.169 256.384C132.248 255.693 132.143 254.993 131.863 254.356C131.583 253.719 131.139 253.167 130.577 252.758C130.014 252.349 129.353 252.096 128.661 252.026L22.9785 240.044C19.2428 239.62 15.4669 240.348 12.1566 242.131C8.84642 243.913 6.16003 246.665 4.45747 250.017C2.84182 253.264 2.42547 256.978 3.28193 260.502C4.13838 264.027 6.21257 267.135 9.13825 269.279V269.279Z"
        fill="#D15959" />
  <path d="M68.7824 291.728C55.8738 291.728 45.4739 288.675 39.7661 287.002C35.6302 285.792 31.5786 284.311 27.6376 282.568C24.3194 281.091 21.1742 279.252 18.2592 277.085L8.64513 269.952C5.55162 267.696 3.35895 264.416 2.45757 260.696C1.55619 256.975 2.00463 253.055 3.72302 249.635C5.5131 246.139 8.32344 243.269 11.7815 241.407C15.2395 239.545 19.1819 238.777 23.0859 239.207L128.751 251.178C129.588 251.268 130.386 251.576 131.066 252.072C131.746 252.568 132.283 253.234 132.625 254.004C132.966 254.773 133.099 255.619 133.01 256.455C132.921 257.292 132.614 258.091 132.119 258.772C125.451 267.965 113.671 280.329 95.4078 287.053C86.8794 290.175 77.8643 291.758 68.7824 291.728V291.728ZM9.63853 268.576L19.2639 275.71C22.0757 277.805 25.112 279.58 28.3167 281.002C32.1894 282.732 36.1716 284.206 40.2375 285.414C49.3633 288.091 70.7355 294.349 94.8185 285.487C112.677 278.915 124.211 266.803 130.738 257.801C131.062 257.359 131.264 256.839 131.322 256.293C131.38 255.748 131.293 255.197 131.069 254.697C130.853 254.198 130.507 253.765 130.068 253.443C129.63 253.122 129.113 252.923 128.572 252.867L22.8839 240.879C19.3186 240.489 15.7191 241.193 12.5633 242.897C9.40756 244.601 6.84497 247.225 5.21593 250.42C3.68995 253.481 3.29688 256.984 4.10639 260.307C4.91589 263.631 6.8757 266.56 9.63853 268.576V268.576Z"
        fill="black" />
  <path d="M1.42671 212.453C2.62656 217.481 4.89872 222.19 8.08764 226.259C11.2765 230.327 15.3069 233.659 19.9028 236.025L52.1294 252.61C54.2902 253.457 57.45 254.636 61.317 255.876C69.5501 258.552 78.0007 260.505 86.5729 261.713C101.878 263.531 118.766 258.705 128.352 255.309C129.277 254.981 130.127 254.474 130.856 253.817C131.584 253.159 132.175 252.365 132.596 251.478C133.017 250.592 133.258 249.632 133.307 248.652C133.356 247.672 133.211 246.692 132.881 245.768C127.145 229.891 118.693 220.748 113.928 216.325C105.128 208.159 94.4472 202.71 85.9107 198.366C80.5064 195.606 74.9633 193.128 69.3035 190.94L41.8587 183.358C32.7805 180.866 23.0863 182.043 14.8685 186.636L12.1128 188.173C7.93451 190.509 4.6311 194.142 2.70287 198.523C0.774643 202.904 0.326637 207.794 1.42671 212.453V212.453Z"
        fill="#D15959" />
  <path d="M93.6676 262.964C91.2727 262.971 88.8795 262.836 86.5005 262.56C81.281 261.937 71.4816 260.029 61.0594 256.69C57.9501 255.691 54.8408 254.585 51.8213 253.406L51.7427 253.373L19.5161 236.782C14.8103 234.362 10.6841 230.952 7.42118 226.786C4.15821 222.62 1.83578 217.797 0.613437 212.649V212.649C-0.530095 207.806 -0.0664906 202.722 1.93422 198.166C3.93493 193.61 7.36406 189.828 11.7036 187.393L14.4593 185.855C22.8747 181.134 32.8176 179.94 42.1118 182.533L69.6127 190.137C75.2997 192.338 80.8707 194.828 86.3041 197.596C94.9136 201.991 105.622 207.452 114.507 215.696C122.925 223.487 129.357 233.505 133.679 245.47C134.048 246.5 134.21 247.591 134.155 248.683C134.101 249.775 133.832 250.846 133.362 251.833C132.893 252.82 132.233 253.705 131.42 254.436C130.608 255.168 129.659 255.731 128.627 256.095C119.378 259.406 106.391 262.964 93.6676 262.964ZM52.4723 251.852C55.4469 253.019 58.5113 254.097 61.5757 255.085C71.8801 258.39 81.5503 260.276 86.7026 260.888C101.228 262.611 117.229 258.379 128.1 254.523C128.921 254.234 129.677 253.784 130.324 253.202C130.97 252.619 131.496 251.914 131.869 251.127C132.243 250.341 132.457 249.488 132.5 248.618C132.542 247.749 132.413 246.879 132.118 246.06C127.887 234.341 121.584 224.553 113.384 216.942C104.674 208.861 94.0773 203.473 85.5632 199.112C80.1938 196.375 74.6884 193.913 69.0683 191.737L41.6628 184.166C32.7962 181.698 23.3134 182.838 15.2843 187.337L12.5342 188.875C8.51343 191.131 5.33573 194.634 3.48091 198.855C1.62609 203.076 1.19484 207.785 2.25227 212.273V212.273C3.42248 217.182 5.64036 221.78 8.75386 225.752C11.8674 229.724 15.8029 232.975 20.2906 235.284L52.4723 251.852Z"
        fill="black" />
  <path d="M206.646 168.609C205.811 168.594 204.983 168.763 204.221 169.104C203.459 169.445 202.782 169.951 202.238 170.583C201.693 171.216 201.295 171.961 201.071 172.766C200.848 173.57 200.804 174.414 200.944 175.237C203.189 188.527 208.902 217.847 216.849 225.255C227.215 234.92 243.873 290.567 290.204 278.831C322.015 270.772 312.238 237.569 302.978 217.532C297.849 206.396 289.705 196.918 279.467 190.172C269.297 183.532 258.235 178.373 246.612 174.85C233.644 170.924 220.193 168.824 206.646 168.609V168.609Z"
        fill="#D15959" />
  <path d="M277.866 281.283C249.686 281.283 234.241 254.849 224.548 238.236C221.344 232.747 218.577 228.004 216.287 225.888C208.379 218.519 202.767 191.091 200.123 175.377C199.962 174.431 200.011 173.462 200.268 172.538C200.524 171.613 200.982 170.757 201.607 170.03C202.233 169.303 203.011 168.724 203.887 168.332C204.763 167.941 205.714 167.747 206.673 167.766V167.766C220.304 167.979 233.84 170.094 246.886 174.052C258.578 177.599 269.706 182.79 279.937 189.469C290.311 196.296 298.561 205.896 303.751 217.178C310.301 231.344 316.71 251.161 310.059 265.108C306.619 272.326 300.013 277.22 290.416 279.644C286.317 280.711 282.102 281.262 277.866 281.283V281.283ZM206.538 169.444C205.834 169.446 205.14 169.601 204.502 169.898C203.864 170.195 203.299 170.628 202.846 171.166C202.392 171.704 202.061 172.334 201.876 173.013C201.691 173.691 201.656 174.402 201.773 175.096C203.872 187.561 209.597 217.346 217.421 224.637C219.89 226.938 222.584 231.551 225.996 237.388C236.812 255.909 254.917 286.901 289.978 278.017C299.053 275.716 305.289 271.13 308.499 264.384C314.869 251.027 308.578 231.725 302.185 217.885C297.127 206.888 289.084 197.531 278.972 190.878C268.874 184.286 257.891 179.161 246.353 175.657C233.455 171.748 220.075 169.657 206.6 169.444H206.538Z"
        fill="black" />
  <path d="M392.889 340.978C394.5 340.136 377.662 176.814 330.518 113.955C283.373 51.0954 272.149 40.993 272.149 40.993C272.149 40.993 271.026 88.6987 291.231 122.373C311.436 156.048 335.008 212.172 341.743 224.52C348.478 236.867 373.172 349.677 373.172 349.677L392.889 340.978Z"
        fill="#479F76" />
  <path d="M372.571 350.861L372.352 349.856C372.1 348.734 347.601 237.047 341.001 224.924C338.824 220.933 334.906 212.408 329.945 201.615C319.691 179.317 304.201 145.626 290.506 122.805C270.408 89.3104 271.306 41.4532 271.306 40.9705L271.351 39.1409L272.709 40.37C273.169 40.7797 284.535 51.2413 331.191 113.45C355.622 146.002 371.449 204.932 380.417 248.631C390.385 297.173 394.353 338.43 393.769 341.062C393.744 341.204 393.688 341.338 393.604 341.455C393.521 341.573 393.412 341.67 393.287 341.741H393.231L372.571 350.861ZM272.99 43.0303C273.068 52.4536 274.455 92.7621 291.96 121.941C305.693 144.834 321.212 178.582 331.477 200.908C336.427 211.673 340.339 220.176 342.489 224.116C348.937 235.947 371.157 336.561 373.778 348.493L392.159 340.416C392.428 335.859 388.191 294.855 378.756 248.934C369.815 205.437 354.061 146.787 329.844 114.493C291.993 63.9927 277.222 47.4754 272.99 43.0303Z"
        fill="black" />
</svg>
