<svg width="100" height="100" viewBox="0 0 100 100" fill="none" xmlns="http://www.w3.org/2000/svg">
  <g clip-path="url(#clip0_1166_970)">
    <circle cx="50" cy="50" r="50" fill="url(#paint0_linear_1166_970)" />
    <path d="M40.2863 39.6961L34.6706 45.3118L6.07449 73.9059C3.2686 68.7608 1.33919 63.0686 0.490173 57.0294L29.0549 28.4647C32.1568 25.3647 37.1843 25.3647 40.2843 28.4667H40.2863C40.3098 28.4902 40.3333 28.5137 40.3568 28.5392C43.3863 31.6431 43.3627 36.6177 40.2863 39.6961Z"
          fill="#A7C5FD" />
    <path d="M99.6451 44.0118L72.1235 71.5333C69.0216 74.6353 63.9941 74.6353 60.8921 71.5333L29.0549 39.6961C27.5039 38.1451 26.7294 36.1137 26.7294 34.0804C26.7294 32.0471 27.5039 30.0157 29.0549 28.4647C32.1568 25.3647 37.1843 25.3647 40.2843 28.4667L40.3569 28.5392L63.9745 52.1549C65.3725 53.5549 67.6431 53.5549 69.0412 52.1549L94.3353 26.8608C97.0745 32.1 98.9137 37.8863 99.6451 44.0118Z"
          fill="#EBEFF0" />
  </g>
  <defs>
    <linearGradient id="paint0_linear_1166_970" x1="0" y1="0" x2="100" y2="100" gradientUnits="userSpaceOnUse">
      <stop stop-color="#3C91E6" />
      <stop offset="1" stop-color="#26639F" />
    </linearGradient>
    <clipPath id="clip0_1166_970">
      <rect width="100" height="100" fill="white" />
    </clipPath>
  </defs>
</svg>
