<svg width="1600" height="1200" viewBox="0 0 1600 1200" fill="none" xmlns="http://www.w3.org/2000/svg">
  <g opacity="0.03" clip-path="url(#clip0_10:2)">
    <path d="M162.944 394.698C257.477 471.249 385.843 453.928 459.005 363.58C532.167 273.233 520.362 123.906 427.888 67.5192C335.414 11.1322 199.217 -10.3308 131.827 98.6365C64.4363 207.604 68.4115 318.147 162.944 394.698Z" fill="#EBF8FF" />
    <path d="M453.019 1085.22C483.002 1109.5 523.725 1103.99 546.941 1075.32C570.157 1046.65 566.423 999.279 537.091 981.396C507.76 963.513 464.556 956.714 443.169 991.29C421.783 1025.87 423.036 1060.94 453.019 1085.22Z" fill="#EBF8FF" />
    <path d="M49.4301 113.292C69.1203 129.237 95.8638 125.622 111.11 106.794C126.356 87.9664 123.904 56.8547 104.642 45.1109C85.3794 33.3671 57.0066 28.9019 42.9618 51.6086C28.917 74.3154 29.7398 97.3469 49.4301 113.292Z" fill="#EBF8FF" />
    <path d="M587.076 995.936C575.707 1000.19 571.521 1012.37 575.932 1024.84C580.343 1037.32 594.547 1042.5 604.871 1035.91C615.196 1029.31 620.29 1018.82 616.015 1007C611.741 995.171 598.445 991.681 587.076 995.936Z" fill="#EBF8FF" />
    <path d="M1247.45 205.509C1297.12 245.733 1364.59 236.614 1403.05 189.117C1441.51 141.62 1435.33 63.1335 1386.73 33.5071C1338.14 3.88067 1266.56 -7.3839 1231.13 49.899C1195.7 107.182 1197.78 165.284 1247.45 205.509Z" fill="#1A365D" />
    <path d="M511.43 397.292C531.12 413.237 557.864 409.622 573.11 390.794C588.356 371.966 585.904 340.855 566.642 329.111C547.379 317.367 519.007 312.902 504.962 335.609C490.917 358.315 491.74 381.347 511.43 397.292Z" fill="#1A365D" />
    <path d="M599.468 401.587C608.418 408.835 620.574 407.192 627.505 398.634C634.435 390.076 633.32 375.934 624.564 370.596C615.809 365.258 602.912 363.228 596.528 373.549C590.144 383.871 590.518 394.339 599.468 401.587Z" fill="#1A365D" />
    <path d="M926.311 1259.89C958.854 1286.25 1018.22 1253.28 1054.72 1217.55C1091.23 1181.82 1086.09 1118.05 1040.86 1088.1C995.635 1058.15 943.295 1062.02 911.36 1101.46C879.426 1140.89 893.768 1233.54 926.311 1259.89Z" fill="#1A365D" />
    <path d="M347.762 826.256C419.782 892.212 522.38 877.736 595.688 800.553C668.997 723.37 654.298 602.61 569.282 552.7C484.267 502.791 390.522 504.566 321.356 578.403C252.189 652.24 275.741 760.299 347.762 826.256Z" fill="#90CDF4" />
    <path d="M1420.89 782.958C1448.16 807.925 1486.99 802.446 1514.74 773.229C1542.49 744.012 1536.93 698.3 1504.75 679.407C1472.57 660.514 1437.08 661.186 1410.9 689.136C1384.72 717.086 1393.63 757.991 1420.89 782.958Z" fill="#90CDF4" />
    <path d="M575.174 873.061C584.126 881.259 596.879 879.46 605.991 869.866C615.103 860.273 613.276 845.263 602.709 839.059C592.141 832.855 580.489 833.076 571.892 842.253C563.295 851.431 566.222 864.863 575.174 873.061Z" fill="#90CDF4" />
    <path d="M1490.17 842.061C1499.13 850.259 1511.88 848.46 1520.99 838.866C1530.1 829.273 1528.28 814.263 1517.71 808.059C1507.14 801.855 1495.49 802.076 1486.89 811.253C1478.29 820.431 1481.22 833.863 1490.17 842.061Z" fill="#90CDF4" />
    <path d="M609.087 818.53C613.563 822.63 619.939 821.73 624.495 816.933C629.051 812.136 628.138 804.631 622.854 801.529C617.571 798.428 611.745 798.538 607.446 803.127C603.147 807.716 604.611 814.431 609.087 818.53Z" fill="#90CDF4" />
    <path d="M874.894 559.958C902.157 584.925 940.994 579.446 968.744 550.229C996.494 521.012 990.93 475.3 958.748 456.407C926.566 437.514 891.08 438.185 864.898 466.136C838.716 494.086 847.631 534.991 874.894 559.958Z" fill="#1A365D" />
    <path d="M127.174 496.061C136.126 504.259 148.879 502.46 157.991 492.866C167.103 483.273 165.276 468.263 154.709 462.059C144.141 455.855 132.489 456.076 123.892 465.253C115.295 474.431 118.222 487.863 127.174 496.061Z" fill="#1A365D" />
    <path d="M1383.17 999.061C1392.13 1007.26 1404.88 1005.46 1413.99 995.866C1423.1 986.273 1421.28 971.263 1410.71 965.059C1400.14 958.855 1388.49 959.076 1379.89 968.253C1371.29 977.431 1374.22 990.863 1383.17 999.061Z" fill="#1A365D" />
    <path d="M859.437 592.023C853.28 602.484 857.691 614.584 868.969 621.502C880.248 628.42 894.55 623.513 898.421 611.886C902.292 600.26 899.654 588.909 888.889 582.408C878.125 575.906 865.595 581.563 859.437 592.023Z" fill="#1A365D" />
    <path d="M1541.89 382.958C1569.16 407.925 1607.99 402.445 1635.74 373.229C1663.49 344.012 1657.93 298.3 1625.75 279.407C1593.57 260.514 1558.08 261.185 1531.9 289.136C1505.72 317.086 1514.63 357.991 1541.89 382.958Z" fill="#3182CE" />
    <path d="M-63.1328 1353.31C43.5305 1439.69 213.789 1419.71 322.628 1313.12C431.466 1206.54 416.358 1016.54 281.735 927.436C147.111 838.334 -8.79308 850.023 -104.026 967.625C-199.258 1085.23 -169.796 1266.94 -63.1328 1353.31Z" fill="#3182CE" />
    <path d="M1490.94 370.49C1577.43 440.524 1577.48 555.47 1520.73 653.893C1463.98 752.316 1367.66 842.916 1300.46 925.894C1233.27 1008.87 1109.09 1030.2 1017.06 955.681C925.037 881.161 910.707 747.938 987.275 672.278C1063.84 596.618 1125.63 482.537 1207.54 400.277C1289.45 318.018 1404.46 300.456 1490.94 370.49Z" fill="#3182CE" />
    <path d="M1056.63 348.682C1093.45 382.406 1145.91 375.005 1183.39 335.54C1220.88 296.076 1213.36 234.33 1169.89 208.81C1126.42 183.291 1078.49 184.198 1043.12 221.952C1007.76 259.705 1019.8 314.957 1056.63 348.682Z" fill="#2B6CB0" />
    <path d="M-220.855 1017.32C-119.941 1109.74 23.8144 1089.45 126.531 981.309C229.248 873.163 208.651 703.959 89.5301 634.027C-29.5905 564.096 -160.943 566.582 -257.856 670.039C-354.769 773.496 -321.768 924.905 -220.855 1017.32Z" fill="#2B6CB0" />
    <path d="M1510.15 1402.32C1611.06 1494.74 1754.81 1474.45 1857.53 1366.31C1960.25 1258.16 1939.65 1088.96 1820.53 1019.03C1701.41 949.096 1570.06 951.582 1473.14 1055.04C1376.23 1158.5 1409.23 1309.9 1510.15 1402.32Z" fill="#2B6CB0" />
    <path d="M1074.92 -252.316C1161.41 -182.282 1174.75 -55.3985 1104.71 31.0865C1034.68 117.571 942.22 211.09 884.45 303.088C826.679 395.085 679.023 413.36 601.047 332.874C523.07 252.389 493.16 145.917 571.26 49.4715C649.36 -46.9735 714.779 -127.76 791.522 -222.53C868.265 -317.299 988.44 -322.351 1074.92 -252.316Z" fill="#1A365D" />
  </g>
  <defs>
    <clipPath id="clip0_10:2">
      <rect width="1600" height="1200" fill="white" />
    </clipPath>
  </defs>
</svg>
