<svg width="448" height="411" viewBox="0 0 448 411" fill="none" xmlns="http://www.w3.org/2000/svg">
  <path d="M224 410.02C347.38 410.02 447.4 351.271 447.4 278.8C447.4 206.329 347.38 147.58 224 147.58C100.62 147.58 0.600098 206.329 0.600098 278.8C0.600098 351.271 100.62 410.02 224 410.02Z" fill="#F5F5F5"/>
  <path d="M67.9999 278.91C80.9199 286.37 80.9199 298.47 67.9999 305.91C55.0799 313.35 34.1099 313.37 21.1799 305.91C8.24992 298.45 8.24992 286.34 21.1799 278.91C34.1099 271.48 54.9999 271.44 67.9999 278.91Z" fill="#E0E0E0"/>
  <path d="M96.34 296.06L213.6 363.76C214.942 364.441 216.425 364.796 217.93 364.796C219.435 364.796 220.918 364.441 222.26 363.76L420.76 249.16C423.15 247.78 423.15 245.54 420.76 244.16L303.5 176.45C302.158 175.769 300.675 175.414 299.17 175.414C297.665 175.414 296.182 175.769 294.84 176.45L96.34 291.06C93.94 292.44 93.94 294.68 96.34 296.06Z" fill="#E0E0E0"/>
  <path d="M392.28 224.88L384.11 220.16C384.11 220.16 379.24 199.95 381.18 181.77C383.91 156.21 397.66 145.08 407.13 148.77C413.43 151.25 415.38 158.41 404.79 173.64C398.55 182.65 390.88 201.35 392.28 224.88Z" fill="#4299E1"/>
  <g opacity="0.3">
    <path opacity="0.3" d="M392.28 224.88L384.11 220.16C384.11 220.16 379.24 199.95 381.18 181.77C383.91 156.21 397.66 145.08 407.13 148.77C413.43 151.25 415.38 158.41 404.79 173.64C398.55 182.65 390.88 201.35 392.28 224.88Z" fill="black"/>
  </g>
  <path d="M388.89 215H389C389.073 214.987 389.143 214.959 389.205 214.919C389.268 214.878 389.322 214.826 389.363 214.764C389.405 214.703 389.435 214.634 389.449 214.561C389.464 214.488 389.465 214.413 389.45 214.34C384.97 190.77 393.21 164.27 403.45 153.25C403.547 153.138 403.596 152.992 403.588 152.844C403.579 152.696 403.513 152.557 403.404 152.457C403.295 152.357 403.151 152.303 403.002 152.307C402.854 152.312 402.713 152.374 402.61 152.48C392.23 163.71 383.83 190.63 388.38 214.55C388.402 214.671 388.465 214.782 388.557 214.863C388.65 214.945 388.767 214.993 388.89 215Z" fill="white"/>
  <path d="M413.68 237.24C414.97 237.89 418.4 234.95 419.36 234.24C420.998 232.998 422.289 231.355 423.11 229.47C424.023 227.328 424.25 224.956 423.76 222.68C423.509 221.478 423.175 220.295 422.76 219.14L421.59 215.72C421.127 214.619 420.892 213.435 420.9 212.24C421.08 209.84 423.11 208.07 424.96 206.54C426.96 204.84 429.1 202.63 428.96 199.77C428.692 197.554 427.697 195.49 426.13 193.9C424.68 192.24 422.97 190.79 421.64 189.02C420.604 187.792 420.018 186.247 419.98 184.64C420.062 183.65 420.344 182.687 420.81 181.81C421.882 179.98 422.805 178.068 423.57 176.09C424.17 174.09 423.94 171.56 422.31 170.21C420.96 169.1 419.05 169.03 417.31 169.21C415.695 169.492 414.16 170.119 412.81 171.05C408.39 173.81 406.07 179.33 401.34 181.51C399.457 182.204 397.534 182.782 395.58 183.24C393.66 183.85 391.73 184.94 390.93 186.77C389.33 190.4 392.84 194.59 391.78 198.41C390.85 201.79 387.69 203.22 386.03 206.31C385.35 207.666 385.129 209.207 385.4 210.7C385.683 213.231 386.429 215.689 387.6 217.95C388.915 220.276 390.374 222.517 391.97 224.66C391.97 224.66 413.48 237.14 413.68 237.24Z" fill="#4299E1"/>
  <g opacity="0.15">
    <path opacity="0.15" d="M413.68 237.24C414.97 237.89 418.4 234.95 419.36 234.24C420.998 232.998 422.289 231.355 423.11 229.47C424.023 227.328 424.25 224.956 423.76 222.68C423.509 221.478 423.175 220.295 422.76 219.14L421.59 215.72C421.127 214.619 420.892 213.435 420.9 212.24C421.08 209.84 423.11 208.07 424.96 206.54C426.96 204.84 429.1 202.63 428.96 199.77C428.692 197.554 427.697 195.49 426.13 193.9C424.68 192.24 422.97 190.79 421.64 189.02C420.604 187.792 420.018 186.247 419.98 184.64C420.062 183.65 420.344 182.687 420.81 181.81C421.882 179.98 422.805 178.068 423.57 176.09C424.17 174.09 423.94 171.56 422.31 170.21C420.96 169.1 419.05 169.03 417.31 169.21C415.695 169.492 414.16 170.119 412.81 171.05C408.39 173.81 406.07 179.33 401.34 181.51C399.457 182.204 397.534 182.782 395.58 183.24C393.66 183.85 391.73 184.94 390.93 186.77C389.33 190.4 392.84 194.59 391.78 198.41C390.85 201.79 387.69 203.22 386.03 206.31C385.35 207.666 385.129 209.207 385.4 210.7C385.683 213.231 386.429 215.689 387.6 217.95C388.915 220.276 390.374 222.517 391.97 224.66C391.97 224.66 413.48 237.14 413.68 237.24Z" fill="black"/>
  </g>
  <path d="M401.17 230.72C401.245 230.714 401.318 230.693 401.385 230.658C401.452 230.623 401.511 230.576 401.559 230.518C401.608 230.461 401.644 230.394 401.667 230.322C401.689 230.25 401.697 230.175 401.69 230.1C399.62 207.68 408.96 182.34 416.29 174.74C416.353 174.689 416.405 174.626 416.441 174.554C416.478 174.482 416.499 174.404 416.503 174.323C416.507 174.242 416.494 174.162 416.464 174.087C416.435 174.011 416.39 173.943 416.332 173.887C416.274 173.831 416.205 173.787 416.129 173.76C416.053 173.732 415.972 173.721 415.892 173.727C415.811 173.733 415.733 173.756 415.662 173.794C415.591 173.833 415.529 173.886 415.48 173.95C407.99 181.7 398.48 207.47 400.56 230.2C400.573 230.349 400.644 230.488 400.758 230.585C400.873 230.683 401.021 230.731 401.17 230.72V230.72Z" fill="white"/>
  <path d="M403.4 203.07H403.57C408.817 201.329 414.24 200.172 419.74 199.62C419.89 199.605 420.027 199.531 420.123 199.415C420.219 199.299 420.264 199.15 420.25 199C420.247 198.925 420.228 198.852 420.195 198.785C420.161 198.718 420.115 198.659 420.057 198.611C420 198.563 419.933 198.528 419.861 198.507C419.79 198.486 419.714 198.48 419.64 198.49C414.043 199.06 408.524 200.237 403.18 202C403.056 202.049 402.953 202.14 402.889 202.258C402.825 202.375 402.805 202.511 402.831 202.642C402.857 202.773 402.928 202.89 403.033 202.974C403.137 203.058 403.267 203.102 403.4 203.1V203.07Z" fill="white"/>
  <path d="M100.34 283.62C100.463 285.281 100.975 286.89 101.835 288.316C102.695 289.742 103.878 290.946 105.29 291.83L213 354C214.534 354.772 216.227 355.174 217.945 355.174C219.662 355.174 221.356 354.772 222.89 354L412.5 244.53C413.995 243.742 415.246 242.561 416.119 241.114C416.992 239.667 417.454 238.01 417.454 236.32C417.454 234.63 416.992 232.972 416.119 231.525C415.246 230.079 413.995 228.898 412.5 228.11L304.81 165.92C303.278 165.141 301.584 164.735 299.865 164.735C298.146 164.735 296.452 165.141 294.92 165.92L105.29 275.4C103.878 276.286 102.694 277.492 101.835 278.92C100.975 280.348 100.463 281.958 100.34 283.62V283.62Z" fill="#37474F"/>
  <path d="M105.29 281.11L213 343.3C214.532 344.079 216.226 344.485 217.945 344.485C219.664 344.485 221.358 344.079 222.89 343.3L412.5 233.82C415.24 232.24 415.24 229.68 412.5 228.11L304.81 165.92C303.278 165.141 301.584 164.735 299.865 164.735C298.146 164.735 296.452 165.141 294.92 165.92L105.29 275.4C102.56 277 102.56 279.54 105.29 281.11Z" fill="#455A64"/>
  <path d="M217.93 344.49V355.2C216.189 355.245 214.467 354.838 212.93 354.02L105.29 291.83C103.839 291.067 102.617 289.933 101.748 288.544C100.879 287.154 100.394 285.559 100.343 283.921C100.292 282.283 100.677 280.66 101.458 279.219C102.24 277.779 103.389 276.571 104.79 275.72C102.57 277.31 102.79 279.64 105.29 281.12L213 343.31C214.518 344.112 216.213 344.518 217.93 344.49V344.49Z" fill="#263238"/>
  <path d="M95.6999 275.58C93.1399 274.1 93.2799 271.58 93.2799 268.45V119.7C93.3837 117.98 93.8903 116.308 94.7588 114.819C95.6273 113.331 96.8334 112.067 98.2799 111.13L287.86 1.65006C289.331 0.870695 290.964 0.448303 292.628 0.417034C294.293 0.385764 295.941 0.746494 297.44 1.47006C300.01 2.95006 299.87 5.47006 299.87 8.61006V157.35C299.776 159.067 299.279 160.738 298.419 162.227C297.559 163.716 296.36 164.981 294.92 165.92L105.29 275.4C103.818 276.182 102.183 276.606 100.516 276.637C98.8502 276.668 97.2 276.306 95.6999 275.58V275.58Z" fill="#37474F"/>
  <path d="M299.87 8.6C299.87 5.45 297.65 4.18001 294.92 5.75001L105.29 115.24C103.825 116.148 102.619 117.419 101.79 118.93L94.74 114.83C95.5707 113.317 96.7758 112.043 98.24 111.13L287.85 1.65001C289.322 0.868237 290.957 0.444519 292.623 0.413244C294.29 0.381969 295.94 0.744019 297.44 1.47001C300 3.00001 299.87 5.45 299.87 8.6Z" fill="#455A64"/>
  <path d="M104.71 275.7C103.292 276.34 101.752 276.66 100.197 276.64C98.6415 276.619 97.11 276.257 95.7099 275.58C93.1499 274.1 93.2799 271.58 93.2799 268.45V119.7C93.3359 117.979 93.8353 116.301 94.7299 114.83L101.79 118.92C100.901 120.394 100.402 122.07 100.34 123.79V272.55C100.34 275.47 102.25 276.79 104.71 275.7Z" fill="#263238"/>
  <path d="M108 120.94L290.78 15.41C292.42 14.41 293.78 15.23 293.78 17.12V147C293.721 148.033 293.419 149.037 292.897 149.93C292.376 150.824 291.65 151.581 290.78 152.14L108 257.64C106.36 258.58 105 257.82 105 255.92V126.08C105.06 125.048 105.363 124.044 105.885 123.151C106.406 122.258 107.131 121.5 108 120.94V120.94Z" fill="#FAFAFA"/>
  <path d="M119 275.7L295 174.07C295.765 173.68 296.611 173.477 297.47 173.477C298.328 173.477 299.175 173.68 299.94 174.07L302.87 175.68C304.24 176.47 304.24 177.75 302.87 178.54L126.87 280.14C126.096 280.538 125.239 280.745 124.37 280.745C123.5 280.745 122.643 280.538 121.87 280.14L118.97 278.55C117.61 277.76 117.61 276.48 119 275.7Z" fill="#263238"/>
  <path d="M132.78 283.9L308.78 182.28C309.462 181.89 310.226 181.664 311.01 181.62C311.795 181.577 312.579 181.717 313.3 182.03L359.11 208.49C360.24 209.14 360.05 210.31 358.69 211.1L182.9 312.58C182.216 312.969 181.451 313.195 180.665 313.24C179.88 313.286 179.094 313.149 178.37 312.84L132.37 286.51C131.23 285.86 131.42 284.69 132.78 283.9Z" fill="#263238"/>
  <path d="M285.3 225L290.82 221.82C291.05 221.69 291.07 221.48 290.82 221.36L285.55 218.36C285.426 218.298 285.289 218.266 285.15 218.266C285.011 218.266 284.874 218.298 284.75 218.36L279.24 221.55C279 221.68 278.98 221.89 279.24 222.01L284.51 225.01C284.633 225.071 284.769 225.102 284.906 225.1C285.043 225.098 285.178 225.064 285.3 225ZM277.3 214L271.79 217.18C271.55 217.31 271.53 217.52 271.74 217.64L277.01 220.64C277.134 220.702 277.271 220.734 277.41 220.734C277.549 220.734 277.686 220.702 277.81 220.64L283.32 217.45C283.56 217.32 283.58 217.11 283.37 216.99L278.1 213.99C277.97 213.921 277.826 213.885 277.679 213.887C277.532 213.889 277.388 213.928 277.26 214H277.3ZM259.49 224.28L250.17 229.66C249.93 229.79 249.91 230 250.12 230.12L255.39 233.17C255.514 233.232 255.651 233.264 255.79 233.264C255.929 233.264 256.066 233.232 256.19 233.17L265.52 227.78C265.75 227.65 265.77 227.44 265.52 227.32L260.24 224.32C260.124 224.245 259.992 224.199 259.855 224.185C259.717 224.171 259.579 224.19 259.45 224.24L259.49 224.28ZM269.24 218.65L263.73 221.83C263.5 221.96 263.48 222.17 263.68 222.29L268.96 225.29C269.084 225.352 269.221 225.384 269.36 225.384C269.499 225.384 269.636 225.352 269.76 225.29L275.27 222.1C275.5 221.97 275.52 221.76 275.27 221.64L269.99 218.64C269.87 218.573 269.736 218.535 269.599 218.53C269.461 218.525 269.325 218.552 269.2 218.61L269.24 218.65ZM247.62 231.13L242.11 234.31C241.88 234.45 241.86 234.65 242.06 234.77L247.34 237.77C247.464 237.831 247.601 237.863 247.74 237.863C247.879 237.863 248.015 237.831 248.14 237.77L253.65 234.59C253.88 234.45 253.9 234.25 253.7 234.12L248.42 231.12C248.294 231.045 248.151 231.002 248.004 230.997C247.857 230.992 247.711 231.024 247.58 231.09L247.62 231.13ZM239.57 235.78L234 238.92C233.76 239.06 233.74 239.26 234 239.38L239.27 242.43C239.394 242.492 239.531 242.524 239.67 242.524C239.809 242.524 239.946 242.492 240.07 242.43L245.58 239.25C245.82 239.11 245.84 238.91 245.63 238.78L240.36 235.78C240.236 235.705 240.095 235.662 239.95 235.655C239.805 235.648 239.661 235.677 239.53 235.74L239.57 235.78ZM260.23 248.2L265.75 245.02C265.98 244.88 266 244.68 265.75 244.56L260.48 241.56C260.356 241.496 260.219 241.463 260.08 241.463C259.941 241.463 259.804 241.496 259.68 241.56L254.17 244.74C253.93 244.88 253.91 245.08 254.12 245.2L259.39 248.25C259.521 248.298 259.662 248.315 259.801 248.3C259.939 248.284 260.073 248.236 260.19 248.16L260.23 248.2ZM252.18 252.85L257.69 249.67C257.92 249.53 257.95 249.33 257.74 249.21L252.47 246.16C252.345 246.096 252.206 246.063 252.065 246.063C251.924 246.063 251.785 246.096 251.66 246.16L246.15 249.34C245.92 249.48 245.9 249.68 246.15 249.8L251.42 252.8C251.533 252.851 251.655 252.879 251.779 252.88C251.903 252.882 252.026 252.858 252.14 252.81L252.18 252.85ZM244.12 257.5L249.64 254.32C249.87 254.18 249.89 253.98 249.64 253.86L244.37 250.81C244.246 250.746 244.109 250.713 243.97 250.713C243.831 250.713 243.694 250.746 243.57 250.81L238.06 254C237.82 254.14 237.8 254.34 238.01 254.46L243.28 257.51C243.408 257.567 243.547 257.591 243.686 257.583C243.825 257.574 243.96 257.532 244.08 257.46L244.12 257.5ZM236 262.11L241.51 258.93C241.75 258.79 241.77 258.59 241.51 258.47L236.24 255.42C236.116 255.356 235.979 255.323 235.84 255.323C235.701 255.323 235.564 255.356 235.44 255.42L230 258.63C229.77 258.77 229.75 258.97 230 259.09L235.27 262.14C235.386 262.188 235.512 262.211 235.638 262.205C235.764 262.2 235.888 262.168 236 262.11V262.11ZM277.22 229.61L282.73 226.43C282.96 226.3 282.99 226.09 282.78 225.97L277.51 222.97C277.386 222.908 277.249 222.876 277.11 222.876C276.971 222.876 276.834 222.908 276.71 222.97L271.19 226.16C270.96 226.29 270.94 226.5 271.19 226.62L276.46 229.62C276.583 229.681 276.719 229.712 276.856 229.71C276.993 229.708 277.128 229.674 277.25 229.61H277.22ZM268.22 243.51L280.51 236.41C280.75 236.28 280.77 236.07 280.51 235.95L267.71 228.56C267.584 228.498 267.445 228.466 267.305 228.466C267.165 228.466 267.026 228.498 266.9 228.56L260.55 232.23C260.31 232.37 260.29 232.58 260.5 232.7L267.28 236.61C267.49 236.73 267.46 236.94 267.23 237.07L262.22 240C261.99 240.14 261.97 240.34 262.22 240.46L267.49 243.51C267.609 243.566 267.739 243.594 267.87 243.594C268.001 243.594 268.131 243.566 268.25 243.51H268.22ZM231.44 240.39L226 243.57C225.77 243.71 225.75 243.91 226 244.03L231.27 247.08C231.394 247.142 231.531 247.174 231.67 247.174C231.809 247.174 231.946 247.142 232.07 247.08L237.58 243.9C237.81 243.76 237.83 243.56 237.63 243.44L232.35 240.39C232.216 240.312 232.065 240.271 231.91 240.271C231.755 240.271 231.603 240.312 231.47 240.39H231.44ZM223.42 245L217.91 248.18C217.67 248.32 217.65 248.52 217.91 248.64L223.18 251.69C223.304 251.754 223.441 251.787 223.58 251.787C223.719 251.787 223.856 251.754 223.98 251.69L229.49 248.51C229.73 248.37 229.75 248.17 229.54 248.05L224.22 245C224.096 244.936 223.959 244.903 223.82 244.903C223.681 244.903 223.544 244.936 223.42 245V245ZM178.85 294.65C178.974 294.714 179.111 294.747 179.25 294.747C179.389 294.747 179.526 294.714 179.65 294.65L185.16 291.47C185.39 291.34 185.41 291.13 185.21 291.01L179.93 288.01C179.806 287.946 179.669 287.913 179.53 287.913C179.391 287.913 179.254 287.946 179.13 288.01L173.62 291.19C173.39 291.33 173.37 291.54 173.57 291.66L178.85 294.65ZM159 282.24L153.49 285.42C153.26 285.56 153.23 285.77 153.44 285.89L158.72 288.89C158.844 288.954 158.981 288.987 159.12 288.987C159.259 288.987 159.396 288.954 159.52 288.89L165.03 285.71C165.26 285.58 165.28 285.37 165.03 285.25L159.76 282.25C159.642 282.191 159.513 282.159 159.381 282.158C159.249 282.156 159.119 282.184 159 282.24V282.24ZM169.21 291.57C169.336 291.631 169.475 291.663 169.615 291.663C169.755 291.663 169.894 291.631 170.02 291.57L175.53 288.39C175.76 288.25 175.78 288.04 175.53 287.92L170.26 284.92C170.136 284.856 169.999 284.823 169.86 284.823C169.721 284.823 169.584 284.856 169.46 284.92L164 288.06C163.77 288.19 163.74 288.4 163.95 288.52L169.21 291.57ZM191.44 296.57L196.95 293.39C197.18 293.26 197.2 293.05 196.95 292.93L191.67 289.93C191.546 289.868 191.409 289.836 191.27 289.836C191.131 289.836 190.994 289.868 190.87 289.93L185.36 293.12C185.13 293.25 185.11 293.46 185.36 293.58L190.63 296.58C190.754 296.639 190.89 296.668 191.027 296.665C191.165 296.661 191.299 296.626 191.42 296.56L191.44 296.57ZM182.58 301.25C182.704 301.314 182.841 301.347 182.98 301.347C183.119 301.347 183.256 301.314 183.38 301.25L188.89 298.07C189.13 297.94 189.15 297.73 188.89 297.61L183.62 294.61C183.496 294.548 183.359 294.516 183.22 294.516C183.081 294.516 182.944 294.548 182.82 294.61L177.31 297.8C177.07 297.93 177.05 298.14 177.26 298.26L182.58 301.25ZM167 277.59L161.48 280.77C161.25 280.91 161.23 281.12 161.48 281.24L166.75 284.24C166.874 284.304 167.011 284.337 167.15 284.337C167.289 284.337 167.426 284.304 167.55 284.24L173.06 281.06C173.3 280.93 173.32 280.72 173.11 280.6L167.84 277.55C167.707 277.488 167.561 277.459 167.415 277.466C167.269 277.473 167.126 277.516 167 277.59V277.59ZM207.27 254.34L201.76 257.52C201.52 257.66 201.5 257.86 201.71 257.98L206.98 260.98C207.104 261.044 207.241 261.077 207.38 261.077C207.519 261.077 207.656 261.044 207.78 260.98L213.3 257.8C213.53 257.66 213.55 257.46 213.3 257.34L208.03 254.29C207.913 254.246 207.789 254.228 207.664 254.237C207.54 254.246 207.419 254.281 207.31 254.34H207.27ZM175.05 272.94L169.54 276.12C169.31 276.26 169.28 276.47 169.49 276.59L174.76 279.59C174.885 279.654 175.024 279.688 175.165 279.688C175.306 279.688 175.445 279.654 175.57 279.59L181.08 276.41C181.31 276.27 181.33 276.07 181.08 275.95L175.81 272.95C175.697 272.899 175.575 272.872 175.451 272.87C175.327 272.868 175.204 272.892 175.09 272.94H175.05ZM215.32 249.69L209.81 252.87C209.58 253.01 209.56 253.21 209.81 253.33L215.08 256.38C215.204 256.444 215.341 256.477 215.48 256.477C215.619 256.477 215.756 256.444 215.88 256.38L221.39 253.2C221.62 253.06 221.64 252.86 221.44 252.74L216.16 249.74C216.04 249.668 215.905 249.626 215.766 249.617C215.627 249.609 215.488 249.634 215.36 249.69H215.32ZM199.25 259L193.74 262.18C193.51 262.32 193.49 262.52 193.74 262.64L199.01 265.69C199.134 265.754 199.271 265.787 199.41 265.787C199.549 265.787 199.686 265.754 199.81 265.69L205.32 262.51C205.55 262.37 205.58 262.17 205.37 262.05L200.06 259C199.935 258.936 199.796 258.903 199.655 258.903C199.514 258.903 199.375 258.936 199.25 259ZM191.2 263.65L185.69 266.83C185.45 266.97 185.43 267.17 185.64 267.29L190.91 270.34C191.034 270.404 191.171 270.437 191.31 270.437C191.449 270.437 191.586 270.404 191.71 270.34L197.23 267.16C197.46 267.02 197.48 266.82 197.23 266.7L192 263.61C191.873 263.553 191.735 263.526 191.596 263.531C191.458 263.536 191.322 263.574 191.2 263.64V263.65ZM183.2 268.3L177.68 271.48C177.45 271.62 177.43 271.83 177.68 271.95L182.95 274.95C183.074 275.014 183.211 275.047 183.35 275.047C183.489 275.047 183.626 275.014 183.75 274.95L189.26 271.77C189.5 271.63 189.52 271.43 189.31 271.31L184 268.26C183.867 268.195 183.719 268.163 183.571 268.168C183.423 268.174 183.278 268.215 183.15 268.29L183.2 268.3ZM219.97 271.42L225.48 268.24C225.72 268.1 225.74 267.9 225.48 267.78L220.21 264.78C220.086 264.718 219.949 264.686 219.81 264.686C219.671 264.686 219.534 264.718 219.41 264.78L213.89 267.96C213.66 268.1 213.64 268.3 213.89 268.42L219.16 271.47C219.283 271.518 219.415 271.538 219.547 271.528C219.679 271.517 219.806 271.477 219.92 271.41L219.97 271.42ZM295.11 203.69L289.6 206.87C289.37 207 289.35 207.21 289.55 207.33L294.83 210.33C294.954 210.392 295.091 210.424 295.23 210.424C295.369 210.424 295.506 210.392 295.63 210.33L301.14 207.14C301.37 207.01 301.39 206.8 301.19 206.68L295.91 203.68C295.78 203.607 295.634 203.569 295.485 203.569C295.336 203.569 295.19 203.607 295.06 203.68L295.11 203.69ZM285.36 209.31L279.85 212.5C279.62 212.63 279.6 212.84 279.8 212.96L285.08 215.96C285.204 216.022 285.341 216.054 285.48 216.054C285.619 216.054 285.756 216.022 285.88 215.96L291.39 212.77C291.62 212.64 291.64 212.43 291.44 212.31L286.16 209.31C286.03 209.239 285.884 209.2 285.736 209.198C285.588 209.197 285.441 209.232 285.31 209.3L285.36 209.31ZM303.12 199L297.61 202.18C297.37 202.31 297.35 202.52 297.56 202.64L302.83 205.64C302.954 205.702 303.091 205.734 303.23 205.734C303.369 205.734 303.506 205.702 303.63 205.64L309.14 202.45C309.38 202.32 309.4 202.11 309.19 201.99L303.92 198.99C303.796 198.928 303.658 198.896 303.519 198.898C303.379 198.899 303.243 198.935 303.12 199V199ZM258.6 240.38L264.11 237.2C264.34 237.07 264.36 236.86 264.16 236.74L258.88 233.74C258.756 233.678 258.619 233.646 258.48 233.646C258.341 233.646 258.204 233.678 258.08 233.74L252.57 236.93C252.34 237.06 252.32 237.27 252.52 237.39L257.8 240.39C257.924 240.453 258.062 240.484 258.201 240.482C258.34 240.481 258.477 240.446 258.6 240.38V240.38ZM311.97 194.38C311.846 194.318 311.709 194.286 311.57 194.286C311.431 194.286 311.294 194.318 311.17 194.38L305.66 197.57C305.43 197.7 305.41 197.91 305.61 198.03L310.89 201.03C311.014 201.092 311.151 201.124 311.29 201.124C311.429 201.124 311.566 201.092 311.69 201.03L317.2 197.84C317.43 197.71 317.45 197.5 317.25 197.38L311.97 194.38ZM227.97 266.79L233.48 263.61C233.71 263.47 233.73 263.27 233.48 263.15L228.21 260.1C228.086 260.036 227.949 260.003 227.81 260.003C227.671 260.003 227.534 260.036 227.41 260.1L222 263.28C221.77 263.42 221.74 263.62 222 263.74L227.27 266.79C227.387 266.837 227.512 266.859 227.638 266.853C227.764 266.848 227.887 266.816 228 266.76L227.97 266.79ZM326.74 209.79L332.25 206.61C332.49 206.48 332.51 206.27 332.3 206.15L327 203C326.876 202.938 326.739 202.906 326.6 202.906C326.461 202.906 326.324 202.938 326.2 203L320.69 206.18C320.45 206.32 320.43 206.53 320.64 206.65L325.91 209.65C326.032 209.734 326.173 209.785 326.32 209.799C326.467 209.813 326.615 209.789 326.75 209.73L326.74 209.79ZM311.15 210.09L316.67 206.91C316.9 206.78 316.92 206.57 316.67 206.45L311.4 203.45C311.276 203.388 311.139 203.356 311 203.356C310.861 203.356 310.724 203.388 310.6 203.45L305.09 206.64C304.85 206.77 304.83 206.98 305.04 207.1L310.31 210.1C310.448 210.158 310.599 210.179 310.748 210.162C310.897 210.144 311.039 210.089 311.16 210L311.15 210.09ZM319.49 198.76C319.366 198.698 319.229 198.666 319.09 198.666C318.951 198.666 318.814 198.698 318.69 198.76L313.18 201.95C312.95 202.08 312.93 202.29 313.18 202.41L318.45 205.41C318.574 205.474 318.711 205.507 318.85 205.507C318.989 205.507 319.126 205.474 319.25 205.41L324.76 202.23C324.99 202.1 325.02 201.89 324.76 201.77L319.49 198.76ZM321.19 197.76L333.99 205.15C334.115 205.214 334.254 205.248 334.395 205.248C334.536 205.248 334.675 205.214 334.8 205.15L340.31 201.97C340.54 201.84 340.56 201.63 340.31 201.51L327.51 194.12C327.386 194.058 327.249 194.026 327.11 194.026C326.971 194.026 326.834 194.058 326.71 194.12L321.2 197.3C321 197.39 321 197.6 321.2 197.72L321.19 197.76ZM302.59 208L297.08 211.19C296.85 211.32 296.83 211.53 297.08 211.65L302.35 214.65C302.474 214.714 302.611 214.747 302.75 214.747C302.889 214.747 303.026 214.714 303.15 214.65L308.66 211.47C308.89 211.34 308.92 211.13 308.71 211.01L303.44 208.01C303.309 207.94 303.164 207.903 303.016 207.901C302.868 207.899 302.722 207.933 302.59 208V208ZM242 243L236.49 246.19C236.26 246.32 236.24 246.53 236.49 246.65L241.77 249.65C241.894 249.714 242.031 249.747 242.17 249.747C242.309 249.747 242.446 249.714 242.57 249.65L248 246.5C248.23 246.37 248.25 246.16 248.05 246.04L242.77 243.04C242.653 242.977 242.523 242.94 242.389 242.933C242.256 242.927 242.123 242.949 242 243V243ZM317.93 214.39C318.054 214.454 318.191 214.487 318.33 214.487C318.469 214.487 318.606 214.454 318.73 214.39L324.24 211.21C324.47 211.08 324.49 210.87 324.24 210.75L319 207.69C318.876 207.628 318.739 207.596 318.6 207.596C318.461 207.596 318.324 207.628 318.2 207.69L312.69 210.87C312.46 211.01 312.44 211.22 312.64 211.34L317.93 214.39ZM250.06 238.39L244.55 241.58C244.31 241.71 244.29 241.92 244.55 242.04L249.82 245.04C249.944 245.104 250.081 245.137 250.22 245.137C250.359 245.137 250.496 245.104 250.62 245.04L256.13 241.86C256.37 241.73 256.39 241.52 256.18 241.4L250.91 238.4C250.775 238.315 250.619 238.267 250.459 238.262C250.299 238.256 250.141 238.294 250 238.37L250.06 238.39ZM186.9 290C187.024 290.064 187.161 290.097 187.3 290.097C187.439 290.097 187.576 290.064 187.7 290L193.21 286.82C193.45 286.69 193.47 286.48 193.21 286.36L188 283.32C187.876 283.258 187.739 283.226 187.6 283.226C187.461 283.226 187.324 283.258 187.2 283.32L181.69 286.5C181.45 286.64 181.43 286.85 181.64 286.97L186.9 290ZM177.54 280.19L172 283.41C171.77 283.54 171.75 283.75 172 283.87L177.27 286.87C177.394 286.934 177.531 286.967 177.67 286.967C177.809 286.967 177.946 286.934 178.07 286.87L183.58 283.69C183.82 283.55 183.84 283.34 183.63 283.22L178.36 280.22C178.233 280.154 178.092 280.121 177.949 280.122C177.806 280.124 177.665 280.161 177.54 280.23V280.19ZM195.76 285.32L201.27 282.14C201.5 282.01 201.52 281.8 201.27 281.68L196 278.67C195.876 278.608 195.739 278.576 195.6 278.576C195.461 278.576 195.324 278.608 195.2 278.67L189.69 281.85C189.46 281.99 189.44 282.2 189.69 282.32L194.97 285.32C195.089 285.389 195.223 285.428 195.36 285.435C195.497 285.442 195.634 285.416 195.76 285.36V285.32ZM203.81 280.67L209.32 277.49C209.56 277.35 209.58 277.15 209.37 277.03L204.1 274C203.976 273.938 203.839 273.906 203.7 273.906C203.561 273.906 203.424 273.938 203.3 274L197.79 277.18C197.55 277.32 197.53 277.53 197.79 277.65L203.06 280.65C203.172 280.716 203.298 280.755 203.428 280.765C203.558 280.776 203.688 280.757 203.81 280.71V280.67ZM211.87 276.02L217.38 272.84C217.61 272.7 217.63 272.5 217.38 272.38L212.11 269.33C211.986 269.268 211.849 269.236 211.71 269.236C211.571 269.236 211.434 269.268 211.31 269.33L205.8 272.51C205.57 272.65 205.54 272.86 205.75 272.97L211.03 275.97C211.151 276.055 211.291 276.108 211.438 276.124C211.585 276.14 211.734 276.118 211.87 276.06V276.02ZM185.59 275.54L180.08 278.72C179.85 278.85 179.82 279.06 180.03 279.18L185.3 282.18C185.426 282.242 185.565 282.274 185.705 282.274C185.845 282.274 185.984 282.242 186.11 282.18L191.62 279C191.85 278.86 191.87 278.65 191.62 278.53L186.35 275.53C186.228 275.48 186.096 275.459 185.964 275.467C185.832 275.476 185.705 275.515 185.59 275.58V275.54ZM193.65 270.89L188.13 274.07C187.9 274.2 187.88 274.41 188.13 274.53L193.4 277.53C193.524 277.592 193.661 277.624 193.8 277.624C193.939 277.624 194.076 277.592 194.2 277.53L199.71 274.34C199.94 274.21 199.97 274 199.76 273.88L194.49 270.88C194.357 270.817 194.21 270.788 194.063 270.797C193.917 270.806 193.774 270.851 193.65 270.93V270.89ZM225.86 252.29L220.35 255.47C220.12 255.6 220.1 255.81 220.35 255.93L225.62 258.93C225.744 258.992 225.881 259.024 226.02 259.024C226.159 259.024 226.296 258.992 226.42 258.93L231.93 255.74C232.16 255.61 232.18 255.4 231.98 255.28L226.7 252.28C226.567 252.217 226.42 252.188 226.273 252.197C226.127 252.206 225.984 252.251 225.86 252.33V252.29ZM217.81 257L212.3 260.18C212.06 260.31 212.04 260.52 212.25 260.64L217.52 263.64C217.644 263.702 217.781 263.734 217.92 263.734C218.059 263.734 218.196 263.702 218.32 263.64L223.83 260.45C224.07 260.32 224.09 260.11 223.83 259.99L218.56 256.99C218.442 256.936 218.314 256.908 218.184 256.91C218.054 256.912 217.926 256.943 217.81 257V257ZM233.92 247.69L228.41 250.88C228.17 251.01 228.15 251.22 228.41 251.34L233.68 254.34C233.804 254.402 233.941 254.434 234.08 254.434C234.219 254.434 234.356 254.402 234.48 254.34L239.99 251.15C240.23 251.02 240.25 250.81 240.04 250.69L234.77 247.69C234.641 247.617 234.496 247.577 234.347 247.573C234.199 247.57 234.052 247.603 233.92 247.67V247.69ZM201.7 266.28L196.19 269.46C195.95 269.59 195.93 269.8 196.14 269.92L201.41 272.92C201.534 272.982 201.671 273.014 201.81 273.014C201.949 273.014 202.086 272.982 202.21 272.92L207.73 269.73C207.96 269.6 207.98 269.39 207.73 269.27L202.46 266.27C202.341 266.214 202.21 266.186 202.079 266.188C201.947 266.189 201.818 266.221 201.7 266.28V266.28ZM209.75 261.63L204.24 264.81C204.01 264.94 203.99 265.15 204.24 265.27L209.51 268.27C209.634 268.332 209.771 268.364 209.91 268.364C210.049 268.364 210.186 268.332 210.31 268.27L215.82 265.08C216.05 264.95 216.08 264.74 215.87 264.62L210.59 261.62C210.46 261.551 210.316 261.515 210.169 261.517C210.022 261.519 209.878 261.558 209.75 261.63V261.63ZM199.47 291.91L204.98 288.73C205.22 288.6 205.24 288.39 205.03 288.27L199.76 285.27C199.636 285.208 199.499 285.176 199.36 285.176C199.221 285.176 199.084 285.208 198.96 285.27L193.45 288.45C193.21 288.59 193.19 288.8 193.45 288.92L198.72 291.92C198.838 291.974 198.966 292.002 199.096 292C199.226 291.998 199.354 291.968 199.47 291.91V291.91ZM157 289.91L151.73 286.91C151.606 286.846 151.469 286.813 151.33 286.813C151.191 286.813 151.054 286.846 150.93 286.91L145.42 290.09C145.18 290.23 145.16 290.44 145.42 290.56L150.69 293.56C150.814 293.624 150.951 293.657 151.09 293.657C151.229 293.657 151.366 293.624 151.49 293.56L157 290.38C157.19 290.24 157.21 290 157 289.91V289.91ZM167.5 292.54L162.23 289.54C162.106 289.476 161.969 289.443 161.83 289.443C161.691 289.443 161.554 289.476 161.43 289.54L153 294.42C152.76 294.56 152.74 294.77 153 294.89L158.27 297.89C158.394 297.954 158.531 297.987 158.67 297.987C158.809 297.987 158.946 297.954 159.07 297.89L167.55 293C167.69 292.87 167.71 292.66 167.5 292.54V292.54ZM149.13 283.9L143.86 280.9C143.736 280.836 143.599 280.803 143.46 280.803C143.321 280.803 143.184 280.836 143.06 280.9L136.27 284.82C136.04 284.95 136.02 285.16 136.27 285.28L141.54 288.28C141.664 288.342 141.801 288.374 141.94 288.374C142.079 288.374 142.216 288.342 142.34 288.28L149.12 284.36C149.32 284.22 149.34 284 149.13 283.9ZM154.33 280.9C154.454 280.964 154.591 280.997 154.73 280.997C154.869 280.997 155.006 280.964 155.13 280.9L160.64 277.72C160.88 277.58 160.9 277.37 160.69 277.25L155.42 274.25C155.296 274.186 155.159 274.153 155.02 274.153C154.881 274.153 154.744 274.186 154.62 274.25L149.11 277.43C148.87 277.56 148.85 277.77 149.06 277.89L154.33 280.9ZM177.15 295.68L171.88 292.68C171.756 292.618 171.619 292.586 171.48 292.586C171.341 292.586 171.204 292.618 171.08 292.68L160.48 298.8C160.25 298.94 160.22 299.14 160.48 299.26L165.75 302.26C165.875 302.324 166.014 302.358 166.155 302.358C166.296 302.358 166.435 302.324 166.56 302.26L177.15 296.14C177.34 296 177.36 295.79 177.15 295.67V295.68ZM180.87 302.23L175.59 299.23C175.466 299.168 175.329 299.136 175.19 299.136C175.051 299.136 174.914 299.168 174.79 299.23L168 303.12C167.77 303.26 167.75 303.46 168 303.58L173.28 306.63C173.404 306.691 173.541 306.723 173.68 306.723C173.819 306.723 173.955 306.691 174.08 306.63L180.86 302.71C181.05 302.55 181.08 302.34 180.87 302.22V302.23ZM214.22 246.33C214.344 246.394 214.481 246.427 214.62 246.427C214.759 246.427 214.896 246.394 215.02 246.33L220.53 243.15C220.76 243.01 220.78 242.81 220.58 242.69L215.3 239.69C215.175 239.629 215.039 239.597 214.9 239.597C214.761 239.597 214.624 239.629 214.5 239.69L209 242.81C208.77 242.95 208.75 243.15 208.95 243.27L214.22 246.33ZM198.11 255.63C198.234 255.694 198.371 255.727 198.51 255.727C198.649 255.727 198.786 255.694 198.91 255.63L204.42 252.45C204.65 252.32 204.68 252.11 204.47 251.99L199.19 248.94C199.065 248.879 198.929 248.847 198.79 248.847C198.651 248.847 198.514 248.879 198.39 248.94L192.88 252.12C192.65 252.26 192.63 252.47 192.88 252.59L198.11 255.63ZM162.38 276.25C162.506 276.312 162.645 276.344 162.785 276.344C162.925 276.344 163.064 276.312 163.19 276.25L168.7 273C168.93 272.86 168.95 272.65 168.7 272.53L163.43 269.53C163.306 269.466 163.169 269.433 163.03 269.433C162.891 269.433 162.754 269.466 162.63 269.53L157.12 272.71C156.89 272.84 156.86 273.05 157.12 273.17L162.38 276.25ZM206.16 251C206.284 251.064 206.421 251.097 206.56 251.097C206.699 251.097 206.836 251.064 206.96 251L212.47 247.82C212.71 247.69 212.73 247.48 212.52 247.36L207.25 244.31C207.126 244.248 206.989 244.216 206.85 244.216C206.711 244.216 206.574 244.248 206.45 244.31L200.94 247.49C200.7 247.63 200.68 247.84 200.89 247.96L206.16 251ZM190.05 260.3C190.174 260.364 190.311 260.397 190.45 260.397C190.589 260.397 190.726 260.364 190.85 260.3L196.36 257.12C196.6 256.99 196.62 256.78 196.36 256.66L191.09 253.61C190.966 253.548 190.829 253.516 190.69 253.516C190.551 253.516 190.414 253.548 190.29 253.61L184.78 256.79C184.54 256.93 184.52 257.14 184.73 257.26L190.05 260.3ZM184.82 302.58C184.696 302.518 184.559 302.486 184.42 302.486C184.281 302.486 184.144 302.518 184.02 302.58L175.54 307.48C175.31 307.61 175.29 307.82 175.54 307.94L180.81 310.94C180.934 311.004 181.071 311.037 181.21 311.037C181.349 311.037 181.486 311.004 181.61 310.94L190.09 306.04C190.32 305.91 190.34 305.7 190.09 305.58L184.82 302.58ZM178.49 266.97C178.614 267.032 178.751 267.064 178.89 267.064C179.029 267.064 179.166 267.032 179.29 266.97L184.81 263.78C185.04 263.65 185.06 263.44 184.81 263.32L179.54 260.32C179.416 260.256 179.279 260.223 179.14 260.223C179.001 260.223 178.864 260.256 178.74 260.32L173.23 263.5C172.99 263.63 172.97 263.84 173.18 263.96L178.49 266.97ZM170.44 271.62C170.564 271.682 170.701 271.714 170.84 271.714C170.979 271.714 171.116 271.682 171.24 271.62L176.75 268.43C176.99 268.3 177.01 268.09 176.8 267.97L171.53 264.97C171.406 264.906 171.269 264.873 171.13 264.873C170.991 264.873 170.854 264.906 170.73 264.97L165.21 268.15C164.98 268.28 164.96 268.49 165.21 268.61L170.44 271.62ZM334.05 216.42C333.926 216.356 333.789 216.323 333.65 216.323C333.511 216.323 333.374 216.356 333.25 216.42L319.68 224.25C319.45 224.39 319.42 224.59 319.63 224.71L324.91 227.76C325.034 227.824 325.171 227.857 325.31 227.857C325.449 227.857 325.586 227.824 325.71 227.76L339.27 219.93C339.51 219.79 339.53 219.59 339.32 219.47L334.05 216.42ZM316.24 226.7C316.116 226.636 315.979 226.603 315.84 226.603C315.701 226.603 315.564 226.636 315.44 226.7L309.93 229.88C309.7 230.02 309.67 230.22 309.88 230.34L315.15 233.39C315.275 233.454 315.414 233.488 315.555 233.488C315.696 233.488 315.835 233.454 315.96 233.39L321.47 230.21C321.7 230.07 321.72 229.87 321.47 229.75L316.24 226.7ZM207.53 287.26L213.04 284.08C213.27 283.95 213.29 283.74 213.09 283.62L207.81 280.62C207.686 280.558 207.549 280.526 207.41 280.526C207.271 280.526 207.134 280.558 207.01 280.62L201.5 283.8C201.27 283.94 201.25 284.15 201.5 284.27L206.77 287.27C206.889 287.326 207.019 287.354 207.151 287.352C207.283 287.351 207.412 287.319 207.53 287.26V287.26ZM300.13 236C300.006 235.938 299.869 235.906 299.73 235.906C299.591 235.906 299.454 235.938 299.33 236L293.82 239.18C293.59 239.32 293.56 239.52 293.77 239.64L299.05 242.69C299.174 242.754 299.311 242.787 299.45 242.787C299.589 242.787 299.726 242.754 299.85 242.69L305.36 239.51C305.59 239.37 305.61 239.17 305.36 239.05L300.13 236ZM342.13 211.77C342.006 211.706 341.869 211.673 341.73 211.673C341.591 211.673 341.454 211.706 341.33 211.77L335.79 215C335.56 215.14 335.53 215.34 335.74 215.46L341.01 218.46C341.134 218.522 341.271 218.554 341.41 218.554C341.549 218.554 341.686 218.522 341.81 218.46L347.33 215.28C347.56 215.14 347.58 214.94 347.33 214.82L342.13 211.77ZM355.46 210.17L342.65 202.77C342.526 202.706 342.389 202.673 342.25 202.673C342.111 202.673 341.974 202.706 341.85 202.77L336.31 206C336.08 206.14 336.06 206.34 336.26 206.46L349.07 213.86C349.194 213.922 349.331 213.954 349.47 213.954C349.609 213.954 349.746 213.922 349.87 213.86L355.38 210.68C355.61 210.46 355.64 210.26 355.43 210.14L355.46 210.17ZM270 253.35C269.876 253.286 269.739 253.253 269.6 253.253C269.461 253.253 269.324 253.286 269.2 253.35L262.42 257.26C262.19 257.4 262.16 257.61 262.37 257.73L267.64 260.73C267.765 260.794 267.904 260.828 268.045 260.828C268.186 260.828 268.325 260.794 268.45 260.73L275.23 256.82C275.46 256.68 275.48 256.47 275.28 256.35L270 253.35ZM290.35 241.6C290.226 241.536 290.089 241.503 289.95 241.503C289.811 241.503 289.674 241.536 289.55 241.6L281.07 246.49C280.84 246.63 280.82 246.84 281.02 246.96L286.3 249.96C286.424 250.024 286.561 250.057 286.7 250.057C286.839 250.057 286.976 250.024 287.1 249.96L295.58 245.07C295.81 244.93 295.83 244.73 295.58 244.61L290.35 241.6ZM251.35 264.12C251.226 264.056 251.089 264.023 250.95 264.023C250.811 264.023 250.674 264.056 250.55 264.12L205.19 290.31C204.96 290.44 204.93 290.65 205.14 290.77L210.41 293.77C210.534 293.834 210.671 293.867 210.81 293.867C210.949 293.867 211.086 293.834 211.21 293.77L256.58 267.59C256.81 267.45 256.83 267.24 256.58 267.12L251.35 264.12ZM203.45 291.78C203.326 291.718 203.189 291.686 203.05 291.686C202.911 291.686 202.774 291.718 202.65 291.78L195.86 295.7C195.63 295.84 195.61 296.04 195.86 296.16L201.13 299.21C201.254 299.272 201.391 299.304 201.53 299.304C201.669 299.304 201.806 299.272 201.93 299.21L208.71 295.29C208.94 295.16 208.97 294.95 208.76 294.83L203.45 291.78ZM260.68 258.78C260.556 258.716 260.419 258.683 260.28 258.683C260.141 258.683 260.004 258.716 259.88 258.78L253.09 262.7C252.86 262.83 252.84 263.04 253.09 263.16L258.36 266.16C258.484 266.224 258.621 266.257 258.76 266.257C258.899 266.257 259.036 266.224 259.16 266.16L265.94 262.24C266.18 262.11 266.2 261.9 265.99 261.78L260.68 258.78ZM194.12 297.2C193.996 297.136 193.859 297.103 193.72 297.103C193.581 297.103 193.444 297.136 193.32 297.2L186.54 301.11C186.3 301.25 186.28 301.46 186.54 301.58L191.81 304.58C191.934 304.644 192.071 304.677 192.21 304.677C192.349 304.677 192.486 304.644 192.61 304.58L199.39 300.67C199.63 300.53 199.65 300.33 199.39 300.21L194.12 297.2ZM279.36 248C279.236 247.938 279.099 247.906 278.96 247.906C278.821 247.906 278.684 247.938 278.56 248L271.78 251.92C271.54 252.05 271.52 252.26 271.78 252.38L277.05 255.43C277.174 255.492 277.311 255.524 277.45 255.524C277.589 255.524 277.726 255.492 277.85 255.43L284.63 251.51C284.87 251.38 284.89 251.17 284.68 251.05L279.36 248ZM308.19 231.35C308.066 231.286 307.929 231.253 307.79 231.253C307.651 231.253 307.514 231.286 307.39 231.35L301.87 234.53C301.64 234.67 301.62 234.87 301.87 234.99L307.1 238C307.224 238.064 307.361 238.097 307.5 238.097C307.639 238.097 307.776 238.064 307.9 238L313.41 234.82C313.65 234.68 313.67 234.48 313.41 234.36L308.19 231.35ZM326.19 218.76L331.7 215.58C331.93 215.44 331.96 215.24 331.75 215.12L326.47 212.12C326.345 212.059 326.209 212.027 326.07 212.027C325.931 212.027 325.794 212.059 325.67 212.12L320.16 215.3C319.93 215.44 319.91 215.64 320.16 215.77L325.43 218.77C325.557 218.828 325.696 218.855 325.835 218.848C325.974 218.841 326.11 218.8 326.23 218.73L326.19 218.76ZM293.32 220.34L298.83 217.16C299.06 217.03 299.09 216.82 298.88 216.7L293.61 213.7C293.484 213.638 293.345 213.606 293.205 213.606C293.065 213.606 292.926 213.638 292.8 213.7L287.29 216.89C287.06 217.02 287.04 217.23 287.29 217.35L292.56 220.35C292.687 220.408 292.826 220.435 292.965 220.428C293.104 220.421 293.24 220.38 293.36 220.31L293.32 220.34ZM272 250.06L288.1 240.76C288.34 240.62 288.36 240.42 288.15 240.3L282.88 237.25C282.756 237.188 282.619 237.156 282.48 237.156C282.341 237.156 282.204 237.188 282.08 237.25L265.97 246.55C265.74 246.69 265.71 246.89 265.92 247.01L271.19 250.01C271.311 250.082 271.448 250.124 271.589 250.133C271.73 250.141 271.871 250.117 272 250.06ZM317.4 223.41C317.524 223.474 317.661 223.507 317.8 223.507C317.939 223.507 318.076 223.474 318.2 223.41L323.71 220.23C323.95 220.09 323.97 219.89 323.76 219.77L318.49 216.72C318.366 216.658 318.229 216.626 318.09 216.626C317.951 216.626 317.814 216.658 317.69 216.72L312.18 219.9C311.94 220.04 311.92 220.25 312.18 220.37L317.4 223.41ZM310.64 219L316.15 215.82C316.39 215.69 316.41 215.48 316.2 215.36L310.93 212.36C310.806 212.298 310.669 212.266 310.53 212.266C310.391 212.266 310.254 212.298 310.13 212.36L304.62 215.54C304.38 215.68 304.36 215.89 304.57 216.01L309.84 219.01C309.964 219.073 310.102 219.104 310.241 219.102C310.38 219.101 310.517 219.066 310.64 219V219ZM263.91 254.68L269.42 251.5C269.66 251.36 269.68 251.16 269.47 251.04L264.2 248C264.076 247.936 263.939 247.903 263.8 247.903C263.661 247.903 263.524 247.936 263.4 248L257.88 251.18C257.65 251.32 257.63 251.52 257.88 251.64L263.15 254.69C263.267 254.751 263.396 254.784 263.528 254.787C263.659 254.791 263.79 254.764 263.91 254.71V254.68ZM299.57 233.68C299.694 233.744 299.831 233.777 299.97 233.777C300.109 233.777 300.246 233.744 300.37 233.68L305.88 230.5C306.11 230.36 306.13 230.16 305.93 230.04L300.65 227.04C300.525 226.979 300.389 226.947 300.25 226.947C300.111 226.947 299.974 226.979 299.85 227.04L294.34 230.22C294.11 230.36 294.09 230.56 294.34 230.69L299.57 233.68ZM223.64 278L229.15 274.82C229.38 274.69 229.4 274.48 229.15 274.36L223.87 271.31C223.745 271.249 223.609 271.217 223.47 271.217C223.331 271.217 223.194 271.249 223.07 271.31L217.56 274.49C217.33 274.63 217.31 274.84 217.51 274.96L222.79 277.96C222.916 278.039 223.061 278.084 223.21 278.091C223.359 278.098 223.507 278.067 223.64 278V278ZM231.69 273.35L237.2 270.17C237.44 270.04 237.46 269.83 237.25 269.71L232 266.62C231.876 266.558 231.739 266.526 231.6 266.526C231.461 266.526 231.324 266.558 231.2 266.62L225.69 269.8C225.45 269.94 225.43 270.15 225.69 270.27L230.96 273.27C231.071 273.329 231.194 273.364 231.321 273.37C231.447 273.377 231.573 273.357 231.69 273.31V273.35ZM215.58 282.65L221.09 279.47C221.33 279.34 221.35 279.13 221.09 279.01L215.82 276.01C215.696 275.948 215.559 275.916 215.42 275.916C215.281 275.916 215.144 275.948 215.02 276.01L209.51 279.19C209.27 279.33 209.25 279.54 209.46 279.66L214.73 282.66C214.864 282.725 215.013 282.755 215.161 282.746C215.31 282.737 215.454 282.691 215.58 282.61V282.65ZM247.8 264L253.31 260.82C253.55 260.68 253.57 260.48 253.36 260.36L248.09 257.31C247.966 257.248 247.829 257.216 247.69 257.216C247.551 257.216 247.414 257.248 247.29 257.31L241.78 260.49C241.54 260.63 241.52 260.83 241.78 260.95L247 264C247.124 264.064 247.261 264.097 247.4 264.097C247.539 264.097 247.676 264.064 247.8 264ZM239.75 268.65L245.26 265.47C245.49 265.34 245.51 265.13 245.31 265.01L240 262C239.876 261.938 239.739 261.906 239.6 261.906C239.461 261.906 239.324 261.938 239.2 262L233.69 265.18C233.46 265.32 233.44 265.53 233.64 265.65L238.92 268.65C239.046 268.721 239.189 268.759 239.334 268.76C239.479 268.762 239.622 268.728 239.75 268.66V268.65ZM255.86 259.35L261.37 256.17C261.6 256.03 261.62 255.83 261.37 255.71L256.1 252.66C255.976 252.596 255.839 252.563 255.7 252.563C255.561 252.563 255.424 252.596 255.3 252.66L249.79 255.84C249.56 255.98 249.53 256.18 249.74 256.3L255.02 259.35C255.148 259.423 255.292 259.461 255.439 259.463C255.586 259.465 255.73 259.429 255.86 259.36V259.35ZM299.81 194.66C299.934 194.724 300.071 194.757 300.21 194.757C300.349 194.757 300.486 194.724 300.61 194.66L306.12 191.48C306.36 191.34 306.38 191.14 306.17 191.02L304.77 190.21C304.646 190.148 304.509 190.116 304.37 190.116C304.231 190.116 304.094 190.148 303.97 190.21L298.45 193.4C298.22 193.53 298.2 193.74 298.45 193.86L299.81 194.66ZM259.81 220.01C259.934 220.071 260.071 220.103 260.21 220.103C260.349 220.103 260.485 220.071 260.61 220.01L266.12 216.83C266.35 216.69 266.37 216.48 266.12 216.36L260.85 213.36C260.726 213.296 260.589 213.263 260.45 213.263C260.311 213.263 260.174 213.296 260.05 213.36L254.54 216.54C254.31 216.67 254.29 216.88 254.49 217L259.81 220.01ZM275.92 210.71C276.044 210.771 276.181 210.803 276.32 210.803C276.459 210.803 276.595 210.771 276.72 210.71L282.23 207.53C282.46 207.39 282.48 207.18 282.23 207.06L277 204C276.876 203.936 276.739 203.903 276.6 203.903C276.461 203.903 276.324 203.936 276.2 204L270.69 207.18C270.46 207.31 270.43 207.52 270.64 207.64L275.92 210.71ZM249.97 225.71C250.094 225.772 250.231 225.804 250.37 225.804C250.509 225.804 250.646 225.772 250.77 225.71L256.28 222.52C256.52 222.39 256.54 222.18 256.33 222.06L251 219C250.876 218.936 250.739 218.903 250.6 218.903C250.461 218.903 250.324 218.936 250.2 219L244.69 222.18C244.45 222.31 244.43 222.52 244.64 222.64L249.97 225.71ZM267.86 215.39C267.984 215.452 268.121 215.484 268.26 215.484C268.399 215.484 268.536 215.452 268.66 215.39L274.17 212.21C274.41 212.07 274.43 211.86 274.22 211.74L268.95 208.74C268.826 208.676 268.689 208.643 268.55 208.643C268.411 208.643 268.274 208.676 268.15 208.74L262.64 211.92C262.4 212.05 262.38 212.26 262.59 212.38L267.86 215.39ZM233.86 235.02C233.985 235.079 234.122 235.109 234.26 235.109C234.398 235.109 234.535 235.079 234.66 235.02L240.17 231.84C240.41 231.7 240.43 231.49 240.22 231.37L234.95 228.37C234.826 228.306 234.689 228.273 234.55 228.273C234.411 228.273 234.274 228.306 234.15 228.37L228.64 231.55C228.4 231.68 228.38 231.89 228.59 232.01L233.86 235.02ZM241.92 230.36C242.044 230.422 242.181 230.454 242.32 230.454C242.459 230.454 242.596 230.422 242.72 230.36L248.23 227.18C248.46 227.04 248.48 226.83 248.23 226.71L242.96 223.71C242.836 223.646 242.699 223.613 242.56 223.613C242.421 223.613 242.284 223.646 242.16 223.71L236.65 226.89C236.42 227.02 236.4 227.23 236.6 227.35L241.92 230.36ZM283.7 204C283.824 204.064 283.961 204.097 284.1 204.097C284.239 204.097 284.376 204.064 284.5 204L290.01 200.82C290.25 200.68 290.27 200.48 290.06 200.36L288.66 199.55C288.536 199.488 288.399 199.456 288.26 199.456C288.121 199.456 287.984 199.488 287.86 199.55L282.35 202.74C282.11 202.87 282.09 203.08 282.3 203.2L283.7 204ZM307.87 190C307.994 190.064 308.131 190.097 308.27 190.097C308.409 190.097 308.546 190.064 308.67 190L314.18 186.82C314.41 186.68 314.43 186.48 314.18 186.36L312.78 185.55C312.656 185.488 312.519 185.456 312.38 185.456C312.241 185.456 312.104 185.488 311.98 185.55L306.47 188.74C306.23 188.87 306.21 189.08 306.42 189.2L307.87 190ZM318.94 196.39C319.064 196.452 319.201 196.484 319.34 196.484C319.479 196.484 319.616 196.452 319.74 196.39L325.25 193.2C325.49 193.07 325.51 192.86 325.3 192.74L320.03 189.74C319.906 189.678 319.769 189.646 319.63 189.646C319.491 189.646 319.354 189.678 319.23 189.74L313.72 192.93C313.48 193.06 313.46 193.27 313.67 193.39L318.94 196.39ZM334.28 214.06L339.79 210.88C340.03 210.74 340.05 210.54 339.79 210.42L334.52 207.37C334.396 207.308 334.259 207.276 334.12 207.276C333.981 207.276 333.844 207.308 333.72 207.37L328.21 210.55C327.97 210.69 327.95 210.89 328.16 211.01L333.43 214.06C333.558 214.136 333.703 214.177 333.852 214.181C334.001 214.184 334.148 214.15 334.28 214.08V214.06ZM291.76 199.3C291.884 199.364 292.021 199.397 292.16 199.397C292.299 199.397 292.436 199.364 292.56 199.3L298.07 196.12C298.3 195.98 298.32 195.78 298.07 195.66L296.67 194.85C296.546 194.788 296.409 194.756 296.27 194.756C296.131 194.756 295.994 194.788 295.87 194.85L290.36 198.04C290.13 198.17 290.1 198.38 290.36 198.5L291.76 199.3ZM225.76 239.63C225.884 239.691 226.021 239.723 226.16 239.723C226.299 239.723 226.435 239.691 226.56 239.63L232.07 236.45C232.3 236.31 232.32 236.1 232.12 235.98L226.84 232.98C226.716 232.916 226.579 232.883 226.44 232.883C226.301 232.883 226.164 232.916 226.04 232.98L220.53 236.16C220.3 236.29 220.28 236.5 220.48 236.62L225.76 239.63Z" fill="#455A64"/>
  <path d="M249.61 281.19L250.74 281.84L280.76 299.16L334.13 268.35L335.24 267.71L304.1 249.74L249.61 281.19Z" fill="#37474F"/>
  <path d="M250.74 281.84L280.76 299.16L334.13 268.35L304.1 251.02L250.74 281.84Z" fill="#263238"/>
  <path d="M81.0601 146.2L68.8301 139.2C68.2901 138.88 67.8901 138.8 67.6801 138.93L66.1901 139.79C65.9301 139.94 65.9401 140.38 66.2601 141.06L69.2601 147.22L67.0401 149.22C66.8043 149.401 66.619 149.639 66.5022 149.913C66.3853 150.186 66.3408 150.485 66.373 150.78C66.4052 151.075 66.5129 151.358 66.6858 151.599C66.8587 151.841 67.0909 152.034 67.3601 152.16L79.5901 159.22L81.0801 158.35L81.0601 146.2Z" fill="#4299E1"/>
  <path opacity="0.5" d="M81.0601 146.2L68.8301 139.2C68.2901 138.88 67.8901 138.8 67.6801 138.93L66.1901 139.79C65.9301 139.94 65.9401 140.38 66.2601 141.06L69.2601 147.22L67.0401 149.22C66.8043 149.401 66.619 149.639 66.5022 149.913C66.3853 150.186 66.3408 150.485 66.373 150.78C66.4052 151.075 66.5129 151.358 66.6858 151.599C66.8587 151.841 67.0909 152.034 67.3601 152.16L79.5901 159.22L81.0801 158.35L81.0601 146.2Z" fill="white"/>
  <path d="M67.3399 140C66.1499 139.31 65.6599 139.76 66.2599 141L69.2599 147.16L67.0399 149.16C66.8041 149.341 66.6188 149.579 66.502 149.853C66.3851 150.126 66.3406 150.425 66.3728 150.72C66.405 151.015 66.5127 151.298 66.6856 151.539C66.8585 151.781 67.0907 151.974 67.3599 152.1L79.5899 159.16V147.07L67.3399 140Z" fill="#4299E1"/>
  <path d="M81.0001 185.11C80.8106 185.111 80.6228 185.075 80.4475 185.003C80.2722 184.931 80.1129 184.825 79.9789 184.691C79.8449 184.557 79.7389 184.398 79.667 184.223C79.5951 184.047 79.5588 183.859 79.5601 183.67V143.05C79.5902 142.69 79.7544 142.355 80.0202 142.11C80.286 141.866 80.6339 141.73 80.9951 141.73C81.3563 141.73 81.7042 141.866 81.97 142.11C82.2358 142.355 82.4 142.69 82.4301 143.05V183.67C82.4314 183.859 82.3954 184.046 82.3241 184.22C82.2529 184.395 82.1477 184.554 82.0148 184.688C81.8819 184.821 81.7238 184.928 81.5497 185C81.3755 185.073 81.1887 185.11 81.0001 185.11V185.11Z" fill="#455A64"/>
  <path d="M28.3901 293.27V290.74H29.0001C29.9501 289.034 31.3789 287.643 33.1101 286.74C39.4301 283.09 49.6701 283.09 55.9901 286.74C57.7244 287.639 59.1543 289.031 60.1001 290.74H60.7201V293.19C60.7201 295.62 59.2001 298.06 55.9901 299.91C49.6701 303.56 39.4301 303.56 33.1101 299.91C30.0001 298.08 28.3701 295.67 28.3901 293.27Z" fill="#263238"/>
  <path d="M44.5601 300.08C53.4961 300.08 60.7401 295.898 60.7401 290.74C60.7401 285.582 53.4961 281.4 44.5601 281.4C35.6242 281.4 28.3801 285.582 28.3801 290.74C28.3801 295.898 35.6242 300.08 44.5601 300.08Z" fill="#455A64"/>
  <path d="M48.7301 202.77V289.63C48.6951 289.996 48.5638 290.346 48.3495 290.645C48.1352 290.943 47.8456 291.18 47.5101 291.33C46.5977 291.794 45.5887 292.035 44.5651 292.035C43.5416 292.035 42.5326 291.794 41.6201 291.33C41.2835 291.181 40.9928 290.945 40.7782 290.646C40.5637 290.347 40.4331 289.997 40.4001 289.63V202.77H48.7301Z" fill="#37474F"/>
  <path d="M40.4001 213.28V221.45L48.7301 226.25V218.1L40.4001 213.28Z" fill="#263238"/>
  <path d="M70.6001 195L86.0001 203.9C85.9216 204.025 85.8197 204.134 85.7001 204.22L58.7601 219.77C58.5301 219.9 58.3501 219.77 58.3501 219.52V200.11C58.4242 196.376 59.187 192.687 60.6001 189.23L70.6001 195Z" fill="#4299E1"/>
  <path opacity="0.4" d="M70.6001 195L86.0001 203.9C85.9216 204.025 85.8197 204.134 85.7001 204.22L58.7601 219.77C58.5301 219.9 58.3501 219.77 58.3501 219.52V200.11C58.4242 196.376 59.187 192.687 60.6001 189.23L70.6001 195Z" fill="black"/>
  <path d="M86.1201 182.25V204L60.6001 189.24L60.6901 189.03C63.4201 182.19 68.0001 176.4 73.0001 173.52C74.7332 172.428 76.7231 171.81 78.7701 171.73C83.3101 171.73 86.1201 175.76 86.1201 182.25Z" fill="#4299E1"/>
  <path opacity="0.3" d="M86.1201 182.25V204L60.6001 189.24L60.6901 189.03C63.4201 182.19 68.0001 176.4 73.0001 173.52C74.7332 172.428 76.7231 171.81 78.7701 171.73C83.3101 171.73 86.1201 175.76 86.1201 182.25Z" fill="black"/>
  <path d="M113.83 228.22V226.28H113.64V226.56C113.525 226.021 113.358 225.496 113.14 224.99C112.14 222.61 109.97 220.33 106.7 218.44L88.47 207.91C88.0427 207.698 87.5721 207.587 87.095 207.587C86.6179 207.587 86.1472 207.698 85.72 207.91L57.84 224C57.4962 223.715 57.1993 223.377 56.96 223V225C56.9771 225.17 57.0376 225.333 57.1357 225.473C57.2337 225.613 57.366 225.726 57.52 225.8L75.76 236.32C81.11 239.193 87.1197 240.614 93.19 240.44C98.2458 240.496 103.235 239.282 107.7 236.91C111.8 234.56 113.82 231.43 113.82 228.24L113.83 228.22Z" fill="#4299E1"/>
  <path opacity="0.4" d="M113.83 228.22V226.28H113.64V226.56C113.525 226.021 113.358 225.496 113.14 224.99C112.14 222.61 109.97 220.33 106.7 218.44L88.47 207.91C88.0427 207.698 87.5721 207.587 87.095 207.587C86.6179 207.587 86.1472 207.698 85.72 207.91L57.84 224C57.4962 223.715 57.1993 223.377 56.96 223V225C56.9771 225.17 57.0376 225.333 57.1357 225.473C57.2337 225.613 57.366 225.726 57.52 225.8L75.76 236.32C81.11 239.193 87.1197 240.614 93.19 240.44C98.2458 240.496 103.235 239.282 107.7 236.91C111.8 234.56 113.82 231.43 113.82 228.24L113.83 228.22Z" fill="black"/>
  <path d="M113.14 225C112.14 222.62 109.97 220.34 106.7 218.45L88.4701 207.92C88.0428 207.708 87.5722 207.597 87.0951 207.597C86.618 207.597 86.1474 207.708 85.7201 207.92L57.8401 224L75.7601 234.34C81.112 237.208 87.1204 238.628 93.1901 238.46C98.2454 238.511 103.233 237.298 107.7 234.93C111.38 232.81 113.39 230.08 113.76 227.23C113.661 226.461 113.452 225.71 113.14 225V225Z" fill="#4299E1"/>
  <path opacity="0.2" d="M113.14 225C112.14 222.62 109.97 220.34 106.7 218.45L88.4701 207.92C88.0428 207.708 87.5722 207.597 87.0951 207.597C86.618 207.597 86.1474 207.708 85.7201 207.92L57.8401 224L75.7601 234.34C81.112 237.208 87.1204 238.628 93.1901 238.46C98.2454 238.511 103.233 237.298 107.7 234.93C111.38 232.81 113.39 230.08 113.76 227.23C113.661 226.461 113.452 225.71 113.14 225V225Z" fill="black"/>
  <path d="M113.76 227.24C113.663 226.464 113.454 225.706 113.14 224.99C112.14 222.61 109.97 220.33 106.7 218.44L88.4699 207.91C88.0427 207.698 87.572 207.587 87.0949 207.587C86.6178 207.587 86.1472 207.698 85.7199 207.91L57.8399 224L57.5199 223.82C57.354 223.763 57.21 223.656 57.108 223.514C57.006 223.371 56.9512 223.2 56.9512 223.025C56.9512 222.85 57.006 222.679 57.108 222.536C57.21 222.394 57.354 222.287 57.5199 222.23L85.7199 206C86.1451 205.781 86.6165 205.666 87.0949 205.666C87.5733 205.666 88.0447 205.781 88.4699 206L106.7 216.53C109.97 218.42 112.12 220.7 113.14 223.08C113.475 223.839 113.69 224.645 113.78 225.47C113.845 226.059 113.838 226.653 113.76 227.24V227.24Z" fill="#4299E1"/>
  <path opacity="0.3" d="M113.76 227.24C113.663 226.464 113.454 225.706 113.14 224.99C112.14 222.61 109.97 220.33 106.7 218.44L88.4699 207.91C88.0427 207.698 87.572 207.587 87.0949 207.587C86.6178 207.587 86.1472 207.698 85.7199 207.91L57.8399 224L57.5199 223.82C57.354 223.763 57.21 223.656 57.108 223.514C57.006 223.371 56.9512 223.2 56.9512 223.025C56.9512 222.85 57.006 222.679 57.108 222.536C57.21 222.394 57.354 222.287 57.5199 222.23L85.7199 206C86.1451 205.781 86.6165 205.666 87.0949 205.666C87.5733 205.666 88.0447 205.781 88.4699 206L106.7 216.53C109.97 218.42 112.12 220.7 113.14 223.08C113.475 223.839 113.69 224.645 113.78 225.47C113.845 226.059 113.838 226.653 113.76 227.24V227.24Z" fill="black"/>
  <path d="M58.1401 221.96L86.3301 205.68L85.7001 204.21L58.7601 219.77L58.1401 221.96Z" fill="#4299E1"/>
  <path opacity="0.1" d="M58.1401 221.96L86.3301 205.68L85.7001 204.21L58.7601 219.77L58.1401 221.96Z" fill="black"/>
  <path d="M83.6301 181C83.6183 180.767 83.5514 180.541 83.4349 180.339C83.3184 180.138 83.1557 179.967 82.9601 179.84L48.6401 160C48.4335 159.891 48.2036 159.835 47.9701 159.835C47.7367 159.835 47.5067 159.891 47.3001 160L46.5401 160.44C46.3445 160.567 46.1818 160.738 46.0653 160.939C45.9488 161.141 45.8819 161.367 45.8701 161.6V187.91C45.8835 188.142 45.9511 188.368 46.0674 188.57C46.1838 188.771 46.3456 188.942 46.5401 189.07L80.8601 208.89C81.0701 208.993 81.3011 209.047 81.5351 209.047C81.7692 209.047 82.0001 208.993 82.2101 208.89L82.9601 208.45C83.1546 208.322 83.3165 208.151 83.4328 207.95C83.5492 207.748 83.6167 207.522 83.6301 207.29V181Z" fill="#F5F5F5"/>
  <path d="M83.4401 180.3L81.5301 181.4L46.0701 160.92C46.1804 160.713 46.3423 160.537 46.5401 160.41L47.3001 159.98C47.5067 159.871 47.7366 159.815 47.9701 159.815C48.2035 159.815 48.4334 159.871 48.6401 159.98L83.0001 179.8C83.188 179.925 83.3397 180.098 83.4401 180.3V180.3Z" fill="#E0E0E0"/>
  <path d="M81.5401 181.39L81.1901 181.6C81.3002 181.647 81.3929 181.728 81.4556 181.83C81.5182 181.932 81.5478 182.051 81.5401 182.17V208.48C81.5499 208.566 81.5353 208.652 81.4982 208.73C81.4611 208.808 81.4028 208.874 81.3301 208.92C81.2272 208.96 81.113 208.96 81.0101 208.92L80.8701 208.86L46.5401 189.05C46.3462 188.922 46.1847 188.75 46.0684 188.549C45.9522 188.348 45.8843 188.122 45.8701 187.89V161.58C45.879 161.343 45.9479 161.113 46.0701 160.91L81.5401 181.39Z" fill="#EBEBEB"/>
  <path opacity="0.2" d="M81.5301 181.4L65.6401 187.33C65.0912 187.539 64.4871 187.554 63.9285 187.372C63.3699 187.19 62.8905 186.823 62.5701 186.33L60.0001 182.41L45.9401 160.84L59.5101 182.56L45.8701 187.9C45.8783 188.138 45.9509 188.37 46.0801 188.57L59.5501 182.62L62.5501 187.37C62.8797 187.898 63.3887 188.29 63.9837 188.474C64.5788 188.658 65.2201 188.621 65.7901 188.37L67.9001 187.44L81.3701 208.93C81.4394 208.881 81.4944 208.814 81.5295 208.737C81.5647 208.66 81.5787 208.575 81.5701 208.49V208L67.9301 187.4L81.5301 181.4Z" fill="black"/>
  <path d="M75.51 185.61C75.4958 185.378 75.4279 185.152 75.3117 184.951C75.1954 184.75 75.0339 184.578 74.84 184.45L40.51 164.64C40.3034 164.531 40.0734 164.475 39.84 164.475C39.6065 164.475 39.3766 164.531 39.17 164.64L38.41 165.07C38.2161 165.198 38.0546 165.37 37.9383 165.571C37.822 165.772 37.7541 165.998 37.74 166.23V192.54C37.7549 192.773 37.823 193 37.9392 193.203C38.0553 193.406 38.2164 193.579 38.41 193.71L72.74 213.52C72.9466 213.629 73.1766 213.685 73.41 213.685C73.6434 213.685 73.8734 213.629 74.08 213.52L74.84 213.09C75.0339 212.962 75.1954 212.79 75.3117 212.589C75.4279 212.388 75.4958 212.162 75.51 211.93V185.61Z" fill="#F5F5F5"/>
  <path d="M75.3099 185L73.4099 186.1L37.9399 165.57C38.0534 165.367 38.2148 165.196 38.4099 165.07L39.1699 164.64C39.3766 164.531 39.6065 164.475 39.8399 164.475C40.0734 164.475 40.3033 164.531 40.5099 164.64L74.8399 184.45C75.0415 184.59 75.2034 184.779 75.3099 185V185Z" fill="#E0E0E0"/>
  <path d="M73.41 186.05L73.06 186.26C73.17 186.307 73.2628 186.387 73.3254 186.49C73.3881 186.592 73.4176 186.711 73.41 186.83V213.14C73.4197 213.226 73.4052 213.312 73.3681 213.39C73.3309 213.468 73.2727 213.534 73.2 213.58C73.0971 213.62 72.9829 213.62 72.88 213.58L72.74 213.52L38.41 193.71C38.2161 193.582 38.0546 193.41 37.9383 193.209C37.822 193.008 37.7541 192.782 37.74 192.55V166.24C37.7489 166.003 37.8177 165.773 37.94 165.57L73.41 186.05Z" fill="#EBEBEB"/>
  <path opacity="0.2" d="M73.41 186.05L57.51 192C56.9621 192.205 56.3609 192.217 55.8049 192.036C55.2489 191.854 54.7711 191.489 54.45 191L51.89 187.09L37.81 165.5L51.38 187.22L37.74 192.56C37.7605 192.796 37.8321 193.025 37.95 193.23L51.42 187.23L54.42 191.98C54.7493 192.506 55.2565 192.896 55.8493 193.08C56.4421 193.263 57.0811 193.228 57.65 192.98L59.77 192.05L73.2 213.58C73.2727 213.534 73.3309 213.468 73.3681 213.39C73.4052 213.312 73.4197 213.226 73.41 213.14V212.7L59.8 192.06L73.41 186.05Z" fill="black"/>
  <path d="M67.3801 190.27C67.3683 190.037 67.3014 189.811 67.1849 189.609C67.0684 189.408 66.9057 189.236 66.7101 189.11L32.3901 169.29C32.182 169.186 31.9527 169.132 31.7201 169.132C31.4876 169.132 31.2582 169.186 31.0501 169.29L30.2901 169.73C30.0945 169.856 29.9318 170.028 29.8153 170.229C29.6988 170.431 29.6319 170.657 29.6201 170.89V197.2C29.6319 197.433 29.6988 197.659 29.8153 197.861C29.9318 198.062 30.0945 198.234 30.2901 198.36L64.6101 218.18C64.8202 218.283 65.0511 218.337 65.2851 218.337C65.5192 218.337 65.7501 218.283 65.9601 218.18L66.7101 217.74C66.9057 217.614 67.0684 217.442 67.1849 217.241C67.3014 217.039 67.3683 216.813 67.3801 216.58V190.27Z" fill="#F5F5F5"/>
  <path d="M67.1901 189.61L65.2801 190.71L29.8201 170.23C29.9307 170.025 30.0927 169.853 30.2901 169.73L31.0501 169.29C31.2581 169.186 31.4875 169.132 31.7201 169.132C31.9526 169.132 32.182 169.186 32.3901 169.29L66.7101 189.11C66.9106 189.232 67.0759 189.405 67.1901 189.61Z" fill="#E0E0E0"/>
  <path d="M65.1301 218.32C65.1728 218.331 65.2174 218.331 65.2601 218.32C65.2404 218.331 65.2179 218.337 65.1951 218.337C65.1723 218.337 65.1499 218.331 65.1301 218.32V218.32Z" fill="#4299E1"/>
  <path d="M65.2901 190.7L64.9401 190.91C65.0502 190.957 65.1429 191.037 65.2056 191.139C65.2682 191.242 65.2978 191.36 65.2901 191.48V217.8C65.2991 217.884 65.2842 217.969 65.247 218.045C65.2099 218.121 65.152 218.185 65.0801 218.23C64.9772 218.27 64.863 218.27 64.7601 218.23L64.6201 218.18L30.2901 198.36C30.0945 198.234 29.9318 198.062 29.8153 197.861C29.6988 197.659 29.6319 197.433 29.6201 197.2V170.9C29.629 170.663 29.6979 170.433 29.8201 170.23L65.2901 190.7Z" fill="#EBEBEB"/>
  <path opacity="0.2" d="M65.2801 190.71L49.3901 196.65C48.8408 196.856 48.2379 196.869 47.6802 196.687C47.1225 196.505 46.643 196.14 46.3201 195.65L43.7701 191.74L29.6901 170.16L43.2601 191.87L29.6201 197.21C29.6283 197.448 29.7009 197.68 29.8301 197.88L43.3001 191.93L46.3001 196.68C46.6297 197.208 47.1387 197.6 47.7337 197.784C48.3288 197.968 48.9701 197.931 49.5401 197.68L51.6501 196.74L65.1201 218.23C65.191 218.183 65.2472 218.116 65.2826 218.039C65.3179 217.961 65.3309 217.875 65.3201 217.79V217.35L51.7201 196.71L65.2801 190.71Z" fill="black"/>
  <path d="M82.55 171C79.82 169.57 76.2 169.82 72.24 172.12C67.79 174.67 63.78 179.31 60.97 184.62C60.3167 185.851 59.7292 187.116 59.21 188.41C57.6669 192.111 56.8357 196.071 56.76 200.08V222.3C56.2831 222.305 55.8125 222.191 55.39 221.97L15.9 199.15C15.5026 198.887 15.1719 198.535 14.9341 198.122C14.6963 197.709 14.558 197.246 14.53 196.77V175.71C14.53 165.19 21.46 152.71 30 147.71C34 145.37 37.73 145.18 40.49 146.71L82.55 171Z" fill="#4299E1"/>
  <path opacity="0.2" d="M82.55 171C79.82 169.57 76.2 169.82 72.24 172.12C67.79 174.67 63.78 179.31 60.97 184.62C60.3167 185.851 59.7292 187.116 59.21 188.41C57.6669 192.111 56.8357 196.071 56.76 200.08V222.3C56.2831 222.305 55.8125 222.191 55.39 221.97L15.9 199.15C15.5026 198.887 15.1719 198.535 14.9341 198.122C14.6963 197.709 14.558 197.246 14.53 196.77V175.71C14.53 165.19 21.46 152.71 30 147.71C34 145.37 37.73 145.18 40.49 146.71L82.55 171Z" fill="black"/>
  <path opacity="0.1" d="M15.9 199.15L55.39 222C55.8125 222.221 56.2831 222.335 56.76 222.33V200.11C56.7745 198.019 57.0227 195.936 57.5 193.9L15.26 169.51C14.7908 171.544 14.546 173.623 14.53 175.71V196.77C14.558 197.246 14.6963 197.709 14.9341 198.122C15.1719 198.535 15.5026 198.887 15.9 199.15V199.15Z" fill="black"/>
  <path d="M59.21 188.44C57.6669 192.141 56.8357 196.1 56.76 200.11V222.3C56.5919 222.295 56.4245 222.275 56.26 222.24C56.26 220.97 56.26 213.85 56.26 200.11C56.26 183.8 68.81 173.43 72.26 172.11C67.81 174.66 63.8 179.3 60.99 184.61C60.3285 185.854 59.7344 187.132 59.21 188.44V188.44Z" fill="#4299E1"/>
  <path opacity="0.4" d="M59.21 188.44C57.6669 192.141 56.8357 196.1 56.76 200.11V222.3C56.5919 222.295 56.4245 222.275 56.26 222.24C56.26 220.97 56.26 213.85 56.26 200.11C56.26 183.8 68.81 173.43 72.26 172.11C67.81 174.66 63.8 179.3 60.99 184.61C60.3285 185.854 59.7344 187.132 59.21 188.44V188.44Z" fill="black"/>
  <path d="M58.7599 219.77C58.5399 219.9 58.3499 219.77 58.3499 219.53V200.12C58.422 196.385 59.1849 192.697 60.5999 189.24L60.6899 189.03C61.2353 187.66 61.8632 186.324 62.5699 185.03C65.2999 180 68.9999 175.82 72.9999 173.52C74.733 172.428 76.7229 171.81 78.7699 171.73C79.8149 171.722 80.8455 171.973 81.7699 172.46C84.4699 173.9 86.0499 177.38 86.0499 182.25V203.5C86.0411 203.642 85.9995 203.78 85.9284 203.903C85.8573 204.026 85.7585 204.131 85.6399 204.21L86.2599 205.68L86.3999 205.6C86.6134 205.443 86.8051 205.258 86.9699 205.05V205.05C87.3688 204.555 87.5999 203.945 87.6299 203.31V182.25C87.6299 176.62 85.6299 172.7 82.4799 171.04C79.7499 169.6 76.1299 169.85 72.1699 172.15C67.7199 174.7 63.7099 179.33 60.8999 184.66C60.2469 185.888 59.6594 187.15 59.1399 188.44C57.5949 192.144 56.7636 196.107 56.6899 200.12V222.29H56.9999C57.3987 222.267 57.7877 222.158 58.1399 221.97L58.7599 219.77Z" fill="#4299E1"/>
  <path opacity="0.1" d="M58.7599 219.77C58.5399 219.9 58.3499 219.77 58.3499 219.53V200.12C58.422 196.385 59.1849 192.697 60.5999 189.24L60.6899 189.03C61.2353 187.66 61.8632 186.324 62.5699 185.03C65.2999 180 68.9999 175.82 72.9999 173.52C74.733 172.428 76.7229 171.81 78.7699 171.73C79.8149 171.722 80.8455 171.973 81.7699 172.46C84.4699 173.9 86.0499 177.38 86.0499 182.25V203.5C86.0411 203.642 85.9995 203.78 85.9284 203.903C85.8573 204.026 85.7585 204.131 85.6399 204.21L86.2599 205.68L86.3999 205.6C86.6134 205.443 86.8051 205.258 86.9699 205.05V205.05C87.3688 204.555 87.5999 203.945 87.6299 203.31V182.25C87.6299 176.62 85.6299 172.7 82.4799 171.04C79.7499 169.6 76.1299 169.85 72.1699 172.15C67.7199 174.7 63.7099 179.33 60.8999 184.66C60.2469 185.888 59.6594 187.15 59.1399 188.44C57.5949 192.144 56.7636 196.107 56.6899 200.12V222.29H56.9999C57.3987 222.267 57.7877 222.158 58.1399 221.97L58.7599 219.77Z" fill="black"/>
  <path d="M152.94 162.88C152.986 161.978 153.246 161.099 153.698 160.317C154.15 159.535 154.781 158.871 155.54 158.38L283.71 84.3799C284.516 83.9707 285.406 83.7573 286.31 83.7573C287.214 83.7573 288.104 83.9707 288.91 84.3799L291.84 86.0699C292.595 86.5637 293.223 87.2285 293.673 88.0104C294.123 88.7922 294.382 89.6691 294.43 90.5699V192.45C294.38 193.35 294.119 194.226 293.67 195.008C293.22 195.789 292.593 196.454 291.84 196.95L163.66 271C162.855 271.405 161.966 271.615 161.065 271.615C160.164 271.615 159.275 271.405 158.47 271L155.54 269.31C154.785 268.815 154.156 268.151 153.705 267.369C153.253 266.588 152.991 265.711 152.94 264.81V162.88Z" fill="#4299E1"/>
  <g opacity="0.7">
    <path opacity="0.7" d="M152.94 162.88C152.986 161.978 153.246 161.099 153.698 160.317C154.15 159.535 154.781 158.871 155.54 158.38L283.71 84.3799C284.516 83.9707 285.406 83.7573 286.31 83.7573C287.214 83.7573 288.104 83.9707 288.91 84.3799L291.84 86.0699C292.595 86.5637 293.223 87.2285 293.673 88.0104C294.123 88.7922 294.382 89.6691 294.43 90.5699V192.45C294.38 193.35 294.119 194.226 293.67 195.008C293.22 195.789 292.593 196.454 291.84 196.95L163.66 271C162.855 271.405 161.966 271.615 161.065 271.615C160.164 271.615 159.275 271.405 158.47 271L155.54 269.31C154.785 268.815 154.156 268.151 153.705 267.369C153.253 266.588 152.991 265.711 152.94 264.81V162.88Z" fill="white"/>
  </g>
  <path d="M153.7 160.32L161.07 164.57L293.67 88C293.23 87.2115 292.601 86.5448 291.84 86.06L288.9 84.38C288.099 83.9661 287.211 83.7501 286.31 83.7501C285.409 83.7501 284.521 83.9661 283.72 84.38L155.54 158.38C154.769 158.856 154.134 159.525 153.7 160.32Z" fill="#4299E1"/>
  <path opacity="0.8" d="M153.7 160.32L161.07 164.57L293.67 88C293.23 87.2115 292.601 86.5448 291.84 86.06L288.9 84.38C288.099 83.9661 287.211 83.7501 286.31 83.7501C285.409 83.7501 284.521 83.9661 283.72 84.38L155.54 158.38C154.769 158.856 154.134 159.525 153.7 160.32Z" fill="white"/>
  <path opacity="0.1" d="M152.94 162.87V264.75C152.986 265.652 153.246 266.531 153.698 267.313C154.15 268.095 154.781 268.759 155.54 269.25L158.47 270.95C158.697 271.077 158.935 271.184 159.18 271.27C159.528 271.384 159.886 271.464 160.25 271.51C160.933 271.597 161.625 271.573 162.3 271.44L162.81 271.31L163.13 271.2C162.928 271.281 162.712 271.318 162.495 271.309C162.278 271.3 162.065 271.246 161.87 271.15C161.591 270.969 161.369 270.715 161.227 270.414C161.086 270.114 161.031 269.78 161.07 269.45V167.57C161.043 167.108 161.158 166.649 161.399 166.254C161.64 165.859 161.996 165.547 162.42 165.36L161.07 164.57L153.7 160.32C153.233 161.091 152.972 161.969 152.94 162.87V162.87Z" fill="#4299E1"/>
  <path opacity="0.05" d="M152.94 162.87V264.75C152.986 265.652 153.246 266.531 153.698 267.313C154.15 268.095 154.781 268.759 155.54 269.25L158.47 270.95C158.697 271.077 158.935 271.184 159.18 271.27C159.528 271.384 159.886 271.464 160.25 271.51C160.933 271.597 161.625 271.573 162.3 271.44L162.81 271.31L163.13 271.2C162.928 271.281 162.712 271.318 162.495 271.309C162.278 271.3 162.065 271.246 161.87 271.15C161.591 270.969 161.369 270.715 161.227 270.414C161.086 270.114 161.031 269.78 161.07 269.45V167.57C161.043 167.108 161.158 166.649 161.399 166.254C161.64 165.859 161.996 165.547 162.42 165.36L161.07 164.57L153.7 160.32C153.233 161.091 152.972 161.969 152.94 162.87V162.87Z" fill="black"/>
  <path opacity="0.2" d="M161.07 164.57L222.62 187.57C224.75 188.366 227.087 188.412 229.247 187.701C231.406 186.991 233.259 185.565 234.5 183.66L244.38 168.51L293.67 88L246.35 169.07L294.43 192.48C294.385 193.401 294.106 194.296 293.62 195.08L246.2 169.32L234.72 187.7C233.445 189.743 231.475 191.257 229.174 191.964C226.872 192.672 224.392 192.524 222.19 191.55L214 187.94L161.85 271.15C161.571 270.969 161.349 270.715 161.207 270.414C161.066 270.114 161.011 269.78 161.05 269.45V267.75L213.74 187.83L161.07 164.57Z" fill="#4299E1"/>
  <path opacity="0.05" d="M161.07 164.57L222.62 187.57C224.75 188.366 227.087 188.412 229.247 187.701C231.406 186.991 233.259 185.565 234.5 183.66L244.38 168.51L293.67 88L246.35 169.07L294.43 192.48C294.385 193.401 294.106 194.296 293.62 195.08L246.2 169.32L234.72 187.7C233.445 189.743 231.475 191.257 229.174 191.964C226.872 192.672 224.392 192.524 222.19 191.55L214 187.94L161.85 271.15C161.571 270.969 161.349 270.715 161.207 270.414C161.066 270.114 161.011 269.78 161.05 269.45V267.75L213.74 187.83L161.07 164.57Z" fill="black"/>
  <path d="M185.44 181.66C185.488 180.759 185.747 179.882 186.197 179.1C186.647 178.319 187.275 177.654 188.03 177.16L316.21 103.16C317.014 102.751 317.903 102.537 318.805 102.537C319.707 102.537 320.596 102.751 321.4 103.16L324.33 104.85C325.087 105.343 325.717 106.007 326.168 106.789C326.62 107.571 326.881 108.448 326.93 109.35V211.23C326.879 212.131 326.618 213.008 326.166 213.79C325.715 214.572 325.086 215.236 324.33 215.73L196.16 289.73C195.353 290.135 194.463 290.345 193.56 290.345C192.657 290.345 191.767 290.135 190.96 289.73L188 288C187.248 287.503 186.622 286.838 186.172 286.057C185.723 285.275 185.462 284.4 185.41 283.5L185.44 181.66Z" fill="#4299E1"/>
  <g opacity="0.5">
    <path opacity="0.5" d="M185.44 181.66C185.488 180.759 185.747 179.882 186.197 179.1C186.647 178.319 187.275 177.654 188.03 177.16L316.21 103.16C317.014 102.751 317.903 102.537 318.805 102.537C319.707 102.537 320.596 102.751 321.4 103.16L324.33 104.85C325.087 105.343 325.717 106.007 326.168 106.789C326.62 107.571 326.881 108.448 326.93 109.35V211.23C326.879 212.131 326.618 213.008 326.166 213.79C325.715 214.572 325.086 215.236 324.33 215.73L196.16 289.73C195.353 290.135 194.463 290.345 193.56 290.345C192.657 290.345 191.767 290.135 190.96 289.73L188 288C187.248 287.503 186.622 286.838 186.172 286.057C185.723 285.275 185.462 284.4 185.41 283.5L185.44 181.66Z" fill="white"/>
  </g>
  <path d="M186.19 179.1L193.57 183.35L326.17 106.79C325.73 106.001 325.101 105.335 324.34 104.85L321.4 103.17C320.598 102.756 319.708 102.54 318.805 102.54C317.902 102.54 317.012 102.756 316.21 103.17L188 177.16C187.24 177.641 186.617 178.309 186.19 179.1V179.1Z" fill="#4299E1"/>
  <path opacity="0.6" d="M186.19 179.1L193.57 183.35L326.17 106.79C325.73 106.001 325.101 105.335 324.34 104.85L321.4 103.17C320.598 102.756 319.708 102.54 318.805 102.54C317.902 102.54 317.012 102.756 316.21 103.17L188 177.16C187.24 177.641 186.617 178.309 186.19 179.1V179.1Z" fill="white"/>
  <path opacity="0.1" d="M185.43 181.65V283.53C185.478 284.424 185.736 285.295 186.183 286.071C186.629 286.847 187.252 287.508 188 288L190.92 289.7C191.151 289.827 191.391 289.934 191.64 290.02C191.988 290.135 192.346 290.215 192.71 290.26C193.393 290.347 194.085 290.323 194.76 290.19L195.26 290.05C195.367 290.021 195.471 289.98 195.57 289.93C195.374 290.015 195.163 290.059 194.95 290.059C194.737 290.059 194.525 290.015 194.33 289.93C194.052 289.746 193.83 289.489 193.689 289.188C193.548 288.886 193.493 288.551 193.53 288.22V186.35C193.503 185.888 193.618 185.429 193.859 185.034C194.1 184.639 194.456 184.327 194.88 184.14L193.53 183.35L186.15 179.1C185.702 179.877 185.454 180.753 185.43 181.65V181.65Z" fill="black"/>
  <path opacity="0.4" d="M193.57 183.35L255.12 206.35C257.25 207.146 259.587 207.192 261.747 206.481C263.906 205.771 265.759 204.345 267 202.44L276.89 187.3L326.18 106.79L278.86 187.86L326.94 211.27C326.895 212.191 326.616 213.086 326.13 213.87L278.7 188.1L267.21 206.48C265.935 208.521 263.968 210.033 261.668 210.74C259.368 211.447 256.891 211.302 254.69 210.33L246.51 206.72L194.37 289.94C194.092 289.756 193.871 289.499 193.729 289.198C193.588 288.896 193.533 288.561 193.57 288.23V286.53L246.26 206.61L193.57 183.35Z" fill="#4299E1"/>
  <path opacity="0.05" d="M193.57 183.35L255.12 206.35C257.25 207.146 259.587 207.192 261.747 206.481C263.906 205.771 265.759 204.345 267 202.44L276.89 187.3L326.18 106.79L278.86 187.86L326.94 211.27C326.895 212.191 326.616 213.086 326.13 213.87L278.7 188.1L267.21 206.48C265.935 208.521 263.968 210.033 261.668 210.74C259.368 211.447 256.891 211.302 254.69 210.33L246.51 206.72L194.37 289.94C194.092 289.756 193.871 289.499 193.729 289.198C193.588 288.896 193.533 288.561 193.57 288.23V286.53L246.26 206.61L193.57 183.35Z" fill="black"/>
  <path d="M218.2 201.26L351.58 124.26L356.92 127.34C357.648 127.817 358.255 128.458 358.691 129.212C359.127 129.965 359.38 130.811 359.43 131.68V230.08C359.381 230.95 359.129 231.796 358.693 232.55C358.257 233.304 357.65 233.944 356.92 234.42L228.56 308.52C227.785 308.911 226.928 309.115 226.06 309.115C225.192 309.115 224.335 308.911 223.56 308.52L220.73 306.89C220.001 306.413 219.395 305.772 218.959 305.018C218.523 304.265 218.27 303.419 218.22 302.55L218.2 201.26Z" fill="#4299E1"/>
  <path opacity="0.2" d="M218.2 201.26L351.58 124.26L356.92 127.34C357.648 127.817 358.255 128.458 358.691 129.212C359.127 129.965 359.38 130.811 359.43 131.68V230.08C359.381 230.95 359.129 231.796 358.693 232.55C358.257 233.304 357.65 233.944 356.92 234.42L228.56 308.52C227.785 308.911 226.928 309.115 226.06 309.115C225.192 309.115 224.335 308.911 223.56 308.52L220.73 306.89C220.001 306.413 219.395 305.772 218.959 305.018C218.523 304.265 218.27 303.419 218.22 302.55L218.2 201.26Z" fill="black"/>
  <path d="M350.85 115.6L351.39 115.3L349.32 114.1C349.146 113.995 348.961 113.908 348.77 113.84L290.07 92.08C289.262 91.8166 288.392 91.814 287.583 92.0724C286.773 92.3308 286.066 92.8372 285.56 93.52L219.9 189.41C218.873 191.061 218.287 192.948 218.2 194.89V201.25L220.2 202.44L351.54 124.25V117.88C351.529 117.07 351.29 116.28 350.85 115.6V115.6Z" fill="#4299E1"/>
  <path opacity="0.1" d="M288.28 94.0001C288.019 94.2048 287.789 94.4475 287.6 94.7201L221.93 190.61C221.39 191.458 220.979 192.382 220.71 193.35L218.71 192.17C218.858 191.677 219.035 191.193 219.24 190.72C219.33 190.52 219.42 190.33 219.52 190.14L219.57 190.05C219.674 189.849 219.791 189.656 219.92 189.47L285.58 93.5801C285.679 93.438 285.789 93.3043 285.91 93.1801L286.26 92.8601L288.28 94.0001Z" fill="black"/>
  <path opacity="0.35" d="M351.37 115.29C351.193 115.182 351.005 115.092 350.81 115.02L292.1 93.2601C291.455 93.0454 290.765 92.9989 290.097 93.1249C289.428 93.2508 288.803 93.5452 288.28 93.9801L286.28 92.8001C286.807 92.3693 287.434 92.0777 288.103 91.9519C288.772 91.8261 289.462 91.8702 290.11 92.0801L348.81 113.83C349.002 113.902 349.186 113.992 349.36 114.1L351.37 115.29Z" fill="white"/>
  <path d="M219.55 190C219.656 189.801 219.773 189.607 219.9 189.42C219.773 189.607 219.656 189.801 219.55 190V190Z" fill="#4299E1"/>
  <path d="M285.89 93.12L286.24 92.8L285.89 93.12Z" fill="#4299E1"/>
  <path d="M218.67 192.15C218.818 191.657 218.995 191.172 219.2 190.7C218.995 191.172 218.818 191.657 218.67 192.15V192.15Z" fill="#4299E1"/>
  <path d="M219.22 190.66C219.31 190.46 219.4 190.27 219.5 190.08C219.4 190.27 219.31 190.46 219.22 190.66Z" fill="#4299E1"/>
  <path opacity="0.2" d="M219.5 190.08C219.513 190.048 219.53 190.018 219.55 189.99C219.53 190.018 219.513 190.048 219.5 190.08V190.08Z" fill="black"/>
  <path opacity="0.2" d="M285.56 93.52C285.662 93.3799 285.772 93.2463 285.89 93.12C285.767 93.242 285.656 93.376 285.56 93.52Z" fill="black"/>
  <path d="M287.6 94.7L221.93 190.59C220.911 192.244 220.329 194.13 220.24 196.07V202.44L353.62 125.44V119.08C353.573 118.217 353.284 117.385 352.787 116.678C352.291 115.971 351.606 115.417 350.81 115.08L292.1 93.27C291.295 93.0001 290.425 92.9932 289.616 93.2502C288.808 93.5073 288.101 94.0151 287.6 94.7Z" fill="#4299E1"/>
  <path opacity="0.05" d="M353.62 119.06C353.593 118.262 353.348 117.487 352.91 116.82L220.71 193.33C220.429 194.21 220.274 195.126 220.25 196.05V202.42L353.63 125.42L353.62 119.06Z" fill="black"/>
  <path d="M347.92 92C347.947 91.733 347.904 91.4635 347.795 91.2181C347.686 90.9727 347.516 90.7598 347.3 90.6001L343.22 88.25C342.974 88.1392 342.702 88.0957 342.433 88.1238C342.165 88.1519 341.908 88.2507 341.69 88.41L232.29 151.6C231.659 152.01 231.133 152.563 230.756 153.215C230.379 153.867 230.161 154.598 230.12 155.35V286.35C230.09 286.618 230.133 286.89 230.244 287.136C230.355 287.382 230.529 287.594 230.75 287.75L234.81 290.1C235.056 290.21 235.327 290.254 235.595 290.228C235.863 290.202 236.12 290.106 236.34 289.95L345.76 226.8C346.389 226.388 346.911 225.834 347.287 225.182C347.662 224.531 347.879 223.801 347.92 223.05V92Z" fill="#F0F0F0"/>
  <path d="M236.35 290L345.76 226.8C346.388 226.388 346.911 225.834 347.287 225.182C347.662 224.531 347.879 223.801 347.92 223.05V92C347.92 90.62 346.92 90.06 345.76 90.75L236.35 153.94C235.721 154.352 235.199 154.906 234.823 155.558C234.448 156.209 234.231 156.939 234.19 157.69V288.69C234.19 290.1 235.16 290.66 236.35 290Z" fill="#FAFAFA"/>
  <path d="M306.47 166C306.366 167.48 306.09 168.943 305.65 170.36C305.256 171.633 304.726 172.86 304.07 174.02C303.502 175.035 302.81 175.976 302.01 176.82C301.348 177.525 300.574 178.117 299.72 178.57C298.79 179.181 297.676 179.45 296.57 179.33C295.927 179.198 295.35 178.844 294.94 178.33C294.7 178.85 294.45 179.37 294.19 179.89C293.91 180.446 293.575 180.972 293.19 181.46C292.758 182.017 292.265 182.523 291.72 182.97C291.06 183.518 290.338 183.988 289.57 184.37C288.751 184.854 287.792 185.045 286.85 184.91C286.023 184.724 285.304 184.216 284.85 183.5C284.23 182.536 283.818 181.453 283.64 180.32C283.376 178.741 283.285 177.138 283.37 175.54C283.437 173.778 283.654 172.025 284.02 170.3C284.352 168.748 284.831 167.231 285.45 165.77C285.995 164.49 286.715 163.292 287.59 162.21C288.344 161.26 289.287 160.476 290.36 159.91C290.716 159.659 291.12 159.483 291.546 159.392C291.972 159.3 292.412 159.297 292.84 159.38C293.386 159.625 293.837 160.043 294.12 160.57V160.03C294.143 159.574 294.269 159.13 294.49 158.73C294.664 158.361 294.942 158.052 295.29 157.84L297.43 156.75C297.546 156.673 297.686 156.639 297.824 156.653C297.963 156.668 298.092 156.731 298.19 156.83C298.305 156.968 298.39 157.128 298.44 157.3C298.489 157.472 298.503 157.652 298.48 157.83L298 170.54C297.96 171.5 298.14 172.13 298.54 172.43C298.75 172.575 299 172.653 299.255 172.653C299.51 172.653 299.76 172.575 299.97 172.43C300.598 172.075 301.103 171.538 301.42 170.89C301.902 169.932 302.171 168.882 302.21 167.81C302.31 166.7 302.38 165.56 302.43 164.38C302.48 163.2 302.48 162.11 302.43 161.11C302.405 159.315 302.136 157.532 301.63 155.81C301.316 154.596 300.614 153.518 299.63 152.74C298.646 152.081 297.449 151.82 296.28 152.01C294.568 152.278 292.917 152.843 291.4 153.68C289.802 154.506 288.344 155.579 287.08 156.86C285.783 158.19 284.655 159.675 283.72 161.28C282.75 162.974 281.965 164.768 281.38 166.63C280.766 168.552 280.334 170.527 280.09 172.53C280.02 173.08 279.96 173.78 279.91 174.65C279.86 175.52 279.82 176.42 279.78 177.36C279.74 178.3 279.71 179.21 279.69 180.09C279.67 180.97 279.69 181.66 279.69 182.19C279.735 183.805 280.025 185.403 280.55 186.93C280.929 188.112 281.62 189.169 282.55 189.99C283.431 190.721 284.545 191.111 285.69 191.09C287.175 191.04 288.627 190.632 289.92 189.9C290.935 189.387 291.914 188.805 292.85 188.16C293.621 187.626 294.353 187.038 295.04 186.4C295.612 185.851 296.153 185.27 296.66 184.66C297.11 184.09 297.52 183.54 297.89 183C298.26 182.46 298.45 182.17 298.64 181.94C298.834 181.692 299.084 181.493 299.37 181.36L302.37 179.8C302.483 179.716 302.619 179.67 302.76 179.67C302.901 179.67 303.038 179.716 303.15 179.8C303.37 179.98 303.46 180.33 303.41 180.87C303.377 181.223 303.267 181.564 303.09 181.87C302.48 183 301.79 184.2 301.03 185.45C300.235 186.75 299.331 187.981 298.33 189.13C297.201 190.408 295.966 191.588 294.64 192.66C293.091 193.9 291.415 194.973 289.64 195.86C287.745 196.953 285.598 197.535 283.41 197.55C281.768 197.502 280.199 196.863 278.99 195.75C277.715 194.487 276.789 192.917 276.3 191.19C275.652 189.06 275.315 186.847 275.3 184.62C275.3 184.08 275.3 183.34 275.3 182.4C275.3 181.47 275.35 180.49 275.39 179.47C275.43 178.45 275.48 177.47 275.53 176.55C275.58 175.63 275.63 174.89 275.68 174.36C275.932 171.709 276.448 169.089 277.22 166.54C278.001 163.899 279.067 161.35 280.4 158.94C281.717 156.548 283.33 154.33 285.2 152.34C287.025 150.373 289.181 148.741 291.57 147.52C293.726 146.277 296.137 145.545 298.62 145.38C300.315 145.312 301.972 145.895 303.25 147.01C304.532 148.277 305.418 149.889 305.8 151.65C306.359 153.891 306.654 156.19 306.68 158.5C306.68 159.5 306.68 160.71 306.61 162.09C306.54 163.47 306.56 164.85 306.47 166ZM287.69 173.32C287.516 174.735 287.723 176.172 288.29 177.48C288.76 178.3 289.48 178.48 290.44 177.97C291.533 177.366 292.368 176.385 292.79 175.21C293.394 173.611 293.712 171.919 293.73 170.21C293.897 168.784 293.698 167.338 293.15 166.01C292.69 165.17 291.95 165.01 290.94 165.53C289.867 166.151 289.054 167.138 288.65 168.31C288.047 169.899 287.722 171.581 287.69 173.28V173.32Z" fill="#4299E1"/>
  <path d="M234.18 288.72C234.16 288.964 234.196 289.21 234.284 289.438C234.373 289.667 234.511 289.872 234.69 290.04L230.76 287.78C230.538 287.625 230.361 287.414 230.248 287.168C230.136 286.921 230.091 286.649 230.12 286.38V155.38C230.145 154.626 230.365 153.892 230.76 153.25L234.82 155.59C234.425 156.236 234.204 156.973 234.18 157.73V288.72Z" fill="#E0E0E0"/>
  <path d="M356.05 231.38C356.01 231.451 355.963 231.518 355.91 231.58L300.32 214C298.209 213.069 295.834 212.93 293.629 213.61C291.425 214.289 289.54 215.742 288.32 217.7L228.89 306L226.69 307.27C226.445 307.441 226.161 307.548 225.864 307.581C225.567 307.614 225.267 307.573 224.99 307.46L286.1 216.46C287.324 214.506 289.208 213.057 291.411 212.376C293.613 211.695 295.987 211.828 298.1 212.75L356.05 231.38Z" fill="#4299E1"/>
  <path opacity="0.4" d="M282.84 226.32L282.98 226.2L228.89 306L226.69 307.27C226.444 307.439 226.16 307.544 225.864 307.577C225.567 307.61 225.267 307.57 224.99 307.46L280.7 225L282.84 226.32Z" fill="white"/>
  <path opacity="0.4" d="M356.05 231.38C356.01 231.451 355.963 231.518 355.91 231.58L300.32 214C298.21 213.066 295.833 212.927 293.628 213.607C291.423 214.286 289.538 215.74 288.32 217.7L286.12 216.42C287.345 214.468 289.232 213.023 291.435 212.347C293.638 211.672 296.011 211.811 298.12 212.74L356.05 231.38Z" fill="white"/>
  <path d="M359.38 131.05C359.26 130.33 358.88 130.13 358.38 130.47C358.133 130.654 357.917 130.877 357.74 131.13L357.46 131.52L302.61 214.9L294.42 226.31C293.893 226.975 293.194 227.484 292.4 227.781C291.605 228.079 290.744 228.155 289.91 228L282.84 226.32L228.84 206.46C228.477 206.386 228.103 206.386 227.74 206.46C227.599 206.488 227.462 206.532 227.33 206.59L229.33 205.41L281.07 224.41L287.88 226.84C288.714 226.997 289.576 226.922 290.371 226.624C291.166 226.326 291.864 225.817 292.39 225.15L300.58 213.75L355.7 129.98C355.868 129.752 356.079 129.558 356.32 129.41L351.55 126.66L353.55 125.51L356.85 127.41C357.493 127.818 358.048 128.35 358.482 128.975C358.916 129.6 359.222 130.305 359.38 131.05V131.05Z" fill="#4299E1"/>
  <path opacity="0.4" d="M302.61 214.9L294.42 226.31C293.893 226.975 293.194 227.484 292.4 227.781C291.605 228.079 290.744 228.155 289.91 228L282.84 226.32L282.98 226.2L283.32 225.66L287.95 226.76C288.784 226.917 289.646 226.842 290.441 226.544C291.236 226.247 291.934 225.737 292.46 225.07L300.57 213.79L302.61 214.9Z" fill="white"/>
  <path opacity="0.1" d="M356.92 127.32L353.62 125.42L351.62 126.57L356.39 129.32C356.147 129.466 355.936 129.66 355.77 129.89L300.65 213.66L300.57 213.77L302.57 214.88L357.42 131.49L357.7 131.1C357.877 130.847 358.093 130.624 358.34 130.44C358.83 130.1 359.21 130.3 359.34 131.02C359.202 130.274 358.917 129.562 358.502 128.927C358.087 128.292 357.549 127.745 356.92 127.32V127.32Z" fill="black"/>
  <path d="M230 208.05L218.23 201.26V302.55C218.28 303.419 218.533 304.265 218.969 305.018C219.405 305.772 220.012 306.413 220.74 306.89L223.57 308.52C224.345 308.911 225.202 309.115 226.07 309.115C226.938 309.115 227.795 308.911 228.57 308.52L229.98 307.71L230 208.05Z" fill="#4299E1"/>
  <path opacity="0.15" d="M230 208.05L218.23 201.26V302.55C218.28 303.419 218.533 304.265 218.969 305.018C219.405 305.772 220.012 306.413 220.74 306.89L223.57 308.52C224.345 308.911 225.202 309.115 226.07 309.115C226.938 309.115 227.795 308.911 228.57 308.52L229.98 307.71L230 208.05Z" fill="black"/>
  <path d="M359.43 131.68V230.07C359.398 230.971 359.129 231.847 358.65 232.61C358.277 233.254 357.777 233.816 357.18 234.26L357.08 234.31C357.029 234.35 356.976 234.387 356.92 234.42L228.56 308.52C228.315 308.694 228.029 308.804 227.731 308.839C227.432 308.874 227.129 308.833 226.85 308.72C226.637 308.596 226.457 308.422 226.327 308.213C226.196 308.004 226.118 307.766 226.1 307.52C226.089 307.37 226.089 307.22 226.1 307.07V208.67C226.078 208.318 226.141 207.965 226.285 207.643C226.43 207.321 226.65 207.038 226.927 206.82C227.205 206.601 227.531 206.454 227.878 206.389C228.225 206.325 228.583 206.346 228.92 206.45L282.92 226.31L289.99 227.99C290.824 228.145 291.685 228.069 292.48 227.771C293.274 227.474 293.973 226.965 294.5 226.3L302.69 214.89L357.54 131.51L357.82 131.12C358.67 129.84 359.43 130.08 359.43 131.68Z" fill="#4299E1"/>
  <path d="M356.92 234.42L357.09 234.31L357.18 234.25C357.779 233.812 358.28 233.253 358.65 232.61C359.123 231.859 359.391 230.997 359.43 230.11L302.62 214.91L340.62 243.8L356.92 234.42Z" fill="#4299E1"/>
  <path opacity="0.2" d="M356.92 234.42L357.09 234.31L357.18 234.25C357.779 233.812 358.28 233.253 358.65 232.61C359.123 231.859 359.391 230.997 359.43 230.11L302.62 214.91L340.62 243.8L356.92 234.42Z" fill="black"/>
  <path d="M226.05 307.07C226.013 307.39 226.067 307.715 226.205 308.006C226.343 308.298 226.559 308.545 226.83 308.72C227.108 308.835 227.411 308.879 227.71 308.845C228.009 308.812 228.294 308.704 228.54 308.53V308.53L272.75 283L282.85 226.31L226.05 305.43V307.07Z" fill="#4299E1"/>
  <path opacity="0.15" d="M288.29 217.64L226.83 308.72C226.559 308.545 226.343 308.298 226.205 308.006C226.067 307.715 226.013 307.39 226.05 307.07V305.44L286.05 216.44L288.29 217.64Z" fill="black"/>
  <path d="M358.65 232.61C358.28 233.253 357.779 233.812 357.18 234.25L357.09 234.31L228.56 308.52C228.314 308.694 228.028 308.802 227.729 308.835C227.43 308.869 227.128 308.825 226.85 308.71L288.32 217.62C289.551 215.652 291.449 214.194 293.668 213.513C295.887 212.831 298.277 212.972 300.4 213.91L358.65 232.61Z" fill="#4299E1"/>
  <path opacity="0.15" d="M218.67 192.15L220.67 193.33C220.386 194.217 220.228 195.139 220.2 196.07V202.43L218.2 201.25V194.88C218.229 193.953 218.387 193.034 218.67 192.15Z" fill="black"/>
  <path d="M229.4 205.37L227.36 206.55L225.3 205.36L220.23 202.44L222.2 201.27L229.4 205.37Z" fill="#4299E1"/>
  <path opacity="0.1" d="M229.49 205.41L222.2 201.27L220.2 202.44L225.27 205.36L227.33 206.55L227.72 206.43C228.083 206.356 228.457 206.356 228.82 206.43L233 208L280.11 225.35L280.85 224.26L229.49 205.41Z" fill="black"/>
  <path d="M119 35.0699L111.38 39.4699C111.419 39.138 111.439 38.8041 111.44 38.4699V36.2699C111.44 32.3399 108.68 30.7499 105.28 32.7099C103.821 33.6141 102.57 34.8172 101.61 36.2399C101.06 31.2999 97.1798 29.4599 92.4698 32.1799C87.3898 35.1199 83.2598 42.2599 83.2598 48.1799V51.4799C83.227 52.7991 83.4937 54.1086 84.0398 55.3099L77.7098 58.9599C76.7172 59.6103 75.8913 60.485 75.299 61.5134C74.7066 62.5417 74.3644 63.6949 74.2998 64.8799C74.2998 67.0599 75.8298 67.9399 77.7098 66.8799L119 42.9999C119.992 42.3517 120.818 41.4788 121.411 40.4521C122.003 39.4254 122.345 38.2735 122.41 37.0899C122.44 34.8699 120.91 33.9999 119 35.0699Z" fill="#F0F0F0"/>
  <path d="M82.1399 9.99994L72.7599 15.4099C72.8111 14.9986 72.8378 14.5845 72.8399 14.1699V11.4099C72.8399 6.57994 69.4499 4.61994 65.2599 7.03994C63.4598 8.14618 61.9183 9.62623 60.7399 11.3799C60.0599 5.29994 55.2899 3.03994 49.4899 6.37994C43.2299 9.99994 38.1499 18.7999 38.1499 25.9999V30.0599C38.1218 31.6855 38.4637 33.2961 39.1499 34.7699L31.3599 39.2699C30.1356 40.0674 29.1165 41.1421 28.385 42.4069C27.6536 43.6717 27.2304 45.0911 27.1499 46.5499C27.1499 49.2399 29.0399 50.3199 31.3599 48.9799L82.1799 19.6399C83.4058 18.8443 84.4263 17.77 85.1579 16.5048C85.8896 15.2396 86.3117 13.8194 86.3899 12.3599C86.3499 9.69994 84.4699 8.61994 82.1399 9.99994Z" fill="#F0F0F0"/>
  <path d="M378.96 97.7201L414.33 75.0701L429.92 80.0701L378.96 97.7201Z" fill="#4299E1"/>
  <path d="M378.96 97.72L409.53 72.22L402.74 64.38L378.96 97.72Z" fill="#4299E1"/>
  <path d="M409.53 72.22V78.14L378.96 97.72L409.53 72.22Z" fill="#4299E1"/>
  <path opacity="0.25" d="M409.53 72.22V78.14L378.96 97.72L409.53 72.22Z" fill="black"/>
  <path d="M414.63 71.73C414.479 71.73 414.332 71.6846 414.207 71.5997C414.083 71.5147 413.987 71.3943 413.932 71.2539C413.877 71.1136 413.865 70.9599 413.899 70.8129C413.932 70.6659 414.009 70.5325 414.12 70.43C415.168 69.4609 416.135 68.4073 417.01 67.28C417.068 67.1962 417.142 67.125 417.228 67.0706C417.314 67.0163 417.41 66.9801 417.51 66.9641C417.611 66.9481 417.713 66.9527 417.812 66.9776C417.91 67.0025 418.003 67.0472 418.084 67.109C418.164 67.1708 418.232 67.2483 418.282 67.3369C418.332 67.4256 418.363 67.5234 418.374 67.6245C418.385 67.7257 418.375 67.8279 418.345 67.9251C418.315 68.0223 418.266 68.1125 418.2 68.19C417.273 69.3853 416.25 70.5024 415.14 71.53C415 71.6561 414.819 71.7272 414.63 71.73V71.73ZM420.26 64.26C420.142 64.2621 420.025 64.2346 419.92 64.18C419.832 64.1365 419.754 64.076 419.69 64.002C419.626 63.928 419.577 63.842 419.546 63.7489C419.515 63.6559 419.503 63.5577 419.511 63.4601C419.518 63.3624 419.545 63.2672 419.59 63.18C420.463 61.439 421.134 59.6037 421.59 57.71C421.636 57.5164 421.758 57.3492 421.928 57.2451C422.097 57.141 422.301 57.1086 422.495 57.155C422.689 57.2014 422.856 57.3228 422.96 57.4926C423.064 57.6623 423.096 57.8664 423.05 58.06C422.578 60.0654 421.874 62.0086 420.95 63.85C420.886 63.9767 420.787 64.0825 420.664 64.1551C420.542 64.2276 420.402 64.264 420.26 64.26V64.26ZM423 53.69C422.901 53.6861 422.805 53.6629 422.715 53.6216C422.626 53.5803 422.545 53.5217 422.478 53.4493C422.411 53.3768 422.359 53.2919 422.325 53.1994C422.291 53.1069 422.276 53.0085 422.28 52.91C422.28 52.5 422.28 52.1 422.28 51.7C422.279 50.1551 422.149 48.613 421.89 47.09C421.873 46.9928 421.875 46.8932 421.896 46.7968C421.917 46.7004 421.958 46.6092 422.014 46.5284C422.071 46.4475 422.143 46.3787 422.226 46.3258C422.31 46.2728 422.403 46.2369 422.5 46.22C422.697 46.1881 422.899 46.2353 423.062 46.3513C423.225 46.4674 423.336 46.643 423.37 46.84C423.64 48.4459 423.778 50.0715 423.78 51.7C423.78 52.12 423.78 52.55 423.78 52.97C423.776 53.0685 423.753 53.1653 423.712 53.2548C423.67 53.3444 423.612 53.4249 423.539 53.4917C423.467 53.5586 423.382 53.6105 423.289 53.6446C423.197 53.6786 423.098 53.694 423 53.69ZM421.39 42.88C421.233 42.8799 421.08 42.8306 420.953 42.7391C420.826 42.6477 420.73 42.5186 420.68 42.37C420.033 40.5265 419.22 38.7457 418.25 37.05C418.163 36.8784 418.144 36.6807 418.196 36.4957C418.248 36.3107 418.367 36.1517 418.53 36.05C418.701 35.9611 418.9 35.9406 419.085 35.9926C419.271 36.0446 419.43 36.1652 419.53 36.33C420.544 38.1079 421.391 39.9759 422.06 41.91C422.1 42.0055 422.119 42.1081 422.117 42.2115C422.115 42.3148 422.092 42.4166 422.048 42.5105C422.005 42.6044 421.943 42.6884 421.866 42.7571C421.789 42.8259 421.698 42.8779 421.6 42.91C421.526 42.9082 421.452 42.8981 421.38 42.88H421.39ZM416.13 33.27C416.016 33.2696 415.904 33.2433 415.802 33.1931C415.699 33.1428 415.61 33.07 415.54 32.98C414.34 31.4279 413.023 29.9703 411.6 28.62C411.509 28.5606 411.431 28.4821 411.373 28.3897C411.315 28.2974 411.278 28.1936 411.264 28.0854C411.251 27.9773 411.261 27.8674 411.294 27.7635C411.327 27.6596 411.382 27.5642 411.456 27.4839C411.529 27.4035 411.62 27.3402 411.72 27.2984C411.821 27.2565 411.93 27.2371 412.039 27.2415C412.147 27.2459 412.254 27.274 412.351 27.3238C412.448 27.3736 412.533 27.444 412.6 27.53C414.079 28.9344 415.45 30.4487 416.7 32.06C416.805 32.2142 416.849 32.4021 416.823 32.5871C416.798 32.772 416.704 32.9407 416.56 33.06C416.441 33.1777 416.286 33.2517 416.12 33.27H416.13ZM408.3 25.59C408.138 25.5907 407.979 25.538 407.85 25.44C406.274 24.2571 404.628 23.1718 402.92 22.19C402.757 22.0883 402.638 21.9287 402.588 21.7431C402.538 21.5576 402.56 21.3599 402.65 21.19C402.748 21.0231 402.908 20.9013 403.095 20.8509C403.282 20.8004 403.481 20.8252 403.65 20.92C405.41 21.9316 407.107 23.0504 408.73 24.27C408.856 24.3644 408.949 24.4961 408.996 24.6464C409.043 24.7966 409.041 24.9578 408.991 25.1072C408.942 25.2565 408.846 25.3864 408.719 25.4784C408.591 25.5705 408.437 25.62 408.28 25.62L408.3 25.59ZM329.71 22.69C329.544 22.6913 329.383 22.6377 329.251 22.5376C329.119 22.4374 329.024 22.2964 328.98 22.1365C328.937 21.9766 328.948 21.8068 329.011 21.6537C329.074 21.5005 329.186 21.3727 329.33 21.29C331.07 20.29 332.87 19.35 334.7 18.48C334.789 18.4378 334.886 18.4136 334.985 18.4088C335.083 18.4041 335.182 18.4188 335.275 18.4523C335.368 18.4857 335.453 18.5372 335.526 18.6037C335.599 18.6703 335.658 18.7506 335.7 18.84C335.744 18.929 335.769 19.0259 335.774 19.1249C335.78 19.2239 335.765 19.3229 335.732 19.4162C335.698 19.5095 335.646 19.5951 335.579 19.6679C335.512 19.7407 335.43 19.7992 335.34 19.84C333.55 20.69 331.78 21.61 330.08 22.59C329.965 22.657 329.833 22.6915 329.7 22.69H329.71ZM398.87 20C398.759 20.0019 398.65 19.978 398.55 19.93C396.77 19.07 394.94 18.28 393.1 17.57C393.004 17.5348 392.917 17.4805 392.843 17.4105C392.769 17.3404 392.71 17.256 392.67 17.1624C392.63 17.0689 392.609 16.9681 392.609 16.8662C392.609 16.7644 392.63 16.6636 392.67 16.57C392.705 16.4744 392.759 16.387 392.829 16.3131C392.9 16.2392 392.984 16.1803 393.078 16.14C393.171 16.0998 393.272 16.0791 393.374 16.079C393.476 16.079 393.576 16.0998 393.67 16.14C395.54 16.86 397.41 17.67 399.23 18.55C399.38 18.6256 399.501 18.7495 399.572 18.9018C399.643 19.0541 399.662 19.226 399.624 19.3898C399.585 19.5536 399.493 19.6999 399.362 19.8052C399.231 19.9104 399.068 19.9684 398.9 19.97L398.87 20ZM339.6 18C339.449 17.9974 339.302 17.9505 339.178 17.8652C339.053 17.7798 338.957 17.6598 338.9 17.52C338.86 17.4264 338.839 17.3256 338.839 17.2238C338.839 17.1219 338.86 17.0211 338.9 16.9276C338.94 16.834 338.999 16.7496 339.073 16.6795C339.147 16.6095 339.234 16.5552 339.33 16.52C341.2 15.79 343.13 15.12 345.06 14.52C345.251 14.463 345.457 14.4842 345.632 14.5789C345.807 14.6736 345.938 14.834 345.995 15.025C346.052 15.216 346.031 15.4217 345.936 15.5971C345.841 15.7724 345.681 15.903 345.49 15.96C343.6 16.52 341.71 17.18 339.88 17.89C339.791 17.9254 339.696 17.9424 339.6 17.94V18ZM388.6 16C388.527 16.0143 388.453 16.0143 388.38 16C386.5 15.43 384.57 14.93 382.64 14.51C382.541 14.4864 382.447 14.4434 382.365 14.3836C382.282 14.3239 382.212 14.2484 382.159 14.1616C382.051 13.9862 382.017 13.7752 382.065 13.575C382.113 13.3748 382.238 13.2017 382.413 13.0939C382.589 12.986 382.8 12.9523 383 13C385 13.43 386.94 13.94 388.86 14.53C388.955 14.5586 389.043 14.6056 389.119 14.6684C389.196 14.7312 389.259 14.8085 389.306 14.8959C389.352 14.9833 389.381 15.079 389.39 15.1775C389.4 15.2761 389.389 15.3755 389.36 15.47C389.311 15.6231 389.216 15.7568 389.086 15.8521C388.957 15.9473 388.801 15.9991 388.64 16H388.6ZM350.1 14.69C349.931 14.6899 349.766 14.6325 349.634 14.5272C349.501 14.4219 349.408 14.2749 349.37 14.11C349.328 13.9152 349.364 13.7117 349.471 13.5434C349.577 13.3751 349.746 13.2553 349.94 13.21C351.89 12.76 353.89 12.38 355.89 12.09C355.99 12.0677 356.095 12.0664 356.196 12.086C356.297 12.1057 356.393 12.1459 356.477 12.2043C356.562 12.2626 356.634 12.3378 356.689 12.4252C356.743 12.5125 356.779 12.6101 356.794 12.7119C356.809 12.8138 356.803 12.9176 356.777 13.017C356.75 13.1165 356.703 13.2093 356.639 13.2898C356.575 13.3703 356.494 13.4367 356.404 13.4849C356.313 13.5331 356.213 13.5621 356.11 13.57C354.11 13.86 352.19 14.23 350.27 14.68L350.1 14.69ZM377.92 13.54H377.81C375.86 13.25 373.87 13.04 371.9 12.91C371.796 12.9128 371.692 12.8938 371.595 12.8542C371.498 12.8146 371.411 12.7552 371.339 12.6799C371.266 12.6046 371.211 12.515 371.175 12.4169C371.139 12.3188 371.124 12.2143 371.131 12.1101C371.138 12.0058 371.167 11.9043 371.215 11.8118C371.264 11.7193 371.331 11.638 371.413 11.573C371.495 11.5081 371.589 11.4609 371.69 11.4345C371.791 11.4082 371.897 11.4032 372 11.42C374 11.55 376 11.76 378 12.05C378.185 12.0804 378.352 12.1788 378.468 12.326C378.584 12.4732 378.64 12.6585 378.626 12.8453C378.613 13.0322 378.529 13.2071 378.393 13.3357C378.257 13.4642 378.077 13.5371 377.89 13.54H377.92ZM361 13C360.801 13.008 360.607 12.9366 360.461 12.8015C360.315 12.6665 360.228 12.4789 360.22 12.28C360.212 12.0811 360.283 11.8872 360.418 11.7409C360.553 11.5946 360.741 11.508 360.94 11.5C362.94 11.34 364.99 11.25 367 11.25C367.199 11.25 367.39 11.329 367.53 11.4697C367.671 11.6103 367.75 11.8011 367.75 12C367.75 12.1989 367.671 12.3897 367.53 12.5303C367.39 12.671 367.199 12.75 367 12.75C365 12.75 363 12.84 361.06 13H361Z" fill="#E0E0E0"/>
</svg>
